<?xml version="1.0" encoding="utf-8"?>
<!-- Generator: Adobe Illustrator 27.0.0, SVG Export Plug-In . SVG Version: 6.00 Build 0)  -->
<svg version="1.1" id="Layer_1" xmlns="http://www.w3.org/2000/svg" xmlns:xlink="http://www.w3.org/1999/xlink" x="0px" y="0px"
	 viewBox="0 0 512 512" style="enable-background:new 0 0 512 512;" xml:space="preserve">
<style type="text/css">
	.st0{fill:#443A31;}
	.st1{fill:#009FE3;}
</style>
<g id="XMLID_1_">
	<path id="XMLID_6_" class="st0" d="M183.76,303.81c2.1-2.8,3.08-6.03,3.08-9.67c0-4.06-1.54-7.71-4.49-10.65
		c-2.94-2.94-6.45-4.49-10.65-4.49h-14.86c-2.1,0-3.5,1.4-3.5,3.5v47.94c0,2.1,1.54,3.5,3.5,3.5h16.68c4.35,0,8.13-1.54,11.21-4.63
		c3.08-3.08,4.77-6.87,4.77-11.21v-1.82c0-3.08-0.84-6.17-2.66-8.83C185.86,306.05,184.88,304.79,183.76,303.81z M174.79,298.2
		c-0.98,0.98-2.24,1.4-3.92,1.4h-7.15v-9.95h7.85c1.4,0,2.38,0.42,3.22,1.26c0.98,0.98,1.4,1.96,1.4,3.22
		C176.33,295.96,175.77,297.08,174.79,298.2z M163.85,310.11h8.83c1.68,0,3.08,0.56,4.21,1.82c1.26,1.26,1.82,2.66,1.82,4.35v2.1
		c0,1.4-0.56,2.66-1.54,3.64c-1.12,1.12-2.24,1.54-3.78,1.54h-9.67L163.85,310.11z"/>
	<path id="XMLID_9_" class="st0" d="M216.7,278.29c-5.05,0-9.53,1.82-13.18,5.47c-3.64,3.64-5.47,7.99-5.47,13.18v19.48
		c0,5.05,1.82,9.53,5.47,13.18c3.64,3.64,7.99,5.47,13.18,5.47c5.05,0,9.53-1.82,13.18-5.47c3.64-3.64,5.47-7.99,5.47-13.18V296.8
		c0-5.05-1.82-9.53-5.47-13.18C226.23,280.12,221.74,278.29,216.7,278.29z M208.57,296.94c0-2.24,0.7-4.06,2.38-5.75
		c1.54-1.54,3.36-2.38,5.61-2.38c2.24,0,4.06,0.7,5.61,2.38c1.68,1.68,2.38,3.5,2.38,5.75v19.48c0,2.38-0.7,4.06-2.38,5.61
		c-1.54,1.54-3.5,2.38-5.61,2.38c-2.24,0-4.06-0.84-5.75-2.38c-1.54-1.54-2.38-3.36-2.38-5.61L208.57,296.94z"/>
	<path id="XMLID_12_" class="st0" d="M309.77,279.14H298c-2.1,0-3.5,1.4-3.5,3.5v47.94c0,2.1,1.54,3.5,3.5,3.5h13.6
		c4.91,0,9.25-1.82,12.76-5.33s5.33-7.85,5.33-12.76v-17.1c0-5.47-1.96-10.09-5.89-14.02C320,281.1,315.24,279.14,309.77,279.14z
		 M311.59,323.57h-6.59v-33.92h4.91c2.66,0,4.77,0.84,6.59,2.66c1.82,1.82,2.8,4.06,2.8,6.59V316c0,2.1-0.7,3.78-2.24,5.33
		C315.38,322.87,313.7,323.57,311.59,323.57z"/>
	<path id="XMLID_13_" class="st0" d="M369.06,323.57h-17.52v-13.46h14.58c1.96,0,3.5-1.54,3.5-3.5v-3.5c0-2.1-1.4-3.5-3.5-3.5
		h-14.58v-9.81h17.1c1.96,0,3.5-1.54,3.5-3.5v-3.64c0-2.1-1.54-3.5-3.5-3.5h-24.11c-2.1,0-3.5,1.4-3.5,3.5v47.94
		c0,2.1,1.54,3.5,3.5,3.5h24.53c2.1,0,3.5-1.54,3.5-3.5v-3.5C372.57,325.11,371.03,323.57,369.06,323.57z"/>
	<path id="XMLID_16_" class="st0" d="M408.31,281.52c-0.56-1.54-1.82-2.52-3.36-2.52h-6.45c-1.54,0-2.8,0.98-3.36,2.52l-14.58,47.66
		c-0.14,0.42-0.28,0.84-0.28,1.4c0,2.1,1.54,3.5,3.5,3.5h3.64c1.68,0,2.94-0.98,3.36-2.52l4.35-14.02h13.18l4.21,14.02v0.14
		c0.56,1.4,1.82,2.24,3.36,2.24h3.64c1.96,0,3.5-1.54,3.5-3.5c0-0.56-0.14-0.98-0.28-1.26L408.31,281.52z M405.79,307.03h-7.85
		l3.92-13.18L405.79,307.03z"/>
	<path id="XMLID_17_" class="st0" d="M462.56,279.14h-3.5c-2.1,0-3.5,1.54-3.5,3.5v35.04c0,1.96-0.56,3.5-1.96,4.91
		c-1.4,1.4-2.94,2.1-4.91,2.1c-1.96,0-3.5-0.7-4.91-2.1c-1.26-1.26-1.96-2.94-1.96-4.77v-35.04c0-2.1-1.4-3.5-3.5-3.5h-3.5
		c-2.1,0-3.5,1.54-3.5,3.5v35.04c0,4.77,1.68,8.97,5.05,12.34c3.36,3.36,7.57,5.05,12.34,5.05c4.77,0,8.97-1.68,12.34-5.19
		c3.36-3.36,5.05-7.57,5.05-12.34v-35.04C466.06,280.54,464.66,279.14,462.56,279.14z"/>
	<path id="XMLID_18_" class="st0" d="M499.14,306.47l12.34-22.57l0.28-0.7c0.28-1.54-0.14-2.52-0.7-3.08
		c-0.42-0.42-1.26-1.26-2.8-1.26h-3.5c-1.4,0-2.66,0.84-3.08,1.96l-8.27,15l-8.13-14.86c-0.56-1.26-1.68-2.1-3.22-2.1h-3.5
		c-1.54,0-2.38,0.84-2.8,1.26c-0.42,0.56-0.98,1.54-0.56,3.22l0.28,0.7l12.19,22.43l-12.19,22.29l-0.14,0.42
		c-0.42,1.68,0.14,2.66,0.42,3.22c0.42,0.56,1.26,1.4,2.94,1.4h3.64c1.4,0,2.66-0.84,3.22-2.1l8.13-14.72l7.99,14.72
		c0.56,1.4,1.82,2.1,3.22,2.1h3.64c1.68,0,2.52-0.84,2.94-1.4c0.42-0.56,0.98-1.68,0.42-3.36L499.14,306.47z"/>
	<path id="XMLID_21_" class="st0" d="M282.86,329.18l-9.53-18.22c1.26-0.7,2.38-1.54,3.36-2.66c3.08-3.08,4.63-6.73,4.63-10.93
		v-2.66c0-4.35-1.54-7.99-4.63-11.07c-2.94-2.94-6.73-4.49-10.93-4.49h-15.42c-2.1,0-3.5,1.4-3.5,3.5v47.94c0,2.1,1.54,3.5,3.5,3.5
		h3.5c1.96,0,3.5-1.54,3.5-3.5v-17.66h5.61l9.95,18.92c0.56,1.4,1.82,2.1,3.22,2.1h3.64c1.68,0,2.52-0.84,2.94-1.4
		C282.86,332.12,283.42,331,282.86,329.18L282.86,329.18z M270.66,294.69v2.66c0,1.4-0.42,2.38-1.54,3.5
		c-1.12,0.98-2.1,1.54-3.5,1.54h-8.41v-12.62h8.41c1.4,0,2.52,0.42,3.36,1.4C270.1,292.17,270.66,293.29,270.66,294.69z"/>
	<path id="XMLID_24_" class="st0" d="M122.36,302.68h-1.12c-0.28,0-0.42-0.14-0.42-0.42v-0.28c0-0.28-0.14-0.42-0.42-0.42h-0.14
		c-1.26,0.98-2.52,1.4-3.92,1.4c-1.68,0-3.22-0.56-4.35-1.82c-1.26-1.26-1.82-2.66-1.82-4.35v-4.91c0-1.68,0.56-3.22,1.82-4.35
		c1.26-1.26,2.66-1.82,4.35-1.82c1.26,0,2.24,0.28,3.22,0.98c0,0,0.14,0,0.28,0c0.28,0,0.28-0.14,0.28-0.28v-6.87
		c0-0.28,0.14-0.42,0.42-0.42h1.68c0.28,0,0.28,0.14,0.28,0.42v22.71C122.64,302.68,122.64,302.68,122.36,302.68z M120.4,292.03
		c0-1.12-0.42-1.96-1.12-2.66c-0.84-0.84-1.68-1.12-2.66-1.12c-1.12,0-1.96,0.42-2.8,1.12c-0.7,0.7-1.12,1.68-1.12,2.66v4.91
		c0,1.12,0.42,1.96,1.12,2.8c0.7,0.7,1.68,1.12,2.8,1.12s1.96-0.42,2.66-1.12c0.84-0.84,1.12-1.68,1.12-2.8V292.03z"/>
	<path id="XMLID_27_" class="st0" d="M138.2,295.54h-8.83c-0.28,0-0.42,0.14-0.42,0.42v0.98c0,1.12,0.42,1.96,1.12,2.8
		c0.84,0.84,1.68,1.12,2.8,1.12c1.4,0,2.52-0.42,3.64-1.12c0.14-0.14,0.28-0.14,0.42,0l0.98,1.4c0.14,0.14,0.14,0.42-0.14,0.42
		c-1.4,1.12-3.08,1.54-5.05,1.54c-1.68,0-3.22-0.56-4.35-1.82c-1.26-1.26-1.82-2.66-1.82-4.49v-5.19c0-1.68,0.56-3.08,1.68-4.21
		c1.12-1.12,2.52-1.68,4.21-1.68c1.68,0,3.08,0.56,4.21,1.68c1.12,1.12,1.68,2.52,1.68,4.21v3.5
		C138.62,295.4,138.48,295.54,138.2,295.54z M136.24,291.75c0-0.98-0.28-1.82-0.98-2.52c-0.7-0.7-1.54-0.98-2.52-0.98
		c-0.98,0-1.82,0.28-2.52,0.98s-1.12,1.54-1.12,2.52v1.12c0,0.28,0.14,0.42,0.42,0.42h6.45c0.28,0,0.28-0.14,0.28-0.42V291.75z"/>
	<path id="XMLID_28_" class="st0" d="M15.41,229.66v16.54c0,3.08,1.12,5.75,3.36,7.99c2.24,2.24,4.77,3.36,7.99,3.36
		c3.08,0,5.75-1.12,7.85-3.36c2.24-2.24,3.36-4.91,3.36-7.99v-35.6c0-0.7,0.28-1.12,1.12-1.12h5.61c0.7,0,1.12,0.28,1.12,1.12v35.6
		c0,5.19-1.96,9.67-5.61,13.46c-3.78,3.78-8.27,5.61-13.46,5.61s-9.81-1.96-13.6-5.61c-3.78-3.78-5.61-8.27-5.61-13.46v-8.55
		L15.41,229.66z"/>
	<path id="XMLID_29_" class="st0" d="M169.32,222.37l-8.83,24.25c-0.28,0.42-0.42,0.56-0.84,0.56c-0.28,0-0.7-0.14-0.7-0.56
		l-13.18-36.44c-0.28-0.7-0.7-1.12-1.4-1.12h-5.75c-1.12,0-1.54,0.56-1.12,1.68l18.92,52c0.28,0.7,0.56,1.26,1.12,1.26h4.35
		c0.56,0,0.98-0.56,1.12-1.26l12.76-35.32L169.32,222.37z"/>
	<path id="XMLID_30_" class="st0" d="M250.06,230.92v31.68c0,0.7-0.42,1.12-1.12,1.12h-5.47c-0.7,0-1.12-0.42-1.12-1.12v-22.57
		L250.06,230.92z"/>
	<path id="XMLID_31_" class="st0" d="M299.82,217.88c-3.22-1.26-6.73-1.82-10.51-1.82c-1.96,0-3.78,0.7-5.19,2.1
		s-1.96,3.08-1.96,5.05c0,3.5,1.68,5.75,5.19,6.73l11.21,2.94c3.78,0.98,6.59,2.94,8.83,5.89c2.1,2.94,3.36,6.17,3.36,9.81
		c0,4.63-1.68,8.69-5.05,11.91c-3.36,3.22-7.29,4.91-11.77,4.91c-7.71,0-15-1.96-21.59-5.89c-0.7-0.42-0.84-0.98-0.42-1.68l2.8-4.63
		c0.28-0.7,0.84-0.7,1.54-0.28c5.47,3.22,11.35,4.77,17.66,4.77c2.38,0,4.63-0.84,6.45-2.66c1.68-1.68,2.66-3.78,2.66-6.45
		c0-1.82-0.7-3.5-1.82-5.05c-1.12-1.54-2.66-2.38-4.49-2.94l-11.35-3.08c-3.36-0.84-6.03-2.66-7.99-5.33
		c-1.96-2.66-2.94-5.61-2.94-8.83c0-4.21,1.4-7.71,4.35-10.65c2.94-2.94,6.45-4.35,10.65-4.35c4.63,0,9.11,0.84,13.46,2.52
		L299.82,217.88z"/>
	<path id="XMLID_34_" class="st0" d="M332.76,198.12c-0.98,1.12-2.24,1.54-3.78,1.54c-1.4,0-2.66-0.56-3.64-1.54
		c-1.12-0.98-1.54-2.24-1.54-3.64c0-1.54,0.56-2.8,1.54-3.78c0.98-1.12,2.24-1.54,3.64-1.54c1.54,0,2.8,0.42,3.78,1.54
		c1.12,0.98,1.54,2.24,1.54,3.78C334.44,195.87,333.88,197.14,332.76,198.12z M331.78,263.72h-5.47c-0.84,0-1.12-0.42-1.12-1.12v-52
		c0-0.7,0.28-1.12,1.12-1.12h5.47c0.7,0,1.12,0.28,1.12,1.12v52C333.04,263.3,332.62,263.72,331.78,263.72z"/>
	<path id="XMLID_37_" class="st0" d="M427.09,239.89h-29.02c-0.7,0-1.12,0.42-1.12,1.12v3.36c0,3.64,1.26,6.59,3.78,9.11
		c2.52,2.52,5.61,3.78,9.11,3.78c4.49,0,8.55-1.26,12.19-3.78c0.56-0.42,1.12-0.28,1.54,0.28l3.22,4.63
		c0.42,0.56,0.28,1.12-0.28,1.54c-4.77,3.5-10.37,5.19-16.54,5.19c-5.61,0-10.37-1.96-14.44-6.03c-4.06-4.06-6.03-8.83-6.03-14.58
		v-17.1c0-5.47,1.96-9.95,5.75-13.88c3.78-3.78,8.41-5.61,13.74-5.61c5.47,0,9.95,1.96,13.88,5.75c3.78,3.78,5.61,8.41,5.61,13.74
		v11.35C428.08,239.47,427.8,239.89,427.09,239.89z M420.37,227.41c0-3.22-1.12-6.03-3.36-8.27c-2.38-2.38-5.05-3.36-8.27-3.36
		s-6.03,1.12-8.27,3.36c-2.38,2.38-3.5,5.05-3.5,8.27v3.64c0,0.7,0.42,1.12,1.12,1.12h21.17c0.7,0,1.12-0.42,1.12-1.12V227.41z"/>
	<path id="XMLID_38_" class="st0" d="M125.45,225.45v37.15c0,0.7-0.42,1.12-1.12,1.12h-5.47c-0.84,0-1.12-0.42-1.12-1.12v-37.15
		H125.45z"/>
	<path id="XMLID_41_" class="st0" d="M190.77,241.57v-14.02c0-5.47,1.96-9.95,5.75-13.88c3.78-3.78,8.41-5.61,13.74-5.61
		c5.47,0,9.95,1.96,13.88,5.75c3.78,3.78,5.61,8.41,5.61,13.74v11.35c0,0.7-0.28,1.12-1.12,1.12H199.6c-0.7,0-1.12,0.42-1.12,1.12
		v3.36c0,0.98,0.14,1.96,0.28,2.8L190.77,241.57z M222.02,227.41c0-3.22-1.12-6.03-3.36-8.27c-2.38-2.38-5.05-3.36-8.27-3.36
		c-3.22,0-6.03,1.12-8.27,3.36c-2.38,2.38-3.5,5.05-3.5,8.27v3.64c0,0.7,0.42,1.12,1.12,1.12h21.17c0.7,0,1.12-0.42,1.12-1.12
		V227.41z"/>
	<path id="XMLID_42_" class="st0" d="M361.21,223.91v21.87c0,3.36,1.12,6.31,3.5,8.69c2.38,2.38,5.19,3.5,8.69,3.5
		c2.8,0,5.61-0.84,8.55-2.66c0.7-0.42,1.12-0.28,1.68,0.28l3.08,4.35c0.42,0.7,0.28,1.12-0.28,1.54c-3.78,2.8-8.27,4.21-13.04,4.21
		c-5.61,0-10.09-1.96-14.02-5.89c-3.92-3.92-5.89-8.55-5.89-14.02v-24.53L361.21,223.91z"/>
	<path id="XMLID_43_" class="st0" d="M92.93,249.14v-21.87c0-3.08-1.12-5.75-3.36-7.85c-2.24-2.24-4.91-3.36-7.99-3.36
		s-5.75,1.12-7.99,3.36c-2.1,2.1-3.36,4.77-3.36,7.85v35.6c0,0.7-0.28,1.12-1.12,1.12h-5.47c-0.7,0-1.12-0.42-1.12-1.12v-35.6
		c0-5.19,1.96-9.67,5.61-13.46c3.78-3.78,8.27-5.61,13.46-5.61s9.67,1.82,13.46,5.61c3.78,3.78,5.61,8.27,5.61,13.46v17.52
		L92.93,249.14z"/>
	<path id="XMLID_44_" class="st1" d="M415.6,185.64c-1.12,1.4-2.24,3.5-3.5,4.91c-1.4,1.12-3.22,4.06-4.49,5.19
		c0,0.28-0.84,1.12-0.84,1.12c-0.42,1.26-0.84,0.98-1.4,1.54c-0.98,0.98-2.1,1.12-2.8,0.56c-1.54-0.98,0.98-4.63,2.24-6.03
		c0.14-0.28,0.14-0.42,0.14-0.7c0.42-0.7,0.7-1.4,0.98-1.96c0.42-0.42,0.7-0.42,0.98-0.56c-0.14-0.7,0.7-1.54,0.98-2.1
		c0.42-0.56,0.28-1.4,0.84-1.96c0.7-0.7,0.98-1.12,1.26-1.96c0.42,0,0.98-0.7,0.98-0.7c0.14-0.84,0.42-1.68,0.7-2.52
		c0,0,0.28-0.42,0.42-0.42c0.7-0.84,0.84-2.1,1.54-2.8c0.56-0.42,1.68-0.56,2.38-0.42c1.26,0.42,2.8,0.98,3.78,2.52
		C419.95,182.14,417.28,183.96,415.6,185.64z"/>
	<path id="XMLID_45_" class="st1" d="M258.33,208.07c-3.5,0-5.61,1.68-8.27,6.31h-0.14v-5.33h-14.58v4.63h4.21
		c1.82,0,2.52,0.42,2.52,2.38l0.14,23.83l7.71-9.11l0.14-9.39c0-4.21,2.8-9.67,8.13-9.67c0.98,0,1.96,0.14,2.8,0.98
		c-2.38,0-4.35,1.4-4.35,3.92c0,2.66,2.1,4.21,4.63,4.21c3.22,0,5.05-2.52,5.05-5.47C266.46,210.31,262.67,208.07,258.33,208.07z"/>
	<path id="XMLID_46_" class="st1" d="M302.76,210.59c2.38,0,4.35-1.54,5.61-4.35h4.49v28.17h-5.19c-0.84-7.01-3.5-12.48-7.71-16.54
		L302.76,210.59z"/>
	<rect id="XMLID_47_" x="117.74" y="189.15" class="st1" width="7.57" height="9.95"/>
	<path id="XMLID_48_" class="st1" d="M124.33,206.39c-2.66,3.92-4.77,5.33-12.76,6.03v2.52c1.96,0,5.05-0.28,5.89,2.1
		c0.28,0.84,0.14-0.14,0.14,8.55h7.71c0-8.55,0.28-14.58,1.12-19.2L124.33,206.39L124.33,206.39z"/>
	<path id="XMLID_49_" class="st1" d="M181.24,212.69c3.5,0,3.5,0.14,4.63,0.14c0.7,0,1.68-0.7,1.68-1.96c0-1.12-0.84-1.82-1.68-1.82
		c-1.12,0-1.68,0.56-8.83,0.56h-0.28c-7.43,0-7.57-0.56-8.69-0.56c-0.84,0-1.68,0.7-1.68,1.82c0,1.26,0.84,1.96,1.68,1.96
		c1.12,0,1.26-0.14,4.91-0.14l-3.5,9.95l6.45,5.05L181.24,212.69z"/>
	<path id="XMLID_50_" class="st1" d="M206.33,256.57c3.92,2.38,8.41,3.36,12.19,3.36c7.57,0,11.07-2.8,11.77-2.8
		c0.56,0,0.56,0.7,0.56,0.98c0,0.56-8.83,7.43-18.08,7.43c-9.53,0-22.01-4.63-22.01-23.83l7.99,5.75
		C200.44,251.52,203.1,254.61,206.33,256.57"/>
	<path id="XMLID_51_" class="st1" d="M353.51,221.25v-4.21c-2.66-0.14-5.89,0-8.55,0.98l-0.7-0.56c1.26-3.5,5.19-5.89,8.97-5.89
		c1.68-0.98,1.68-10.65,3.08-12.34c0.56-0.7,2.66-2.1,4.21-3.36c0.7,1.12-1.26,14.86,0.7,15.14c7.01,1.26,14.3,1.54,20.75-0.56
		c1.4,0.98,0,2.24-0.56,3.22c-5.61,5.19-13.04,2.94-20.32,3.22v7.01L353.51,221.25z"/>
	<polygon id="XMLID_52_" class="st1" points="15.41,209.47 0.13,209.47 0.13,215.36 7.56,215.36 7.56,237.65 15.41,229.66 	"/>
	<path id="XMLID_53_" class="st1" d="M101.2,259.93c-0.84-2.38-0.84-9.53-0.84-15.56l-7.71,4.35l0.14,8.41
		c0,3.5,0.42,6.45,1.12,8.69c4.77-1.68,9.53-3.22,13.6-4.49v-2.8C106.38,259.37,103.3,259.93,101.2,259.93z"/>
</g>
</svg>
