<?xml version="1.0" encoding="UTF-8" standalone="no"?>
<!-- Created with Inkscape (http://www.inkscape.org/) -->
<svg xmlns:dc="http://purl.org/dc/elements/1.1/" xmlns:cc="http://creativecommons.org/ns#" xmlns:rdf="http://www.w3.org/1999/02/22-rdf-syntax-ns#" xmlns:svg="http://www.w3.org/2000/svg" xmlns="http://www.w3.org/2000/svg" version="1.1" width="368.80142" height="398.58505" id="svg4570"><link xmlns="" type="text/css" rel="stylesheet" id="dark-mode-custom-link"/><link xmlns="" type="text/css" rel="stylesheet" id="dark-mode-general-link"/><style xmlns="" lang="en" type="text/css" id="dark-mode-custom-style"/><style xmlns="" lang="en" type="text/css" id="dark-mode-native-style"/><style xmlns="" lang="en" type="text/css" id="dark-mode-native-sheet"/>
  <defs id="defs4572"/>
  <g transform="translate(-227.02786,-247.35537)" id="layer1">
    <path d="m 580.14638,634.06398 c 0.6568,2.588 2.25469,3.5487 5.39166,3.5487 3.01933,0 4.44077,-1.34302 4.44077,-2.79386 0,-4.36235 -11.53816,-1.2744 -11.53816,-7.21503 0,-2.49977 2.33312,-4.30352 6.33275,-4.30352 3.8918,0 6.43078,1.34301 6.95034,4.74466 l -2.12725,0 c -0.38232,-2.33312 -2.2547,-3.17618 -4.8623,-3.17618 -2.63701,0 -4.06825,1.04893 -4.06825,2.5978 0,4.09766 11.53815,1.53908 11.53815,7.32286 0,2.88208 -3.08795,4.39175 -7.33266,4.39175 -4.2349,0 -6.67585,-2.2645 -6.8425,-5.11718 l 2.11745,0 z m -7.50617,-3.86729 c 0,-2.9409 -1.9508,-5.32304 -5.69555,-5.32304 -3.68594,0 -5.63674,2.47037 -6.04847,5.32304 l 11.74402,0 z m -11.74402,1.45085 c -0.0392,3.2644 2.04884,5.97004 6.04847,5.97004 2.70563,0 4.82308,-1.25479 5.45047,-3.46047 l 2.33312,0 c -1.04892,2.84288 -3.19578,5.02895 -7.78359,5.02895 -5.77398,0 -8.27375,-3.43106 -8.27375,-7.88163 0,-4.39175 3.12716,-7.99926 8.27375,-7.99926 4.93091,0 7.95024,2.9311 7.92083,8.34237 l -13.9693,0 z m -8.79527,-13.80954 2.29391,0 0,2.588 -2.29391,0 0,-2.588 z m 0.098,5.87201 2.08805,0 0,15.06724 -2.08805,0 0,-15.06724 z m -13.72128,1.16364 c -3.50948,0 -6.11708,2.12726 -6.1563,5.90142 -0.16665,3.78396 1.84297,6.84251 6.1563,6.84251 3.78396,0 6.07787,-2.9115 6.07787,-6.31315 0,-3.63692 -2.14686,-6.43078 -6.07787,-6.43078 m 6.07787,-1.16656 2.08804,0 0,13.6164 c 0,4.03884 -1.59789,7.61694 -8.44039,7.61694 -5.28383,0 -7.47971,-2.52918 -7.61695,-4.33293 l 2.22529,0 c 0.62739,2.2743 2.92129,2.76445 5.39166,2.76445 5.69555,0 6.46018,-3.54869 6.35235,-7.00916 -1.3136,1.83316 -3.8918,2.82327 -6.42098,2.82327 -5.49949,0 -8.02867,-3.75456 -8.02867,-7.96985 0,-4.45057 2.32332,-7.91104 8.1267,-7.91104 2.29391,0 5.03876,1.07833 6.25433,3.04874 l 0.0686,0 0,-2.64682 z m -26.06328,1.16656 c -4.38195,0 -6.11708,3.10756 -6.11708,6.37196 0,3.75456 2.11745,6.37197 6.11708,6.37197 4.38195,0 6.11708,-3.14677 6.11708,-6.37197 -0.0392,-3.54869 -1.70572,-6.37196 -6.11708,-6.37196 m -8.34237,6.37196 c 0,-4.39175 2.78406,-7.94044 8.34237,-7.94044 5.62693,0 8.34237,3.51928 8.34237,7.94044 0,4.76427 -3.30362,7.94045 -8.34237,7.94045 -4.58781,-0.0588 -8.34237,-2.67622 -8.34237,-7.94045 m -6.221,-13.40761 2.08805,0 0,20.93925 -2.08805,0 0,-20.93925 z m -12.47629,7.03565 c -4.38195,0 -6.11708,3.10756 -6.11708,6.37196 0,3.75456 2.11745,6.37197 6.11708,6.37197 4.38195,0 6.11708,-3.14677 6.11708,-6.37197 -0.0392,-3.54869 -1.70572,-6.37196 -6.11708,-6.37196 m -8.34237,6.37196 c 0,-4.39175 2.78406,-7.94044 8.34237,-7.94044 5.62693,0 8.34237,3.51928 8.34237,7.94044 0,4.76427 -3.30362,7.94045 -8.34237,7.94045 -4.58781,-0.0588 -8.34237,-2.67622 -8.34237,-7.94045 m -16.05636,7.53068 -2.08805,0 0,-15.06724 2.08805,0 0,2.09785 c 1.66651,-1.49006 3.30361,-2.49977 5.80338,-2.49977 2.19588,0 4.2055,0.57838 5.48969,2.14686 0.87247,1.07833 0.91168,2.21548 0.91168,3.46047 l 0,9.86183 -2.08804,0 0,-9.83242 c 0,-2.70564 -1.32341,-4.06826 -4.65643,-4.06826 -2.5782,0 -4.34274,1.39203 -5.00935,2.93111 -0.41172,0.96069 -0.45093,1.80375 -0.45093,2.85267 l 0,8.1169 z m -21.40979,0 0,-20.93924 2.08805,0 0,7.96985 c 1.66651,-1.49006 3.30361,-2.49977 5.80338,-2.49977 2.18608,0 4.2055,0.57838 5.48969,2.14686 0.87247,1.07833 0.90188,2.21548 0.90188,3.46047 l 0,9.86183 -2.07824,0 0,-9.83242 c 0,-2.70564 -1.32341,-4.06826 -4.66624,-4.06826 -2.56839,0 -4.34273,1.39203 -4.99953,2.93111 -0.42153,0.96069 -0.45094,1.80375 -0.45094,2.85267 l 0,8.1169 -2.08805,0 z m -6.56901,-10.32453 c -0.72542,-2.24489 -2.56839,-3.5781 -5.35245,-3.5781 -4.27411,0 -6.04846,3.2546 -6.04846,6.40137 0,3.16638 1.73514,6.34255 6.04846,6.34255 3.09776,0 5.03876,-1.54887 5.52891,-4.04864 l 2.22528,0 c -0.73522,3.34283 -3.23499,5.61713 -7.75419,5.61713 -5.73476,0 -8.27374,-3.46047 -8.27374,-7.91104 0,-4.18589 2.88208,-7.96985 8.27374,-7.96985 4.13688,0 6.84251,1.65671 7.4699,5.14658 l -2.11745,0 z m -19.04628,1.74493 c 0,-2.9409 -1.9508,-5.32304 -5.70536,-5.32304 -3.67613,0 -5.62693,2.47037 -6.03866,5.32304 l 11.74402,0 z m -11.74402,1.45085 c -0.0392,3.2644 2.04883,5.97004 6.03866,5.97004 2.71544,0 4.83289,-1.25479 5.46028,-3.46047 l 2.33312,0 c -1.04892,2.84288 -3.20559,5.02895 -7.7934,5.02895 -5.76417,0 -8.26394,-3.43106 -8.26394,-7.88163 0,-4.39175 3.12716,-7.99926 8.26394,-7.99926 4.94072,0 7.96005,2.9311 7.93064,8.34237 l -13.9693,0 z m -22.56164,-13.81245 18.214,0 0,1.68612 -7.93064,0 0,19.25313 -2.36252,0 0,-19.25313 -7.92084,0 0,-1.68612 z m -23.87623,16.22889 c 0.6568,2.588 2.25469,3.5487 5.39166,3.5487 3.01933,0 4.44076,-1.34302 4.44076,-2.79386 0,-4.36235 -11.53815,-1.2744 -11.53815,-7.21503 0,-2.49977 2.33312,-4.30352 6.33275,-4.30352 3.8918,0 6.43078,1.34301 6.95034,4.74466 l -2.12725,0 c -0.38232,-2.33312 -2.2547,-3.17618 -4.8623,-3.17618 -2.63701,0 -4.06825,1.04893 -4.06825,2.5978 0,4.09766 11.53815,1.53908 11.53815,7.32286 0,2.88208 -3.08795,4.39175 -7.33266,4.39175 -4.2349,0 -6.67585,-2.2645 -6.8425,-5.11718 l 2.11745,0 z m -7.50715,-3.86729 c 0,-2.9409 -1.9508,-5.32304 -5.69556,-5.32304 -3.68593,0 -5.63673,2.47037 -6.04846,5.32304 l 11.74402,0 z m -11.74402,1.45085 c -0.0392,3.2644 2.04883,5.97004 6.04846,5.97004 2.70564,0 4.82309,-1.25479 5.45048,-3.46047 l 2.33312,0 c -1.04892,2.84288 -3.19578,5.02895 -7.7836,5.02895 -5.77397,0 -8.27374,-3.43106 -8.27374,-7.88163 0,-4.39175 3.12716,-7.99926 8.27374,-7.99926 4.93092,0 7.95025,2.9311 7.92084,8.34237 l -13.9693,0 z m -7.85908,-3.19578 c -0.72542,-2.24489 -2.56839,-3.5781 -5.35245,-3.5781 -4.27411,0 -6.04846,3.2546 -6.04846,6.40137 0,3.16638 1.73513,6.34255 6.04846,6.34255 3.09776,0 5.03876,-1.54887 5.52891,-4.04864 l 2.22528,0 c -0.73522,3.34283 -3.23499,5.61713 -7.75419,5.61713 -5.73476,0 -8.27375,-3.46047 -8.27375,-7.91104 0,-4.18589 2.88209,-7.96985 8.27375,-7.96985 4.13688,0 6.84251,1.65671 7.4699,5.14658 l -2.11745,0 z m -29.99528,10.32453 -2.08805,0 0,-15.06724 2.08805,0 0,2.09785 c 1.66651,-1.49006 3.30361,-2.49977 5.80338,-2.49977 2.18608,0 4.2055,0.57838 5.48969,2.14686 0.87247,1.07833 0.91168,2.21548 0.91168,3.46047 l 0,9.86183 -2.08804,0 0,-9.83242 c 0,-2.70564 -1.32341,-4.06826 -4.65643,-4.06826 -2.5782,0 -4.35254,1.39203 -5.00935,2.93111 -0.41172,0.96069 -0.45093,1.80375 -0.45093,2.85267 l 0,8.1169 z m -8.3757,-8.5796 c 0,-2.9409 -1.9508,-5.32304 -5.69556,-5.32304 -3.68593,0 -5.63673,2.47037 -6.04846,5.32304 l 11.74402,0 z m -11.74402,1.45085 c -0.0392,3.2644 2.04883,5.97004 6.04846,5.97004 2.70564,0 4.82309,-1.25479 5.45048,-3.46047 l 2.33312,0 c -1.04892,2.84288 -3.19578,5.02895 -7.7836,5.02895 -5.77397,0 -8.27374,-3.43106 -8.27374,-7.88163 0,-4.39175 3.12716,-7.99926 8.27374,-7.99926 4.93092,0 7.95025,2.9311 7.92084,8.34237 l -13.9693,0 z m -8.79919,-13.80954 2.29391,0 0,2.588 -2.29391,0 0,-2.588 z m 0.10784,5.87201 2.08804,0 0,15.06724 -2.08804,0 0,-15.06724 z m -6.88172,4.74175 c -0.72543,-2.24489 -2.56839,-3.5781 -5.35245,-3.5781 -4.27412,0 -6.04846,3.2546 -6.04846,6.40137 0,3.16638 1.73513,6.34255 6.04846,6.34255 3.09775,0 5.03875,-1.54887 5.5289,-4.04864 l 2.22529,0 c -0.73523,3.34283 -3.235,5.61713 -7.75419,5.61713 -5.73477,0 -8.27375,-3.46047 -8.27375,-7.91104 0,-4.18589 2.88209,-7.96985 8.27375,-7.96985 4.13687,0 6.84251,1.65671 7.4699,5.14658 l -2.11745,0 z m -32.70482,4.07119 c 0.38232,3.75456 3.37224,5.11718 7.19541,5.11718 4.47998,0 6.36216,-2.02923 6.36216,-4.33294 0,-6.47979 -15.2633,-2.17627 -15.2633,-10.4108 0,-2.9115 2.8919,-5.61713 8.47962,-5.61713 5.63673,0 8.4502,2.85268 8.41098,6.25433 l -2.25469,0 c 0,-3.19579 -2.95071,-4.56821 -6.15629,-4.56821 -4.79368,0 -6.52881,2.48016 -6.11709,4.62702 1.07833,5.41127 15.2633,1.50967 15.2633,9.62657 0,3.84278 -3.37224,6.10728 -9.14621,6.10728 -5.20541,0 -9.0678,-2.2645 -9.0678,-6.8033 l 2.29391,0 z m 356.85338,-23.23903 -10.64608,0 0,-17.59641 -8.34237,0 0,-6.08768 c 5.62694,-0.0784 9.7246,-1.70572 10.90096,-6.93073 l 8.08749,0 0,30.61482 z m -66.86933,0 -13.56738,0 13.05762,-16.01813 -11.77342,-14.81236 13.56738,0 5.2152,7.88163 5.27402,-7.88163 13.55758,0 -12.43023,14.81236 12.53806,16.01813 -13.56738,0 -5.93082,-8.64626 -5.94063,8.64626 z m -53.00883,-30.83246 12.07732,0 0,18.45909 c 0,3.03893 0.71562,5.64653 5.68575,5.64653 4.34273,0 5.62693,-2.31351 5.62693,-5.64653 l 0,-18.45909 12.07732,0 0,17.42977 c 0,9.89124 -5.47989,14.21437 -17.70425,14.21437 -11.42051,0 -17.76307,-3.63691 -17.76307,-14.26339 l 0,-17.38075 z m -23.58312,9.29228 -3.73495,11.048 7.62675,0 -3.8918,-11.048 z m -19.24332,21.53723 13.20466,-30.83049 12.28319,0 13.20466,30.83049 -12.0283,0 -1.43124,-4.06825 -12.02831,0 -1.38222,4.06825 -11.82244,0 z m -33.62142,0.003 0,-30.83049 30.04625,0 0,7.19542 -17.96893,0 0,4.41136 15.20448,0 0,7.19541 -15.20448,0 0,4.83289 18.68455,0 0,7.19541 -30.76187,0 z m -28.29151,-7.19542 2.55859,0 c 5.62693,0 8.70508,-2.48016 8.70508,-8.30315 0,-6.43078 -2.50957,-8.13651 -8.95996,-8.13651 l -2.30371,0 0,16.43966 z m -12.07732,7.19542 0,-30.83049 16.17498,0 c 11.87146,0 19.24333,4.62702 19.24333,14.77315 0,11.60677 -7.73459,16.05734 -19.55702,16.05734 l -15.86129,0 z m -27.93566,-17.51506 4.76427,0 c 3.73495,0 5.72496,-0.77444 5.72496,-2.91149 0,-2.18608 -2.04883,-3.21539 -4.8623,-3.21539 l -5.62693,0 0,6.12688 z m 0,6.76409 0,10.75391 -12.07732,0 0,-30.8403 17.40036,0 c 12.28318,0 16.32203,2.78406 16.32203,8.78351 0,3.55849 -1.89199,6.54841 -6.18571,7.53852 3.8918,1.19596 6.24452,1.9704 6.24452,8.17571 0,4.02904 -0.15684,5.39166 1.2744,5.39166 l 0,0.9509 -12.23417,0 c -0.30389,-0.68622 -0.60779,-2.65662 -0.60779,-5.40147 0,-4.01923 -0.82345,-5.35244 -6.45038,-5.35244 l -3.68594,0 z m -43.745,-4.83681 c 0,3.94082 1.43124,8.86193 7.21502,8.86193 5.22501,0 7.26404,-3.76436 7.26404,-8.86193 0,-4.19569 -2.03903,-8.64626 -7.36207,-8.51882 -5.47988,0 -7.11699,4.61722 -7.11699,8.51882 m 26.56618,0 c 0,10.48923 -8.4502,16.40045 -19.35116,16.40045 -11.56756,0 -19.29233,-5.99945 -19.29233,-16.48867 0,-9.67558 7.83261,-15.96912 19.29233,-15.96912 13.15565,0 19.35116,7.92084 19.35116,16.05734 m -64.68521,-8.05122 0,5.13678 5.01914,0 c 2.40174,0 4.14668,-0.90187 4.14668,-2.69582 0,-2.40174 -2.36253,-2.44096 -4.92111,-2.44096 l -4.24471,0 z m 0,10.74411 0,5.69555 5.27402,0 c 2.97032,0 5.21521,-0.50975 5.21521,-2.82326 0,-2.69583 -2.81347,-2.87229 -6.64645,-2.87229 l -3.84278,0 z m -12.07732,12.89097 0,-30.83049 17.60622,0 c 8.29335,0 14.89079,1.6273 14.89079,7.75419 0,3.16637 -2.45076,5.47988 -4.81329,6.72487 3.99963,0.85286 6.1465,3.72514 6.1465,7.05817 0,6.90132 -6.29354,9.29326 -15.87109,9.29326 l -17.95913,0 z" id="path264" style="fill:#1476c6;fill-opacity:1;fill-rule:nonzero;stroke:none"/>
    <path d="m 228.02786,257.68294 0,-5.68575 4.33293,6.83271 0,3.49967 -4.33293,-4.64663 z m 29.43846,10.3912 -23.01749,0 0,-19.57662 2.29391,0 0,15.24369 7.61695,0 0,-14.3026 2.3037,0 0,14.3026 8.50902,0 0,-15.35153 2.29391,0 0,19.68446 z m -23.02239,34.65759 0,-24.58597 2.30371,0 0,10.12652 20.72358,0 0,4.33293 -20.72358,0 0,10.12652 -2.30371,0 z m 23.02729,14.085 -23.02729,0 0,-4.33293 23.02729,0 0,4.33293 z m -16.97883,16.64555 c -2.39194,-0.3137 -4.2055,1.88218 -4.2055,6.21511 0,6.31315 2.33312,6.98955 4.11727,6.98955 1.58809,0 2.57819,-1.19596 3.12716,-3.70554 0.46075,-2.08804 0.92149,-4.12707 1.38223,-6.20531 1.6273,-7.42088 3.16637,-8.7737 6.20531,-8.7737 4.35254,0 6.90132,4.64663 6.90132,12.16555 0,3.86239 -0.647,8.4502 -3.64672,10.69509 -1.13715,0.84306 -2.98012,0.78425 -4.2153,0.84306 l 0,-4.33293 c 3.41145,0.20586 5.55831,-0.89208 5.55831,-7.42089 0,-4.38195 -1.3136,-7.46009 -4.01923,-7.46009 -3.49968,0 -3.52909,2.40173 -4.42116,6.36215 -0.49015,2.14686 -1.13715,5.58772 -1.78415,7.67577 -1.09794,3.70554 -2.94091,4.64663 -5.21521,4.64663 -3.80357,0 -6.29354,-4.5388 -6.29354,-10.91076 0,-7.1464 2.17627,-11.53815 6.50921,-11.11662 l 0,4.33293 z m 4.5437,58.82203 0,-6.8425 c -0.0294,-2.02923 -0.21567,-7.66596 -4.23491,-7.56793 -3.96042,0.10783 -4.05845,5.38185 -4.05845,8.30315 l 0,6.10728 8.29336,0 z m 12.43022,0 0,4.33294 -23.02728,0 0,-10.07751 c 0,-8.19532 1.26458,-13.41053 6.57782,-13.15565 2.69583,0.15685 4.63683,2.98012 4.99954,7.51892 l 0.0588,0 c 0.28429,-5.05836 1.23518,-6.31315 4.30352,-6.94054 1.71553,-0.15685 3.41145,-0.42153 5.12698,-0.83326 0.43134,-0.15684 1.44105,-0.47054 1.44105,-1.51946 l 0.51956,0 0,5.06816 c -1.47046,0.94109 -4.32313,1.35281 -5.86221,1.35281 -2.30371,0 -4.26431,1.56849 -4.26431,6.68566 l 0,7.56793 10.12652,0 z m 0.004,39.67282 -23.02728,0 0,-19.57662 2.3037,0 0,15.24369 7.61695,0 0,-14.3026 2.30371,0 0,14.3026 8.49922,0 0,-15.35153 2.3037,0 0,19.68446 z m -23.02631,15.75639 0,-4.80347 23.02729,11.27347 0,5.38185 -23.02729,11.22446 0,-4.80348 21.18433,-9.02858 0,-0.10783 -21.18433,-9.13642 z m 23.02729,38.77385 -23.02729,0 0,-4.33293 23.02729,0 0,4.33293 z m -23.02729,18.94043 0,-4.33293 23.02729,0 0,7.09738 -18.41987,10.96958 c -1.04892,0.61759 -2.08804,1.08813 -3.47027,1.46065 l 0,0.098 c 1.16656,-0.049 2.36253,-0.098 3.52909,-0.098 l 18.36105,0 0,4.33293 -23.02729,0 0,-7.04837 18.85121,-11.12642 c 0.70582,-0.46074 1.44104,-0.83326 2.51937,-1.35282 l 0,-0.10783 c -0.83325,0.0588 -1.72533,0.10783 -2.57819,0.10783 l -18.79239,0 z m 0,57.20355 0,-4.33293 16.5475,0 c 1.81356,0.049 4.72505,-0.47055 4.72505,-7.41108 0,-6.94054 -2.91149,-7.4699 -4.72505,-7.41109 l -16.5475,0 0,-4.33293 17.46898,0 c 4.11727,0 6.10728,4.64663 6.10728,11.74402 0,7.09738 -1.99001,11.74401 -6.10728,11.74401 l -17.46898,0 z" id="path308" style="fill:#008a5b;fill-opacity:1;fill-rule:nonzero;stroke:none"/>
    <path d="m 356.59052,563.49298 c 0,0 5.11718,-13.73402 7.53852,-23.02729 2.43115,-9.29326 5.93083,-21.41959 7.81301,-30.03644 1.88218,-8.61685 2.69583,-11.31268 4.31332,-19.12569 1.6175,-7.8032 2.96052,-16.83178 4.84269,-27.06613 1.89199,-10.23435 3.63692,-21.54704 4.45057,-26.39953 0.80385,-4.84269 3.36244,-21.00787 4.71526,-30.42857 1.34301,-9.4305 4.30352,-32.85971 5.24461,-42.96662 0.95089,-10.09711 3.9114,-36.63388 5.11718,-48.48573 1.21557,-11.84205 4.03884,-41.61381 4.31332,-49.15233 0.26469,-7.53852 0.80385,-18.1846 0.80385,-18.1846 l 11.31268,0 c 0,0 -1.20577,24.64478 -1.48025,31.91862 -0.26468,7.27384 -1.34302,30.97754 -1.74494,38.6533 -0.41173,7.67577 -1.21557,19.8021 -1.6175,28.55619 -0.40192,8.7541 -2.15666,34.87914 -4.03884,55.34785 -1.89198,20.4687 -4.03884,37.43772 -5.79358,55.34783 -1.75474,17.91992 -2.96052,25.05652 -5.5191,40.94721 -2.55859,15.89069 -3.77416,24.24286 -7.27384,39.05522 -3.49968,14.81236 -6.46999,25.18396 -6.46999,25.18396 l -26.52697,-0.13725 z m 34.8811,-315.00331 10.23435,0 c 0,0 -0.53917,5.38186 -1.34301,9.83243 -0.81366,4.44076 -2.55859,14.54767 -3.91141,21.54703 -1.34301,6.99935 -0.80385,4.17608 -4.71525,22.22344 -3.9016,18.04735 -3.76436,17.2337 -6.1857,27.34062 -2.43115,10.0971 -2.43115,11.03819 -4.8525,20.33146 -2.42134,9.29326 -6.99935,25.9878 -9.96967,35.4183 -2.96051,9.4305 -10.90095,34.87914 -13.3321,41.61381 -2.42135,6.73468 -9.29326,25.58588 -11.57737,31.37946 -2.2939,5.79359 -7.67576,18.31204 -11.17544,25.86036 -3.50948,7.53852 -16.02793,32.72248 -19.93934,39.73163 -3.9016,6.99936 -7.94044,13.45955 -12.93018,21.27255 -4.97993,7.81301 -12.51845,18.58652 -12.51845,18.58652 l -11.85185,0 0,-25.58587 c 0,0 7.67576,-10.91076 11.17544,-16.83178 3.49968,-5.93083 8.21493,-13.87127 11.048,-18.98845 2.82327,-5.12698 8.07769,-14.68492 11.71461,-21.68427 3.63692,-7.00916 6.59743,-13.46935 10.37159,-21.00787 3.76436,-7.54833 4.30353,-9.96967 7.53852,-16.84159 3.235,-6.86211 8.7541,-19.65505 11.85185,-27.34061 3.09776,-7.67577 7.94045,-17.63563 12.52826,-30.96774 4.57801,-13.3321 9.15602,-26.53677 11.31268,-32.59503 2.14686,-6.05827 4.84269,-15.08685 7.67576,-25.04671 2.82327,-9.96967 8.07769,-29.09536 9.83243,-35.82023 1.74494,-6.73467 5.65634,-23.7037 6.99936,-30.57561 1.34301,-6.87192 2.01942,-11.85185 2.01942,-11.85185 m -114.87765,-0.1343 110.70548,0 c 0,0 -5.65634,18.31203 -8.35217,25.72312 -2.69583,7.41108 -9.4305,23.84093 -11.17544,28.01702 -1.75474,4.16628 -5.39166,12.6557 -6.60723,15.35153 -1.20577,2.68602 -12.79294,25.9878 -16.15538,32.85972 -3.37223,6.86211 -14.27319,27.74254 -18.04735,34.20272 -3.77417,6.47 -15.62601,25.99761 -18.98845,31.78139 -3.37224,5.79358 -16.70434,26.53677 -21.00787,32.99696 -4.31332,6.46999 -10.23435,15.62601 -10.23435,15.62601 l -0.13724,-216.55847 z" id="path328" style="fill:#1476c6;fill-opacity:1;fill-rule:nonzero;stroke:none"/>
    <path d="m 450.45833,248.75926 c 0,0 21.28235,0.26468 25.18395,0.53916 3.9016,0.26468 13.73403,1.48026 20.20402,2.42135 6.46019,0.94109 13.73403,3.09775 19.92954,4.85249 6.1955,1.74494 17.50819,6.46019 23.42921,9.69519 5.93083,3.23499 12.12633,7.67576 16.30242,11.57736 4.17608,3.9114 9.29326,10.24415 11.7146,14.54768 2.42135,4.31333 5.25442,10.91076 6.46019,17.37095 1.21558,6.46999 1.89199,10.10691 1.75474,16.02793 -0.13724,5.93083 -1.88218,18.44928 -4.03884,24.24287 -2.15666,5.79358 -4.31333,11.31268 -8.07769,16.83178 -3.77416,5.5289 -9.29326,11.85185 -13.87127,16.30242 -4.58781,4.44076 -13.46934,10.90095 -13.46934,10.90095 0,0 6.46019,1.89198 11.57736,4.04865 5.11718,2.14686 14.81236,7.1366 19.92954,11.44012 5.11717,4.31333 10.50883,9.56775 13.06742,13.20467 2.55859,3.62711 6.59743,9.95986 8.61685,15.21428 2.01942,5.25442 4.17609,12.52826 4.8525,18.98844 0.6666,6.46019 1.48025,11.58717 -0.13725,22.76261 -1.61749,11.17544 -4.71525,22.76261 -4.71525,22.76261 0,0 -25.72312,-32.99696 -31.64414,-40.94721 -5.93083,-7.94044 -20.74319,-30.02664 -27.34062,-40.53547 -6.59743,-10.50884 -13.60659,-21.54704 -17.77287,-29.2228 -4.17608,-7.67576 -18.861,-35.29087 -25.45843,-48.62297 -6.59744,-13.33211 -19.25313,-44.43708 -23.7037,-55.88701 -4.44077,-11.44992 -12.79294,-38.51605 -12.79294,-38.51605 m 88.07717,299.38122 c 0,0 -5.38185,-7.813 -9.01877,-13.73403 -3.63692,-5.93082 -9.96967,-15.62601 -13.33211,-22.49792 -3.37223,-6.86211 -8.21493,-16.69454 -10.91076,-22.21364 -2.69583,-5.5289 -4.31332,-7.41108 -7.95024,-16.84158 -3.63692,-9.4207 -7.27384,-17.91012 -10.49903,-26.38973 -3.235,-8.48941 -9.56775,-24.64479 -12.26358,-33.53612 -2.68603,-8.89134 -5.5191,-16.5671 -7.94044,-25.72312 -2.42135,-9.15602 -4.57801,-15.62601 -7.27384,-26.12504 -2.69583,-10.50884 -7.1366,-28.82088 -9.55795,-39.32971 -2.43114,-10.49904 -4.57801,-21.81172 -5.93082,-28.28171 -1.34302,-6.46019 -3.09776,-14.67512 -4.71525,-23.96838 -1.6175,-9.29326 -3.36244,-20.74318 -3.36244,-20.74318 l 10.37159,0 c 0,0 2.28411,14.68492 4.71526,24.64478 2.42134,9.96967 2.68602,12.6655 6.72487,27.20338 4.04864,14.54767 9.02858,31.65394 12.52825,42.15297 3.49968,10.50884 8.7541,25.86037 15.48877,43.36856 6.73467,17.50819 17.64543,44.44688 22.62537,55.2204 4.97993,10.77351 7.95024,18.17479 16.16517,34.06548 8.21493,15.9005 15.75345,29.77177 20.33146,37.57497 4.57801,7.81301 14.54768,23.97818 14.54768,23.97818 0,0 -2.43115,2.82327 -7.81301,5.65634 -5.39166,2.82327 -12.93018,5.5191 -12.93018,5.5191 m -84.17165,13.60169 c 0,0 -2.69583,-10.50884 -4.17608,-16.42986 -1.48026,-5.93082 -4.03885,-18.04735 -5.5191,-26.12504 -1.48026,-8.07769 -2.96051,-17.37095 -4.03885,-23.84094 -1.07833,-6.46019 -2.01942,-13.3321 -3.37223,-23.84094 -1.34302,-10.49903 -2.68603,-21.27255 -3.9016,-33.93805 -1.21558,-12.65569 -2.29391,-21.1353 -3.235,-33.52632 -0.94109,-12.39101 -2.2841,-30.71285 -3.09775,-40.9472 -0.80385,-10.23435 -1.6175,-27.46806 -2.42135,-38.51606 -0.80385,-11.0382 -1.75474,-23.42922 -1.75474,-30.02665 0,-6.59743 -1.07833,-18.1846 -1.6175,-27.74254 -0.52936,-9.56774 -0.80385,-18.1846 -0.80385,-18.1846 l 11.17544,0 c 0,0 0.94109,12.6557 1.6175,24.38011 0.67641,11.71461 1.88218,28.28171 3.235,39.99631 1.34301,11.71461 3.77416,33.66357 5.38186,47.4074 1.61749,13.73403 2.97031,22.7528 5.11717,37.70241 2.15666,14.9496 4.45057,30.71285 6.33275,44.04496 1.88218,13.3321 8.21493,46.05457 10.50884,57.10257 2.2841,11.0382 7.94044,33.1244 10.37159,41.33933 2.42134,8.21493 6.72487,21.28235 6.72487,21.28235 l -26.52697,-0.13724 z" id="path348" style="fill:#008a5b;fill-opacity:1;fill-rule:nonzero;stroke:none"/>
  </g>
</svg>