<?xml version="1.0" encoding="utf-8"?>
<!-- Generator: Adobe Illustrator 27.0.0, SVG Export Plug-In . SVG Version: 6.00 Build 0)  -->
<svg version="1.1" id="Layer_1" xmlns="http://www.w3.org/2000/svg" xmlns:xlink="http://www.w3.org/1999/xlink" x="0px" y="0px"
	 viewBox="0 0 512 512" style="enable-background:new 0 0 512 512;" xml:space="preserve">
<style type="text/css">
	.st0{fill:#00386B;}
</style>
<g id="XMLID_1_">
	<path id="XMLID_3_" class="st0" d="M189.8,50.81l-1.96,0.7c-0.7-0.7-0.98-1.26-1.54-1.96c-1.26-1.26-1.96-1.96-2.52-2.52
		c-0.28-0.28-0.98-0.7-1.54-0.98c-0.98-0.28-2.24-0.28-4.07,0.28l-4.49,1.54l4.49,11.5l2.24-0.98c0.98-0.28,1.54-0.7,1.54-1.26
		c0.28-0.7,0.28-1.54,0.28-3.23l-0.28-2.52l1.26-0.7l5.47,14.03l-1.54,0.28c-0.56-0.98-2.24-3.79-3.51-4.49
		c-0.7-0.28-1.26-0.28-2.52,0.28l-1.96,0.7l5.05,13.32l4.07-1.54c1.96-0.7,2.81-1.54,3.51-2.52c0.56-1.26,0.98-2.81,0.98-5.05
		l-0.28-4.49l1.96-0.7l3.51,11.5l-21.32,8.28l-0.98-1.96l1.26-0.7c0.98-0.28,1.26-0.98,1.54-1.54c0-0.7-0.28-1.54-0.98-3.51
		l-7.29-18.51c-0.28-1.26-0.7-1.96-0.98-2.52c0-0.28-0.28-0.7-0.7-0.7c-0.28-0.7-1.26-0.7-2.24-0.28l-1.26,0.28l-0.56-1.96
		l21.04-7.99L189.8,50.81z"/>
	<path id="XMLID_4_" class="st0" d="M123.88,80.68c-0.7-0.98-1.26-1.54-1.54-1.96c0-0.28-0.28-0.56-0.7-0.56
		c-0.7-0.28-1.26-0.28-2.24,0.28l-1.26,0.7l-1.26-1.54l10.52-7.57l1.26,1.54l-0.98,0.98c-0.98,0.7-1.26,1.54-0.98,1.96
		c0,0.7,0.7,1.54,1.68,3.23L140.15,94c0.7,0.7,1.54,2.24,2.52,2.52c0.28,0.28,1.26,0.28,2.24-0.28l0.98-0.7l1.26,1.54l-10.52,7.57
		l-0.98-1.54l0.98-0.98c0.56-0.7,0.98-1.26,0.98-1.96c-0.28-0.56-0.7-1.54-1.96-3.23L123.88,80.68z"/>
	<path id="XMLID_5_" class="st0" d="M114.9,112.94l-6.73-12.06l-2.81-5.47c-0.98-1.96-1.96-3.79-2.81-5.75l6.73-7.01l1.26,1.26
		l-0.7,1.26c-0.56,0.7-0.98,1.54-0.56,1.96c0,0.7,0.98,1.68,2.24,2.81l14.03,14.03c0.7,0.7,1.96,2.24,2.81,2.52
		c0.56,0,1.26-0.28,2.24-0.98l0.98-0.7l1.26,1.26l-8.84,9.26l-1.26-1.26l0.7-1.26c0.7-0.98,0.98-1.54,0.7-2.24
		c0-0.28-0.98-1.26-2.24-2.52l-15.29-15.57l7.29,13.75l3.23,6.03c1.26,2.24,2.52,4.49,3.51,6.73l-2.24,2.24
		c-2.24-0.98-4.49-2.24-6.31-3.51c-1.96-0.98-4.49-2.24-8.28-4.07l-12.06-6.31l15.57,15.01c1.26,1.54,2.52,2.24,3.23,2.24
		c0.98,0.28,2.52-0.7,3.23-1.26l1.26,1.26l-7.29,7.29l-1.26-1.26c0.28-0.7,0.98-1.26,1.26-1.96c0.28-0.28,0.28-0.98,0-1.26
		c0-0.7-0.28-0.98-0.7-1.54c-0.28-0.7-1.26-1.54-2.24-2.81l-12.76-12.76c-0.7-0.56-2.24-2.24-3.23-2.24
		c-0.98-0.28-2.81,1.26-3.23,1.68l-1.54-1.26l7.57-7.57C99.33,104.66,107.05,108.73,114.9,112.94z"/>
	<path id="XMLID_6_" class="st0" d="M86.29,122.48l-0.98,1.54c-0.98-0.28-1.96-0.7-2.81-0.7c-1.26-0.7-2.24-0.7-3.23-0.98
		c-0.7,0-1.26,0-1.96,0c-0.98,0.28-1.96,1.26-3.23,2.52l-2.81,3.79l9.82,7.29l1.54-1.96c0.28-0.98,0.7-1.54,0.7-2.24
		c-0.28-0.7-0.98-1.54-1.96-2.52l-1.54-1.96l0.98-1.26l12.06,8.56l-0.98,1.26c-1.26-0.7-4.07-1.96-5.47-1.96
		c-0.98,0.28-1.54,0.7-2.24,1.54l-1.26,1.54l11.78,8.56l2.24-3.51c1.26-1.96,1.96-3.23,1.96-4.49c-0.28-1.26-0.98-2.81-2.24-4.77
		l-2.52-3.23l1.26-1.68l9.26,7.71l-13.75,18.51l-1.26-0.98l0.7-1.26c0.28-0.98,0.28-1.54,0.28-2.24c-0.28-0.7-1.26-1.26-2.81-2.52
		l-15.99-11.5c-1.26-0.98-1.96-1.26-2.24-1.68c-0.28-0.28-0.7-0.28-0.98-0.28c-0.7,0-1.26,0.28-2.24,0.98l-0.98,0.98l-1.54-0.98
		l13.32-18.51L86.29,122.48z"/>
	<path id="XMLID_7_" class="st0" d="M45.9,209.72l-0.28,1.96c-1.54,0-5.05,0.28-7.01,0.98c-2.52,0.98-3.79,2.81-4.49,5.47
		c-0.28,2.24,0.28,4.07,1.54,5.75c1.26,1.26,2.24,1.96,3.79,2.81c5.05,2.24,14.03,4.21,19.78,1.96c1.26-0.28,2.24-1.26,3.23-2.24
		c2.24-2.24,2.52-5.05,1.26-7.57c-0.98-1.96-2.52-3.79-3.79-5.47l2.52-1.26c1.54,1.54,2.81,3.51,3.51,5.75
		c0.7,1.54,0.98,3.51,0.7,5.75c-0.7,2.81-1.54,5.47-3.51,7.57c-3.51,3.79-8.98,5.05-16.27,3.79c-5.75-0.7-10.24-2.81-12.34-5.75
		c-2.52-2.81-3.23-6.73-2.52-11.08c0.28-1.54,0.7-2.52,0.98-3.51c0.28-0.98,0.98-1.96,1.96-3.51c0.28-0.28,0.28-0.28,0.28-0.7
		c0-0.7-0.98-1.26-1.26-1.26l0.28-1.26L45.9,209.72z"/>
	<path id="XMLID_10_" class="st0" d="M48.42,257.4l0.28-8.28l-14.03,3.79L48.42,257.4z M54.73,241.83c2.81-0.7,4.49-1.26,5.47-1.54
		c0.7-0.7,0.98-1.54,1.26-2.52h1.96l-0.28,12.48l-1.96-0.28c0-0.56-0.28-1.96-0.56-2.52c-0.28-0.28-0.7-0.7-0.98-0.7
		c-0.56,0-1.54,0.28-3.23,0.7l-5.05,1.26l-0.28,9.54c0.28,0.28,6.03,2.52,7.57,2.52c0.7,0,0.98-0.28,1.26-0.7
		c0.7-0.7,0.98-1.96,0.98-2.52h1.96l-0.28,9.82l-1.96-0.28c-0.28-1.26-0.28-1.96-1.54-2.81c-0.28-0.28-0.98-0.7-1.96-1.26
		c-0.98-0.28-2.52-0.98-4.49-1.54l-20.06-7.29c-0.98-0.28-1.96-0.7-3.23-0.98l0.28-4.21L54.73,241.83z"/>
	<path id="XMLID_13_" class="st0" d="M67.22,185.45c2.81,0,4.77,0,5.47-0.28c0.98-0.28,1.54-0.98,2.24-1.96l1.54,0.7l-3.51,11.5
		L71,195.13c0-0.7,0.28-1.96,0-2.81c0-0.28-0.28-0.7-0.56-0.7c-0.7-0.28-1.54-0.28-3.51-0.28l-5.05-0.28l-2.81,9.26
		c0.28,0.28,5.47,3.79,6.73,4.49c0.7,0,0.98,0,1.68-0.28c0.56-0.7,0.98-1.54,1.54-2.24l1.54,0.7l-2.81,9.26l-1.96-0.7
		c0.28-1.26,0.28-2.24-0.56-3.23c-0.28-0.7-0.98-0.98-1.68-1.54c-0.56-0.7-1.96-1.54-3.79-2.81L42.67,191.2
		c-0.98-0.7-1.96-1.26-2.52-1.54l1.26-4.07L67.22,185.45z M56.7,198.5l2.52-7.57l-14.31-0.28L56.7,198.5z"/>
	<path id="XMLID_16_" class="st0" d="M55.15,166.1c-0.7-0.28-2.52-1.26-3.51-1.26c-0.7,0-1.26,0.7-1.96,1.26l-0.7,1.26l-1.54-0.98
		l6.03-12.34c0.98-1.96,2.24-3.51,3.23-4.49c2.24-2.24,5.47-3.23,9.26-3.23c5.75,0.28,12.76,4.07,16.27,8.28
		c1.96,2.24,3.23,4.77,3.23,7.01c0.28,2.24-0.28,4.77-1.96,7.57l-6.45,12.34l-1.54-0.98l0.28-1.26c0.28-0.98,0.28-1.96,0-2.24
		c-0.28-0.28-1.26-1.26-2.81-1.96L55.15,166.1z M80.26,169.88c1.54-2.52,1.96-4.77,1.26-6.73c-0.98-3.23-3.79-6.03-9.26-8.56
		c-6.03-3.23-10.52-3.79-13.32-2.24c-2.81,1.26-4.21,4.49-5.47,7.01l25.81,13.04L80.26,169.88z"/>
	<path id="XMLID_19_" class="st0" d="M166.24,75.63c2.24,1.96,3.51,3.23,4.07,3.51c0.98,0.28,2.24,0,2.81-0.28l1.26,1.96l-10.8,6.03
		l-0.98-1.54c0.7-0.7,1.68-1.26,1.96-1.96c0.28-0.28,0.28-0.98,0-1.26c-0.28-0.28-0.98-1.26-2.24-2.52l-3.79-3.51l-8.28,4.77
		c0,0.7,1.26,6.73,2.24,7.99c0.28,0.28,0.7,0.56,1.26,0.56c0.7,0.28,1.96-0.28,2.52-0.56l0.98,1.96l-8.56,4.77L147.72,94
		c0.98-0.98,1.54-1.54,1.96-2.81c0-0.56,0-1.54-0.28-2.52c0-0.98-0.28-2.52-0.7-4.49l-4.49-20.76c-0.28-1.26-0.7-2.24-0.98-3.51
		l3.79-1.96L166.24,75.63z M149.69,78.58l7.01-4.07l-10.24-9.82L149.69,78.58z"/>
	<path id="XMLID_22_" class="st0" d="M286.3,48c2.24,0.28,3.79,0,5.05-0.98c1.26-1.26,2.24-2.81,2.52-4.77
		c0.28-2.81,0-4.49-1.54-5.75c-1.26-0.98-4.49-1.54-6.31-1.54l-1.96,12.76L286.3,48z M298.64,68.06c-1.26,0.28-2.52,0.28-3.79,0.28
		c-1.96-0.28-3.23-1.26-3.79-2.52c-0.56-0.98-0.98-1.54-0.98-2.52c-0.28-0.98-0.28-2.52-0.28-4.49c-0.28-2.52-0.28-4.49-0.28-5.05
		c-0.28-0.56-0.28-1.26-0.7-1.96c-0.7-0.98-1.54-1.54-3.23-1.54l-1.96-0.28l-1.26,8.98c-0.28,1.26-0.28,2.24-0.28,2.52
		c-0.28,0.7,0,0.98,0,1.26c0.28,0.28,0.7,0.98,1.96,1.26l1.26,0.28l-0.28,1.96l-12.76-1.96l0.28-1.96h1.26
		c0.98,0,1.54-0.28,1.96-0.7c0.7-0.7,0.98-1.54,1.26-3.51l2.81-19.78c0.28-1.26,0.28-2.24,0.28-2.52c0-0.28,0-0.98,0-1.26
		c-0.28-0.28-0.98-0.98-1.96-1.26l-1.12-0.28l0.28-1.96l14.59,2.24c2.81,0.7,4.77,1.54,6.03,2.81c1.54,1.54,1.96,3.79,1.54,6.31
		c-0.28,2.81-1.54,5.05-3.79,6.03c-1.26,0.98-2.52,1.26-4.49,1.26c0.7,0.28,1.26,0.7,1.54,0.98c0.7,0.28,1.26,0.98,1.54,1.54
		c0.28,0.7,0.7,1.54,0.98,2.52c0,0.98,0.28,2.52,0.28,4.49c0,1.96,0,3.23,0,4.21c0.28,0.56,0.28,1.26,0.7,1.54
		c0.28,1.26,1.26,1.26,2.24,0.98v2.1H298.64z"/>
	<path id="XMLID_25_" class="st0" d="M330.76,76.61c2.52,1.26,5.05,1.26,7.01,0.56c2.81-0.98,5.47-4.49,7.99-9.82
		c2.52-6.03,2.81-10.52,1.26-13.32c-0.98-1.54-2.52-2.81-5.05-3.79l-2.24-1.26l-11.5,26.79L330.76,76.61z M332.72,51.09
		c0.28-0.98,1.26-2.52,0.98-3.51c0-0.7-0.28-1.26-1.26-1.96l-1.26-0.7l0.98-1.96l12.76,5.47c1.96,0.98,3.51,1.96,4.77,2.81
		c2.24,1.96,3.51,5.05,3.51,8.84c0.28,5.75-2.81,13.04-7.01,16.83c-2.24,2.24-4.49,3.51-6.73,3.79c-1.96,0.28-4.77-0.28-7.57-1.54
		l-12.76-5.47l0.7-1.54l1.26,0.28c1.26,0,1.96,0,2.24-0.28c0.28-0.28,0.98-1.26,1.96-3.23L332.72,51.09z"/>
	<path id="XMLID_28_" class="st0" d="M390.65,94.71c1.54,1.26,3.23,1.96,4.49,1.54c1.96,0,3.51-0.98,4.77-2.52
		c1.96-2.24,2.24-4.07,1.54-5.75c-0.7-1.54-3.23-3.51-4.49-4.49l-8.28,9.54L390.65,94.71z M390.65,118.27
		c-1.26-0.28-2.52-0.98-3.51-1.96c-1.26-1.26-1.96-2.52-1.96-4.21c0-0.7,0.28-1.54,0.7-2.52c0.28-0.98,0.98-2.24,1.96-3.79
		c1.26-2.52,1.96-3.79,2.24-4.77c0.28-0.7,0.7-1.26,0.7-1.54c0-1.26-0.7-2.24-1.96-3.23l-1.26-1.26l-6.03,7.01
		c-0.98,0.98-1.26,1.54-1.54,1.96c-0.28,0.28-0.28,0.7-0.28,0.98c-0.28,0.7,0,1.26,0.7,2.24l0.98,0.98l-1.26,1.54l-9.82-8.28
		l1.26-1.54l1.26,0.7c0.98,0.7,1.54,0.7,1.96,0.7c0.7-0.28,1.54-1.26,2.81-2.52l12.76-15.29c0.7-0.98,1.26-1.54,1.54-1.96
		c0.28-0.28,0.28-0.98,0.28-0.98c0.28-0.56,0-1.26-0.7-2.24l-0.98-0.98l1.26-1.54l11.22,9.54c2.24,1.96,3.51,3.79,3.79,5.75
		c0.28,2.24-0.28,4.21-1.96,6.03c-1.96,2.24-4.07,3.51-6.31,3.51c-1.26-0.28-2.81-0.7-4.49-1.26c0.28,0.7,0.7,0.98,0.98,1.54
		c0.28,0.7,0.28,1.26,0.28,2.24c0,0.7-0.28,1.54-0.7,2.52c-0.28,0.98-0.98,2.24-1.96,3.79c-0.98,1.96-1.54,2.81-1.96,3.51
		c-0.28,0.7-0.28,1.26-0.7,1.96c0,0.98,0.7,1.54,1.54,1.96L390.65,118.27z"/>
	<path id="XMLID_31_" class="st0" d="M449.27,150.81c-3.23,0-7.01,0.98-10.8,3.23c-4.49,1.96-7.29,4.49-9.26,7.01
		c-1.96,2.52-1.96,4.77-0.56,7.29c0.98,2.52,3.23,3.79,6.03,3.79c3.23,0,7.01-0.98,11.22-3.23c4.21-2.24,7.29-4.49,8.98-7.01
		c1.96-2.52,1.96-4.77,0.98-7.29C454.32,152.07,452.08,150.81,449.27,150.81z M458.39,165.11c-1.54,3.51-4.77,6.73-9.82,9.26
		s-9.54,3.51-13.32,2.52c-3.79-0.7-6.73-3.23-8.84-7.57c-2.24-4.07-2.52-7.99-0.98-11.78c1.54-3.23,5.05-6.31,10.24-8.84
		c5.05-2.52,9.26-3.51,13.04-2.52c2.24,0.28,4.07,1.26,5.47,2.81c1.26,1.26,2.52,2.81,3.51,4.49
		C459.65,157.82,460.07,161.61,458.39,165.11z"/>
	<path id="XMLID_34_" class="st0" d="M460.35,228.51l0.98,8.28l13.32-5.47L460.35,228.51z M456.29,244.64
		c-2.52,1.26-4.21,2.24-4.77,2.52c-0.98,0.7-0.98,1.96-1.26,2.81h-1.96l-1.26-12.06l1.96-0.28c0.28,0.7,0.7,1.96,0.98,2.52
		c0.28,0.28,0.56,0.7,1.26,0.28c0.28,0,1.54-0.28,3.23-0.98l4.77-1.96l-0.98-9.54c-0.7,0-6.73-1.26-8.28-1.26
		c-0.7,0-0.98,0.28-1.26,0.98c-0.28,0.56-0.28,1.96-0.28,2.52l-1.96,0.28l-0.98-9.96h1.96c0.28,1.26,0.7,1.96,1.54,2.52
		c0.7,0.28,1.54,0.56,2.24,0.98c0.98,0.28,2.52,0.7,4.77,0.98l20.76,4.49c1.26,0.28,2.24,0.28,3.23,0.7l0.7,4.07L456.29,244.64z"/>
	<path id="XMLID_37_" class="st0" d="M441.56,346.61l-3.51,7.29l14.03,2.52L441.56,346.61z M429.22,357.97
		c-2.81-0.7-4.49-0.7-5.33-0.7c-0.98,0-1.68,0.98-2.24,1.54l-1.96-0.98l5.75-10.8l1.54,0.98c0,0.7-0.56,1.96-0.28,2.52
		c0,0.28,0,0.7,0.7,0.98c0.28,0.28,1.54,0.7,3.23,0.98l5.05,0.98l4.49-8.56c-0.7-0.7-4.77-4.77-6.45-5.47
		c-0.28-0.28-0.98-0.28-1.26,0c-0.98,0.28-1.54,1.26-1.96,1.96l-1.54-0.98l4.07-8.56l1.96,0.98c-0.28,1.26-0.7,1.96,0,3.23
		c0.28,0.7,0.7,1.26,1.26,1.96c0.7,0.7,1.96,1.96,3.51,3.51l15.01,15.01c0.7,0.7,1.54,1.54,2.52,2.24l-2.24,3.79L429.22,357.97z"/>
	<path id="XMLID_40_" class="st0" d="M392.89,394.57c-2.24,2.24-3.51,4.07-3.51,6.31c0,2.81,2.24,6.73,6.45,10.8
		c4.49,4.77,8.56,6.73,11.78,6.45c3.23-0.28,5.47-2.81,7.29-5.05l-20.34-20.34L392.89,394.57z M415.75,406.07
		c0.28,0.7,1.96,2.24,2.52,2.24c0.7,0.28,1.26,0,2.24-0.7l0.98-0.7l1.68,1.26l-9.96,9.82c-1.54,1.54-2.81,2.52-4.07,3.23
		c-2.81,1.54-6.31,1.54-9.82,0c-5.47-1.96-10.8-7.29-13.04-12.76c-0.98-2.81-1.26-5.05-0.98-7.29c0.7-2.24,1.96-4.49,4.49-7.01
		l9.54-9.54l1.54,1.26l-0.98,0.98c-0.7,0.98-0.7,1.54-0.7,2.24c0.28,0.7,0.98,1.54,2.24,2.81L415.75,406.07z"/>
	<path id="XMLID_43_" class="st0" d="M378.3,427.67c-1.96,1.26-2.81,2.52-2.81,4.21c-0.28,1.54,0,3.51,1.26,5.05
		c1.54,2.24,3.23,3.23,5.05,3.23c1.54-0.28,4.21-2.24,5.75-3.23l-7.29-10.52L378.3,427.67z M355.3,421.64
		c0.7-0.98,1.54-1.96,2.52-2.81c1.54-0.98,3.23-1.26,4.77-0.7c0.7,0,1.54,0.7,2.24,0.98c0.7,0.7,1.96,1.54,3.23,2.81
		c1.96,1.96,3.23,3.23,3.79,3.51c0.7,0.56,1.26,0.98,1.96,0.98c0.98,0.28,1.96,0,3.23-0.7l1.54-1.26l-5.05-7.57
		c-0.7-0.98-1.26-1.54-1.68-1.96c-0.28-0.28-0.56-0.7-0.98-0.7c-0.28-0.28-1.26-0.28-2.24,0l-0.98,0.7l-1.26-1.68l10.52-7.29
		l1.26,1.54l-0.98,0.98c-0.98,0.7-1.26,1.26-0.98,1.96c0,0.56,0.7,1.54,1.54,3.23l11.5,16.55c0.7,0.98,1.26,1.54,1.54,1.96
		c0.28,0.28,0.28,0.7,0.7,0.7c0.7,0.28,1.26,0.28,2.24-0.28l1.26-0.7l1.26,1.54l-12.48,8.56c-2.24,1.54-4.49,2.24-6.03,2.24
		c-2.24-0.28-4.07-1.54-5.75-3.51c-1.54-2.52-2.24-4.77-1.54-7.29c0.7-0.98,1.26-2.24,2.52-3.79c-0.7,0.28-1.26,0.7-1.96,0.7
		c-0.7,0-1.26,0-2.24-0.28c-0.56,0-1.54-0.7-2.24-1.26c-0.98-0.7-1.96-1.54-3.51-2.81c-1.26-1.26-2.24-2.24-2.81-2.81
		c-0.56-0.28-0.98-0.7-1.54-0.98c-0.98-0.28-1.54,0.28-2.24,0.98L355.3,421.64z"/>
	<path id="XMLID_46_" class="st0" d="M304.95,456.99l-7.99,1.96l7.01,12.34L304.95,456.99z M288.4,454.74
		c-1.54-2.24-2.52-3.79-3.23-4.49c-0.7-0.7-1.96-0.7-2.81-0.7l-0.28-1.96l12.06-2.81l0.28,1.96c-0.7,0.28-1.96,0.7-2.24,1.26
		c-0.28,0.28-0.7,0.7-0.28,1.26c0,0.28,0.28,1.26,1.26,2.81l2.52,4.49l9.54-1.96c0-0.7,0.28-7.01,0-8.28c0-0.7-0.28-0.98-0.98-1.26
		c-0.7-0.28-1.96,0-2.52,0l-0.7-1.96l9.54-2.24l0.7,1.96c-1.26,0.7-1.96,0.98-2.52,2.24c-0.28,0.7-0.7,1.26-0.7,2.24
		c-0.28,0.98-0.28,2.52-0.7,4.77l-1.54,21.04c-0.28,1.26-0.28,2.24-0.28,3.51l-4.21,0.98L288.4,454.74z"/>
	<path id="XMLID_49_" class="st0" d="M259.23,77.59c-98.74-1.54-179.81,76.72-181.77,175.46c-1.54,98.32,77,179.81,175.32,181.49
		c98.74,1.54,179.81-76.72,181.49-175.32C436.23,160.63,357.55,79.14,259.23,77.59z M259.23,74.37
		c100.28,1.96,180.23,84.71,178.27,185c-1.54,100-84.29,179.81-184.58,178.27c-100.28-1.96-180.09-84.71-178.27-184.58
		C76.19,152.63,158.94,72.83,259.23,74.37z"/>
	<path id="XMLID_52_" class="st0" d="M260.07,18.97C129.21,16.72,21.35,120.79,19.11,251.65c-2.24,130.86,101.83,239,232.68,241.24
		s238.72-101.83,240.96-232.68C495,129.49,390.93,21.49,260.07,18.97z M260.07,16.16c132.4,2.24,238.15,111.5,235.91,244.19
		c-2.24,132.4-111.78,238.15-244.19,235.63C119.11,493.73,13.64,384.61,15.88,251.79C18.13,119.25,127.67,13.64,260.07,16.16z"/>
	<path id="XMLID_55_" class="st0" d="M260.07,8.87C123.46,6.34,11.11,115.18,8.59,251.79C6.34,388.4,115.18,501.03,251.51,503.27
		c136.61,2.52,249.23-106.31,251.48-242.92C505.52,123.74,396.68,10.97,260.07,8.87z M260.49,0.17
		C401.87,2.7,514.21,119.25,511.97,260.63c-2.52,140.96-119.08,253.72-260.46,251.2C110.13,509.16-2.21,392.75,0.03,251.37
		C2.56,110.41,119.11-2.35,260.49,0.17z"/>
	<path id="XMLID_58_" class="st0" d="M258.81,93.44C169.04,91.9,94.85,163.43,93.3,253.19s69.99,163.68,159.75,165.22
		c89.76,1.54,163.96-69.99,165.22-159.75C419.96,168.9,348.57,95.13,258.81,93.44z M258.81,84.89
		c94.53,1.68,169.99,79.67,168.45,174.2c-1.96,94.53-79.53,169.71-174.06,168.03c-94.53-1.54-169.99-79.67-168.45-174.06
		C86.29,158.38,164.27,83.35,258.81,84.89z"/>
	<path id="XMLID_59_" class="st0" d="M447.31,274.37l0.7-22.02h1.96l0.28,1.26c0,1.26,0.28,1.96,0.98,2.24
		c0.7,0.28,1.54,0.28,3.51,0.28l20.06,0.98c1.26,0,1.96,0,2.52,0c0.28,0,0.7-0.28,0.98-0.28c0.56-0.28,0.98-0.98,1.26-1.96v-1.26
		h1.96l-0.28,13.04l-1.96-0.28l-0.28-1.26c0-1.26-0.28-1.96-0.56-1.96c-0.7-0.28-1.96-0.7-3.79-0.7l-24.26-0.98l-0.28,3.51
		c0,1.96,0.56,3.51,1.26,4.49c0.98,0.98,2.52,1.96,4.77,2.81l3.51,1.26v1.96L447.31,274.37z"/>
	<path id="XMLID_60_" class="st0" d="M465.4,305.23l0.28-1.96c0.98,0,1.96-0.28,2.81-0.56c1.26,0,2.52-0.28,3.23-0.7
		c0.7-0.28,1.26-0.28,1.54-0.98c0.98-0.56,1.54-1.96,1.96-3.51l0.98-4.77l-12.06-2.24l-0.28,2.52c-0.28,0.98,0,1.54,0.28,2.24
		c0.28,0.28,1.26,0.98,2.52,1.54l2.52,0.98l-0.28,1.54l-14.73-2.52l0.28-1.54c1.26,0,4.49,0,5.75-0.7c0.28-0.7,0.98-1.26,0.98-2.24
		l0.7-2.24l-14.03-2.52l-0.98,4.49c-0.28,1.96,0,3.51,0.28,4.49c0.7,0.98,2.24,2.24,4.21,3.23l3.79,2.24l-0.7,1.96l-11.5-2.81
		l3.79-22.58l1.96,0.28v1.26c0,0.98,0.28,1.54,0.7,2.24c0.7,0.28,1.54,0.7,3.51,0.98l19.78,3.51c1.26,0,1.96,0.28,2.52,0.28
		c0.28,0,0.7,0,0.98-0.28c0.7,0,0.98-0.7,1.26-1.68l0.7-1.26l1.96,0.28l-4.07,22.3L465.4,305.23z"/>
	<path id="XMLID_61_" class="st0" d="M448.29,317.57c0-0.28-0.7-0.7-0.98-1.26l-1.54-1.68c-0.98-0.98-1.96-1.54-2.24-1.96
		c-0.7,0-0.98,0-1.26,0.28c-0.28,0.28-1.26,1.54-1.68,1.96l-1.54-0.7l3.23-9.54l1.96,0.7c-0.28,1.26,0,2.24,0.28,3.51
		c0.7,1.54,2.52,3.79,3.79,5.05l5.75,6.45l13.32-2.24c1.68-0.28,2.52-0.7,2.81-0.7c0.98-0.7,1.26-1.54,1.54-2.24l1.96,0.7
		l-4.21,11.78l-1.54-0.56c0.7-2.81-0.7-3.23-2.52-2.81l-8.28,1.26l2.81,3.23c0.7,0.7,3.51,3.79,4.49,4.07c0.56,0,0.98,0,0.98,0
		c0.28-0.28,0.98-1.26,0.98-1.54l1.96,0.7l-2.81,8.28l-1.96-0.7c0.28-0.7,0.28-1.26,0.28-1.96c-0.28-0.56-0.7-1.26-0.98-2.24
		c-0.98-1.26-2.81-3.79-6.03-7.01l-2.24-2.52l-13.75,2.24c-1.54,0.28-2.52,0.28-2.81,0.28c-0.7,0.28-0.98,0.7-1.26,0.98
		c-0.7,0.28-1.26,0.98-1.68,1.54l-1.96-0.7l4.49-12.48l1.96,0.7c-0.28,0.7-0.28,1.96,0,2.52c0,0.98,0.7,0.98,1.54,0.98
		c0.28,0,1.26,0,3.23-0.28l7.01-0.98L448.29,317.57z"/>
	<path id="XMLID_62_" class="st0" d="M410.42,384.05l13.32,9.54c2.24,1.96,3.79,2.52,4.77,2.81c0.28,0,0.98,0,1.26-0.28
		c0.7-0.28,1.54-1.26,1.96-1.54l1.54,1.26l-6.45,8.28l-1.54-1.26c0.7-0.98,1.54-2.24,0.98-3.51c-0.28-0.7-1.96-1.96-4.21-3.79
		l-19.36-15.01l2.52-3.51l31.14,4.49l-15.99-11.5c-0.98-0.7-3.23-2.24-4.49-2.24c-0.28,0-0.56,0-0.98,0.28
		c-0.7,0.28-1.26,0.98-1.96,1.54l-1.54-1.26l6.31-8.28l1.54,0.98c-0.28,0.7-0.7,1.54-0.98,2.24c0,0.28,0,0.7,0,1.26
		c0,0.28,0.28,0.98,0.98,1.26c0.28,0.7,1.26,1.26,2.52,2.24l14.03,10.8c0.7,0.56,2.52,2.24,3.51,2.24c0.7,0,0.98,0,1.54-0.28
		c0.7-0.28,1.54-1.26,1.96-1.54l1.54,0.98l-6.03,7.99L410.42,384.05z"/>
	<path id="XMLID_63_" class="st0" d="M361.05,448.15c0.7,1.26,1.26,1.96,1.26,2.24c0.28,0.7,0.7,0.7,0.98,0.98
		c0.28,0.28,1.26,0.28,2.24,0l1.26-0.7l0.98,1.96l-11.5,6.03l-0.98-1.96l0.98-0.7c0.98-0.56,1.26-1.26,1.26-1.96
		c0-0.7-0.28-1.54-1.26-3.23L347.03,433c-0.28-0.7-1.26-2.52-2.24-2.81c-0.28-0.28-0.98-0.28-2.24,0l-1.26,0.28l-0.56-1.54
		l11.08-6.03l0.98,1.54l-0.98,0.98c-0.98,0.56-1.26,1.26-1.26,1.96c0,0.28,0.28,1.54,1.26,3.23L361.05,448.15z"/>
	<path id="XMLID_64_" class="st0" d="M318.41,447.17l6.03,15.29c0.98,2.52,1.96,4.07,2.52,4.77c0.28,0.28,0.98,0.7,1.26,0.7
		c0.56,0,1.96-0.28,2.52-0.7l0.56,1.96l-9.82,3.79l-0.56-1.96c0.98-0.7,2.52-1.26,2.52-2.52c0.28-0.98-0.28-2.52-1.26-5.47
		l-8.56-22.86l3.79-1.54l24.26,20.34l-7.29-18.09c-0.28-1.26-1.26-3.79-2.52-4.49c-0.28-0.28-0.7-0.28-0.98-0.28
		c-0.98,0-1.54,0.28-2.52,0.7l-0.7-1.96l9.82-3.79l0.7,1.96c-0.28,0.28-1.26,0.7-1.96,0.98c-0.28,0.28-0.7,0.7-0.7,1.26
		c0,0.28,0,0.98,0,1.54c0.28,0.7,0.7,1.54,0.98,3.23l6.03,16.55c0.7,0.98,1.26,3.23,2.24,3.79c0.28,0.28,0.7,0.7,1.26,0.7
		c0.98,0,1.96-0.28,2.52-0.28l0.98,1.54l-9.54,3.79L318.41,447.17z"/>
	<path id="XMLID_65_" class="st0" d="M258.24,471.99h1.96c0.28,0.7,0.7,1.54,1.26,2.24c0.56,1.54,0.98,2.52,1.26,3.23
		c0.28,0.28,0.98,0.98,1.26,1.26c0.98,0.7,2.24,0.98,4.07,0.98l4.77-0.28l-0.98-12.06h-2.52c-0.98,0.28-1.54,0.7-1.96,0.98
		c-0.28,0.7-0.7,1.54-0.98,2.81l-0.28,2.52l-1.54,0.28l-0.98-15.01h1.54c0.28,1.26,0.98,4.49,1.96,5.47c0.7,0.28,1.26,0.7,2.52,0.7
		l2.24-0.28l-1.26-14.03h-4.21c-1.96,0.28-3.51,0.98-4.49,1.54c-0.98,0.98-1.54,2.52-2.24,4.77l-0.98,4.07h-1.96v-12.06l22.86-1.54
		v1.96l-1.26,0.28c-0.98,0.28-1.54,0.7-1.96,1.26c-0.28,0.28-0.28,1.54,0,3.51l1.26,20.06c0,1.26,0.28,1.96,0.28,2.52
		c0,0.28,0,0.7,0.28,0.98c0.28,0.28,0.98,0.7,1.96,0.98h1.54v1.96l-22.58,1.54L258.24,471.99z"/>
	<path id="XMLID_70_" class="st0" d="M208.17,375.78c0.98,1.68,2.52,1.26,4.49,2.24c1.26,0.7,1.54,0.28,1.54-0.56
		c0-0.7-0.28-0.98-0.28-1.68h3.79c0.28,1.68,0.28,3.23,0.28,3.79c0,0.98-0.28,3.23,1.54,1.96c0.7-0.28,4.77-4.07,6.03-4.77
		c0.28-0.28,0.28-0.7,0.28-0.98h6.03c0.28,0.28,0.98,1.26,0.98,1.96c-0.28,1.54-1.54,2.24-2.81,2.81c-0.98,0.28-2.52,0.98-3.51,1.26
		c-1.96,1.26-0.98,4.21-0.98,5.75c0,1.96-1.96,4.07-2.81,4.07c-1.26,0.28-9.26-1.54-12.06-2.24c-1.26-0.28-1.54-1.54-1.54-3.23
		s-1.26-1.96-2.52-1.96c-0.98-0.28-2.24-0.28-3.23,0.28l-0.28,0.28c-0.56,0.28-0.98,0.56-1.54,0.28c0,0-0.28-0.28-0.28-0.7
		c0.28-0.7,1.54-2.24,1.96-3.51c0-0.98-0.98-2.52-2.24-4.07c-0.28-0.28-0.7-0.98-1.26-1.26h8.42V375.78z M247.72,375.78
		c0,0,0,0,0,0.28c0.7,0.28,1.96,0.98,2.81,1.26c1.54,0.56,3.23-0.28,4.49-1.68h11.5c-0.56,0.28-0.98,0.7-1.26,0.98
		c-0.28,1.26,1.26,1.96,3.51,1.54c1.54,0,3.23-1.26,4.21-2.52h7.29c0.28,0.28,0.7,0.7,1.54,0.7c0.98,0,2.24-0.28,3.51-0.7h7.01
		c-0.98,1.26-2.24,2.52-2.52,3.79c-1.54,2.81-7.01,9.54-8.28,10.8c-0.98,1.26-7.29,3.23-10.52,2.52c-1.26-0.28-2.52-1.26-3.51-2.24
		c-1.54-1.26-2.52-2.24-5.05-1.96c-1.26,0.28-2.52,0.98-3.79,0.28c-1.96-0.7-5.05-2.52-7.01-2.52c-2.52-0.28-6.03-0.28-8.28-1.26
		c-2.24-0.98-5.05-4.77-7.29-9.26l-0.28-0.28h11.92V375.78z M323.74,375.78c0.56,0,0.98,0,1.26,0h0.28h7.29
		c-0.98,0.98-1.96,2.24-3.23,3.51c-0.28,0.28-4.77,1.96-7.57,1.26c-1.54-1.26-4.21-2.52-5.47-2.81c-0.98,0-0.98-0.98-0.98-1.96
		H323.74z M270.03,382.23l-0.28,0.28c-0.7,0.98-3.79,2.52-2.81,3.23c1.26,1.26,7.29,4.21,9.54,3.23c0.28-0.28,6.73-5.47,6.73-6.73
		c0-1.96-2.24-1.96-4.77-1.54c-2.24,0.28-3.23,0-3.79,0.28c-0.98,0-3.51,0.28-4.21,0.98C270.31,382.23,270.31,382.23,270.03,382.23z
		"/>
	<path id="XMLID_77_" class="st0" d="M149.69,357.97c0,0,0,0.28,0.28,0.7c2.24,2.52,5.75,0,7.29,0.7c0.7,0,1.26,1.26,2.24,2.52
		c0.7,1.54,1.26,3.23,2.24,4.49c1.54,3.23,14.03,1.96,19.5,0.98c4.49-0.7,4.07-5.05,4.07-8.28c0-0.28,0-0.7,0-0.98h7.01
		c-0.28,0-0.28,0.28-0.56,0.7c-0.7,1.26,0.56,1.26,1.54,0.98c0.98-0.28,2.24-0.98,2.81-1.54h30.3c0.7,1.26,0.98,2.24,1.26,3.51
		c0,1.26,0.56,1.54,1.26,0.98c0.7-0.28,1.54-0.98,2.24-1.54c0.7-0.28,0.28-1.54,0-2.81h6.03c0.28,0.28,0.98,0.7,1.54,0.7
		c0.98,0,1.96,0,2.81-0.28c0.98,0,1.54-0.28,2.52-0.28c0.7,0,1.54,0,3.51,0.28c3.51,0.98,4.49,1.68,4.49,3.23
		c0,0.28-0.28,0.28-0.98,0.28c-1.96,0.28-6.73-0.7-8.56-0.98c-2.24-0.28-3.23-0.28-3.79,0.7c-0.28,0.98,0,3.23,0,4.07
		c0,2.24,0.98,2.81,2.24,3.23c1.26,0.28,2.81,0.28,4.07,0.7c1.68,0.28,2.52,0.28,3.51,0.28c0.7,0,1.26,0.28,2.52,0.98
		c1.26,0.7,1.26,1.26,0.7,1.54c-0.98,0.98-2.24,1.54-3.23,1.96c-0.98,0.7-1.26,0.98-0.98,1.54h-12.06c-0.28-0.98-0.7-1.54-0.98-2.24
		c-0.98-1.26-1.26-1.96-2.81-1.26c-0.7,0-1.96,0.28-1.54,1.26c0,0.7,1.26,1.68,1.54,1.96c0,0,0,0,0.28,0.28h-6.03
		c-0.28-0.98-1.68-2.24-1.68-2.81c0-1.26-0.28-1.96,0-3.23c0.7-2.52-2.24-3.51-7.29-2.81c-5.05,0.56-9.82,4.77-9.26,7.57
		c0,0.7,0.28,0.98,0.28,1.26h-8.56c-0.7-0.98-1.54-2.24-1.54-2.52c-0.28-0.98,0-1.26,0.7-1.26c0.98-0.28,2.24-0.28,3.51-0.56
		c2.81-0.7,2.52-3.23,2.52-5.47c0-2.52-2.24-2.52-7.57-2.24c-5.05,0-10.52,5.05-12.06,7.01c-1.54,1.96-4.21,3.79-6.73,3.79
		c-1.54,0-2.81,0-4.07,0c-1.68,0-2.52,0-2.81-0.28c-0.28,0-0.7-0.28-0.7-0.28l-0.28-0.28c-0.98-0.98-3.23-1.26-4.49-1.54
		c-5.05-0.56-5.75-0.98-7.99-2.52c-2.24-1.96-6.31-5.47-7.57-5.75c-0.56,0-1.26,0-1.54,0c-0.56-0.28-1.26-0.7-2.52-1.26
		c-1.26-0.7-2.24-2.24-3.51-4.49h6.87V357.97z M277.32,357.97c-0.7,0.28-0.98,0.98-1.68,1.26c-0.28,0.28-0.98,0.7-1.54,0.7
		c-0.98,0.56-2.81,1.26-3.51,2.24c-0.7,0.28-1.26,1.26-2.24,2.52c-2.24,2.24-2.52,2.81-5.75,4.07c-0.98,0.28-1.96,0.7-1.96,0.98
		c-0.7,0.28-1.54,1.26-1.26,2.24c0.28,0.28,0.7,0.7,1.54,1.26c0.7,0.98,1.68,0.98,2.52,0.7c0.98-0.28,1.96-0.98,2.81-1.26
		c1.54-0.28,1.54,0.28,1.54,1.54c0,0.7-0.98,0.98-1.54,1.54h-11.5c0.7-0.98,0.98-1.54,1.26-2.52c0.98-2.52-0.98-5.05-1.26-7.57
		c0-2.81,7.01-4.77,7.99-6.73c0-0.7,0-0.98,0-0.98L277.32,357.97L277.32,357.97z M287.56,357.97c-0.28,1.26-0.7,2.52-2.52,3.23
		c-1.26,0.98-2.24,1.26-3.23,1.54c-0.98,0.28-1.96,0.7-2.81,1.26c-0.84,0.56-1.96,1.26-2.81,1.54c-0.28,0-1.26,0.28-1.26,0
		c0,0,0,0,0-0.28v-0.28c0-0.98,0.28-1.96,1.54-2.52c1.96-0.7,5.05-2.24,6.73-3.79c0.28-0.28,0.7-0.7,0.7-0.7L287.56,357.97
		L287.56,357.97z M318.41,357.97c1.96,1.54,3.51,3.51,4.77,4.77c0.98,0.7,1.54,1.26,2.24,0.98c0.98-0.28,1.96-3.23,2.24-5.75h8.28
		c1.26,0.28,2.81,0.7,3.79,1.54c0,0.28,0,0.28,0,0.7c-0.28,0-0.56,0.28-1.26,0.7c-0.98,0.28-2.24,0.98-3.79,1.96
		c-2.81,1.54,0.28,4.77,0.7,7.01c0,1.96-0.98,3.79-2.52,6.03h-7.29c0.98-0.28,1.96-0.98,2.52-1.96c0.98-1.26,1.96-1.96,1.96-3.23
		v-1.26c0-1.26-0.98-1.54-2.24-1.96c-1.54-0.28-2.52-0.28-4.21-0.56c-2.52-1.26-5.75-3.51-5.75-3.51c-0.56,0.98-1.96,1.26-1.96,2.81
		c0,1.96,3.51,1.54,3.51,3.51v2.52c0,2.24,2.24,3.23,4.49,3.51h-8.28c0-0.56,0-1.26,0.28-1.96c0-2.24-0.28-3.79-2.81-3.79
		c-1.26,0-2.81,0.28-4.07,0.28c-1.96-0.28-1.54-1.26,2.81-5.75c4.49-4.77,1.68-5.75-1.54-6.03c-2.81-0.28-9.26,6.73-11.5,9.54
		c-0.98,1.54-2.81,3.51-4.77,5.75c-0.56,0.7-0.98,1.26-1.54,1.96h-7.01l0.28-0.28c2.24-0.28,2.24-2.52,2.81-4.49
		c0.7-2.24,1.96-3.23,3.79-4.49c0.98-0.98,1.96-1.54,2.52-2.52c1.26-2.24-1.54-3.79-1.54-5.47c0-0.28,0.28-0.28,0.28-0.7h24.83
		V357.97z M213.92,375.78c0-0.28,0-0.56,0-0.56c0.28-1.68,0.98-1.96,2.81-1.96c0.7-0.28,0.98,0.98,0.98,2.52H213.92z M272.83,375.78
		c0.7-0.98,0.98-1.96,1.26-2.52c0.7-1.26,4.21-0.98,5.47-1.26c0.7,0,0.7,0.28,0.7,0.7c0,0.98-0.28,2.24,0,3.23h-7.43V375.78z"/>
	<path id="XMLID_86_" class="st0" d="M138.47,340.15c0,0.28,0.28,0.98,0.28,1.26c0.7,3.23,1.26,3.79,1.96,5.05
		c0.28,1.54,2.24,2.24,5.47,1.96c0.7-0.28,1.26-0.28,1.96-0.28c1.54-0.28,1.54-1.26,1.54-2.81c0-1.26-0.7-1.96-1.26-2.52h-0.28
		c0-0.28-0.28-0.28-0.28-0.28c-0.28-0.28-0.28-0.98,0-1.26l0.28-0.28v-0.28v-0.56h6.31c0.28,1.26,0.7,2.52,0.98,3.79
		c1.26,5.47,2.52,7.01,4.07,5.75c0.7-0.7,1.54-0.98,2.24-1.54c0.28-0.7,0.28-1.96-0.28-3.79c-0.7-1.54-0.98-2.81-1.26-4.07h2.52
		c0.98,2.52,1.68,4.77,2.52,5.05c2.24,0.98,3.79,1.54,3.23-2.24c0-0.7-0.28-1.68-0.7-2.81H171c0.7,1.54,0.98,2.81,1.26,2.81
		c0.7,0,0.98,0.28,1.26,0.28c0.98,0.28,2.24,0.7,1.96-0.98c0-0.7-0.28-1.26-0.28-2.24H179c0.7,0.98,1.26,1.96,2.24,1.54
		c0.7,0,5.47,0,5.47-1.54h22.02c4.77,2.24,6.73,2.52,6.73,1.26c0-0.28,0-0.56-0.28-1.26h4.49c0,0.7,0.28,1.26,0.28,2.24
		c0.98,3.79,0.98,8.56,3.79,11.78c0.7,0.7,1.26,1.26,1.96,2.24c0.7,0.7,0.98,0.98,0.98,1.54h-30.3c0.28-0.28,0.7-0.28,0.7-0.7
		c0.7-0.7,2.24-0.7,4.21-0.28c2.52,0.28,5.05,0.98,7.57,0.98c4.07-0.28,3.23-2.81,1.54-4.77c-0.28-0.7-0.98-0.98-0.98-1.26
		c-0.28-0.28-0.56-0.7-0.98-0.98c-1.26-0.7-2.52-1.26-3.79-2.24c-0.28-0.7-0.98-0.98-1.54-0.98h-0.7c-0.7,0-1.54-0.28-2.52-1.26
		c-0.28-0.28-0.28-0.7,0.28-0.7c0.28,0,1.26,0,2.52,0c2.24,0.28,5.47,0.28,7.29-0.28c2.24-0.98,1.26-1.54-0.7-2.24
		c-1.96-0.28-4.77-0.7-7.01-0.98c-2.81-0.28-4.49-0.28-5.47-0.28c-1.26,0.28-1.54,0.7-2.24,1.26c-0.98,1.26-5.75,2.24-10.8,2.24
		c-2.52,0-3.79,0.28-4.49,0.98c-0.28,0.28-0.56,0.98-0.98,1.54c-1.54,2.52-6.73,3.51-9.26,3.79c-1.96,0.28-2.81,0.28-4.21,0.7
		c-0.98,0.28-2.24,0.98-4.49,1.54c-4.49,0.98-8.98,1.54-9.26,1.54c0,0,0,0-0.28,0c-1.54,0.28-2.24,0.98-1.26,2.24h-7.01
		c0-0.28-0.28-0.7-0.28-0.98c-1.54-2.81-2.81-5.75-5.05-7.99c-1.54-1.96-3.51-5.75-4.07-8.84h5.33V340.15z M234.68,340.15
		c0.28,0.7,0.7,0.7,1.54,0.7c0.28,0,0.7-0.28,1.26-0.7h6.03c0,0.28-0.28,0.28-0.28,0.7c-1.54,1.54-0.7,5.47,0.7,7.01
		c0.28,0.28,0.98,0.7,1.26,0c0.7-0.7,0.28-1.54,0.28-2.52v-0.56v-0.7c0.7-0.28,0.98-0.7,1.54-0.7c0.28,0,0.7,0,0.28,0.7
		c0,0.7,0,1.96,0.28,3.23c0.28,1.26,0.28,2.24,0.28,2.24c0.98,0.28,3.23,0.98,2.81-0.98c0-0.98-0.28-1.96-0.7-2.81
		c0-0.7-0.28-1.54,0.28-1.96c0.98,0,1.26,0,1.26,0c0.98,0,2.24-1.26,2.24,0.28c0,0.98,0,1.96,0.28,2.81c0.98,2.24,0,2.24,0.28,4.21
		c0,0.7,0,1.26,0,1.54c0,0.7,0.28,0.98,0.98,0.98c0.7,0.28,2.52,0.7,1.96-0.98c-0.28-0.98-0.28-2.52,0-3.51
		c0-0.28,0.98-2.81,1.26-3.23c0.98,1.26,0.28,4.77,0.7,6.45c0,0.56,0.28,0.98,0.7,1.26c0.7,0,1.54,0.28,2.52,0.7
		c0.98,0,1.96-0.28,2.52-1.26c0-0.56,0-0.56,0.28-0.56c0.7,0,0.7,0,0.98,0.28c-0.28-0.7-0.28-0.7-0.28-1.54
		c0-0.7-0.28-2.24-0.28-3.79c-0.28-1.26,0-2.52,0.28-2.52c0.28-0.28,0.7-0.28,0.98,0c0,0.28,0,0.56,0.28,1.26l0.28,1.54
		c0.7,2.81,1.26,4.77,2.52,4.49c0.28,0,0.28,0,0.7,0.28h0.28c0.7,0,0.7-0.7,0.7-1.26c0.28-1.26-1.96-6.03-0.98-6.73
		c0.28-0.28,0.98-0.98,1.26-1.26c0.7-0.28,0.7-0.28,0.7,0c0,1.26,0.28,8.56,1.26,9.26c0.7,0,1.96,1.26,2.24,0c0-0.28,0-0.98,0-1.68
		c-0.28-0.98-0.28-1.54-0.7-2.52c0-0.98-0.28-4.07-0.28-5.05c0.7-0.28,1.96-0.7,1.96,0.28c0,1.26-0.28,7.29,1.26,7.57
		c0.28,0,0.7,0.28,1.26,0.7c0.7,0.28,0.7-0.98,0.28-1.54v-0.28c0-0.7,0.98-1.26,1.54-1.54c1.68-1.26,2.52-2.24,1.96-4.07v-0.28
		c0-0.28,0-0.28,0-0.28c0-0.28,1.26-0.7,1.26-0.7c1.54-0.28,6.73-0.7,7.57-2.52h7.29l-0.28,0.28l-0.28,0.28
		c-0.98,0.28-0.56,0.98-0.28,1.96c0.7,0.7,2.52,1.96,4.07,3.51c0.98,0.56,1.96,1.26,2.81,1.54c1.26,1.26,1.54,1.54,2.52,2.81
		c1.68,2.24,2.81,3.51,5.47,4.21c1.68,0.28,2.81,1.54,4.49,3.23h-24.83c0.7-1.54,2.81-2.81,3.79-4.07c0.28-1.26,0-1.96-0.98-2.52
		c-0.98-0.98-1.54-1.26-1.96-2.81c-0.28-0.98-0.28-1.96-0.98-2.81c-0.28-0.98-1.26-1.26-2.24-0.98c-0.98,0.28-2.24,0.98-3.79,1.54
		c-1.54,0.28-2.24,1.26-2.52,2.24c-0.7,0.98-0.7,1.96-0.98,2.81c-0.56,1.54-4.07,4.77-6.73,6.73h-13.89c0-0.28-0.28-0.28-0.28-0.28
		c-0.98-0.28-3.23-0.28-4.21-0.28c-1.54,0-2.24-0.28-3.79-0.98c-2.81-1.54-5.05-2.52-8.28-3.23c-4.77-0.98-9.26-3.23-13.32-5.05
		c-2.24-1.26-5.47-5.05-7.29-7.99h8.84V340.15z M308.18,340.15c2.52,2.24,7.99,6.31,9.54,7.01c0.7,0.28,0.98,0.7,0.98,0.7l0.28,0.28
		c0.7,0.28,1.96,0.28,2.52,0.28c1.68,0,3.51,0,5.05,0c1.96-0.28,3.51-0.98,5.05-2.52c1.96-1.96,5.05-3.79,7.99-5.75h35.34
		c-0.28,0.98-0.7,1.96-1.26,2.81c-1.96,2.24-3.79,2.52-5.47,2.24c-1.96,0-3.51-0.98-5.05-1.26c-1.54-0.28-2.24,0.28-2.24,1.54
		c-0.28,0.98,0,2.24,0,3.51c0,2.24-0.7,5.75-8.28,7.57c-7.29,1.54-8.28-6.03-8.28-8.84c0-3.23-0.98-2.52-2.81-1.54
		c-1.26,0.56-2.81,1.54-4.21,2.24c-1.54,0.56-2.81,1.26-3.51,1.96c-1.26,1.26-0.28,4.21,0.28,6.03c0.28,0.98,0.98,1.26,1.54,1.54
		h-8.28c0.28-1.96,0.28-3.51-0.28-3.79c-0.7,0-1.26,0-1.96,0c-0.7,0-1.54,0-3.23-0.7c-3.51-1.26-4.77-0.98-7.99-3.79
		c-2.52-2.24-5.47-3.79-7.99-5.75c-0.7-0.7-1.26-0.98-1.68-1.26c-0.56-0.7-1.26-1.54-1.96-2.24l-0.28-0.28H308.18z M315.19,340.15
		v0.28c0,0,0,0.28,0,0.7v0.28c0,0.28,0,0.28,0,0.28c-0.7,0-1.54-1.26-1.96-1.26c0,0,0-0.28-0.28-0.28L315.19,340.15L315.19,340.15z
		 M185.31,357.97c0-0.28,0-0.7,0-0.98c1.26-1.54-0.7-2.52,0-3.51c0.7-1.26,7.01-0.98,7.99-0.98c0.98,0,1.54,0,1.96,0
		c0.7,0,0.7,0,0.28,0.7c-0.28,1.54,0.28,1.54-1.26,2.81c-0.98,0.56-1.54,1.26-1.96,1.96L185.31,357.97L185.31,357.97z
		 M231.17,357.97c-0.7-1.96-1.26-3.79-0.28-5.05c0.98-1.26,1.54-0.56,2.52,0l0.7,0.7c0.28,0.28,0.98,0.7,1.26,0.98
		c0.56,0.28,0.98,0.56,1.26,0.56c0,0.28,0.28,0.28,0.28,0.7v0.28c0,0.56,0,1.26,0.28,1.96h-6.03V357.97z M283.63,357.97
		c0.98-0.98,1.54-1.54,2.24-2.24c0.7-0.28,1.54-0.98,1.54,0.28c0,0.56,0,1.26,0,1.96H283.63z M354.32,340.43
		c-2.81,0-7.01,1.26-7.01,1.26c-0.7,0.7-1.26,0.7-1.54,1.54c0.98,0.7,1.26,1.54,2.52,1.96c1.26,0.7,2.81,0.7,2.81,1.96
		s-1.26,1.26-1.26,2.52c0,0.98,0.98,1.96,2.24,1.96c2.24,0,4.77-1.54,4.77-4.21c0-1.26-0.7-1.96-0.7-3.23c0-0.7,0.28-0.98,0.28-1.54
		C356.56,341.42,355.58,340.43,354.32,340.43z"/>
	<path id="XMLID_97_" class="st0" d="M143.23,322.34c0,0.28,0,0.28,0,0.56c0.28,1.54,0.7,2.81,1.96,5.05
		c0.7,0.98,0.98,1.54,1.54,2.52c0.28,0.7,0.7,1.26,0.98,1.54c0.7,0.98,1.26,1.26,1.96,0c0.28-0.98,0.28-2.24,0.28-3.51
		c0-1.54-0.28-2.81-0.28-4.49c0-0.7,0-1.26,0-1.54l-0.28-0.28h7.99c0,0.56-0.28,1.26-0.56,1.96c-0.98,1.96-1.96,3.79-2.81,6.03
		c-0.7,2.81-0.28,5.47,0,7.57c0.28,0.98,0.28,1.54,0.7,2.24h-6.31c0-0.28-0.28-1.26-0.98-3.23c-2.24-4.77-3.79-4.77-5.05-2.52
		c-0.28,0.98-0.98,1.54-1.26,1.96c-0.28,0.28-0.7,0.28-0.7-0.28c-0.28-1.26-1.26-1.96-1.96-0.98c-0.7,0.7-0.28,2.52,0.28,5.05h-5.47
		c0-0.7,0-1.26,0-1.96c0.28-1.96-0.28-2.52-0.7-3.23c-0.7-0.7-1.26-0.7-1.54-1.54c-0.7-1.54,0.7-5.05,1.54-6.31
		c0.98-0.98,1.54-2.81,1.96-4.77h8.7V322.34z M165.96,322.34c0.28,0.56,0.56,1.96,0.98,3.51c0.7,2.24,2.52,10.24,4.07,14.31h-3.23
		c-0.7-2.24-1.54-5.47-2.52-8.56c-1.26-4.21-2.52-7.99-2.24-9.26H165.96z M171.99,322.34c1.54,5.05,5.05,15.85,5.75,16.55
		c0.28,0.28,0.98,0.98,1.26,1.26h-3.79c-0.98-2.81-2.24-6.73-3.51-10.24c-0.98-2.81-1.96-5.75-2.24-7.57H171.99z M183.07,322.34
		l4.21,8.28c0,0,2.24,3.23,3.23,4.77c0.98,1.96,3.79,3.79,5.05,3.79c0.28,0,0.56,0,0.98,0l0.98-0.28c3.51-0.7,7.01-0.7,10.52,0.98
		c0,0,0.28,0.28,0.7,0.28h-22.02c0-0.28,0-0.28-0.28-0.7c-2.24-3.23-5.75-8.56-7.01-10.8c0-0.28-0.98-2.81-2.52-6.31H183.07z
		 M225.7,322.34c0.28,0.98,1.54,1.26,2.24,1.54c0.7,0.7,2.24-0.28,3.51-1.54h2.81v0.28c0,0,0,0.28-0.28,0.98
		c-0.98,1.54-1.54,2.24-2.81,3.23c-0.98,0.28-2.52,1.26-2.81,2.52c0,0.98,0,1.54,0.28,2.24c0.7,1.26,1.26,2.24,2.52,0.56
		c0.7-0.56,0.98-1.26,1.54-1.96c0.7-0.7,6.03-5.47,4.77-1.26c-0.28,1.26-0.98,2.52-1.96,3.79l-1.26,1.26
		c-0.28,0.28-0.28,0.7-0.56,1.26l-0.7,0.98c-0.28,0.98-0.28,1.26,0,1.54l0.28,0.28c0.7,0.28,0.98,0.98,1.26,1.54
		c0,0.28,0,0.28,0,0.28h-8.98c-0.7-0.7-0.98-1.26-1.54-1.54c-1.54-2.24-3.51-6.73-3.79-8.98c0-1.26-0.28-2.24-0.98-2.81
		c-0.7-0.28-1.26,0-1.54,1.26c-0.7,4.77,0.28,9.54,1.26,12.06c0.28,0,0.28,0,0.28,0h-4.49c-0.28-0.98-0.7-1.54-0.28-2.24
		c0.28-1.26-1.68-12.76-2.24-15.57h13.46V322.34z M259.23,322.34c-0.28,0.28-0.28,0.28-0.7,0.56c-1.26,0.98-5.75,4.49-6.03,5.47
		c-0.28,0.98,0,2.24-1.26,2.52c-1.26,0.7-4.49,3.51-5.05,5.47c-0.28,1.26-1.54,2.81-2.52,3.79h-6.03c0.98-0.7,1.96-1.96,3.23-3.51
		c2.24-2.81,4.07-5.47,6.73-7.99c1.54-1.54,2.81-3.51,4.07-5.05c0.28-0.28,0.7-0.7,0.98-1.26L259.23,322.34L259.23,322.34z
		 M279.28,322.34c1.54,3.79,3.23,7.01,3.51,7.99s0.98,1.54,0.98,2.24c0,0.7,0,0.7-0.7,0.98c-0.98,0-1.96,0.28-1.96-1.26
		c0-0.98-0.7-1.26-0.98-1.96l-0.7-0.28c-0.56-0.56-1.26-1.26-1.54-1.96c-0.98-1.54-1.96-2.81-2.81-4.21
		c-0.28-0.56-0.7-0.98-0.98-1.54L279.28,322.34L279.28,322.34z M288.12,322.34c0.28,0.28,0.7,0.56,0.7,0.56
		c1.54,1.26,2.24,2.52,2.52,4.21c0.28,1.26,1.96,7.29,4.77,6.73c2.24-0.56,4.77-7.01,5.75-11.5h3.51c-0.7,1.26-1.26,2.52-1.96,3.79
		c-1.26,2.81-2.52,5.47-2.81,6.73c-1.26,2.81,0.7,3.23,2.24,3.23c0.7,0,1.54-0.7,2.81-1.26c5.47-3.23,11.5-7.01,17.53-8.28
		c8.56-1.54,18.79-0.7,28.61-2.52c1.96-0.28,3.51-0.98,4.77-1.54h26.79c0.7,1.26,0.98,2.24,1.68,3.51c1.26,2.81-2.81,4.49-7.29,5.75
		c-2.24,0.98-2.81,1.26-3.23,1.96c0,0.7,0,0.98,0,1.54v0.28c0,0.7,0.28,0.98,0.28,1.68c0.28,0.98,0.28,2.24,0.28,3.23h-35.34
		c0.98-0.7,2.24-1.26,3.23-1.54c3.51-1.96,9.26-3.51,12.06-3.79c2.81-0.7,7.01-0.7,9.82-0.98c1.54-0.28,2.81-0.28,3.79-0.28
		c1.26-0.28,2.24-0.28,2.81-1.26c0.7-0.56,6.03-6.31,2.52-6.31c-1.54,0-2.81-0.28-3.79-0.98c-1.26-0.28-2.24-0.7-2.81-0.98
		c-0.7-0.28-2.81-1.26-2.52,0.7c0.28,0.7,0.7,1.54,0.7,2.24c0.28,0.7,0.28,0.98-0.28,0.7c-1.26-0.28-2.81-1.54-4.21-1.96
		c-0.98,0-1.26,0.56-0.98,1.54h0.28c0,0.28,0.28,0.56,0,0.98c-0.98,0.7-1.96,0.7-2.81-0.28c-0.7-0.56-2.52-1.54-3.23-1.26
		c-0.98,0-0.28,0.98-0.28,1.26l0.28,0.7c0.7,0.98,0.7,1.54-0.98,1.96c-0.28,0-0.7-0.28-0.7-0.7l-0.28-0.28
		c-0.28-0.7-0.98-1.26-1.96-1.26c-3.51-0.7-5.47,0.98-5.75,1.96c0,1.26,0.28,2.81-1.54,2.52c-1.54-0.28-2.24-1.54-4.07-1.54
		c-1.26,0-2.52-0.28-3.23-0.28c-0.28,0-1.54-0.28-1.54,0.28c0.28,0.7,1.26,1.96,1.54,2.24l0.28,0.28c-0.7,0.28-2.52-1.26-2.81-1.26
		c-0.98-0.56-1.96-1.26-1.96-1.26c-1.26-0.28-4.49-0.98-5.75-0.28c-0.7,0.28-3.79,1.54-2.24,2.52l0.98,0.98
		c0.28,0,0.7,0.28,0.98,0.7c0.28,0.28,0.98,0.98,0.7,0.98c-0.98,0.7-2.81,1.26-3.79,0c-0.7-0.98-1.26-1.54-1.96-2.24
		c-0.28-0.28-1.54-1.26-1.96-0.28c0,0.56-0.7,1.26,0.28,2.24c0.28,0.28,0.98,0.7,1.26,1.26c1.26,1.96-3.79,0.7-4.77-0.7
		c-0.28-0.28-1.96-2.81-2.52-1.54c-0.28,0.28-1.54,0-1.54,0.98c0,0.7,2.52,2.81,3.23,3.51c0.28,0.28,0.98,0.98,0.98,1.26h-2.24
		c-1.26-1.26-2.24-2.52-2.81-3.23c-0.98-0.7-1.68-1.26-2.24-0.28c0,0-0.28,0-0.28,0.28l-0.28,0.28c-0.98,0.7-0.98,1.26,0,2.24
		c0.28,0,0.7,0.28,0.98,0.7h-5.75c-0.28-0.28-0.98-0.98-1.68-0.7c-0.28,0.28-0.56,0.7-0.98,0.7h-7.29c0,0,0,0,0.28-0.28
		c0-0.28,0.28-1.26,0-1.96c-0.28-0.28-1.54-1.26-1.96-1.54c-2.52-1.54-2.81-3.79-2.81-5.75c0-0.7,0-0.98,0-1.26v-0.28
		c0.28-0.98-0.28-1.26-0.98-1.54c-1.68-0.98-2.52-2.52-3.23-5.05h4.21V322.34z M298.64,322.34c0.28,0.28,0.56,0.98,0.28,1.26
		c-0.28,0.7-0.98,1.26-1.26,1.54c-1.26,0.98-2.81,0.98-4.07,0.7c-1.54-0.28-0.7-2.24-0.98-2.81c0-0.28,0-0.28,0-0.56h6.03V322.34z
		 M160.21,340.15c-0.7-1.54-1.26-2.81-1.54-3.79c-0.7-2.24-0.7-3.51-0.28-4.21c0.28-0.28,0.98-1.26,1.54-1.54
		c0.28-0.28,0.7-0.28,0.98,0.98c0.28,2.24,1.26,5.75,1.96,8.56H160.21z"/>
	<path id="XMLID_112_" class="st0" d="M147.16,304.53c-0.28,0.98-0.7,1.54-0.7,2.24c-0.28,1.54-0.98,3.79-2.24,4.77
		c-0.28,0-0.7,0.28-0.98,0.7c-0.28,0.28-0.28,1.26-0.28,4.21c0.28,2.81,0,4.49,0.28,6.03h-8.98c0-0.7,0-1.26,0.28-1.96
		c0-1.26,0-2.24,0.7-3.51c0.28-1.26,0.98-3.23,1.96-5.47c0.7-2.24,1.54-4.49,2.81-7.01H147.16z M163.29,304.53
		c-1.96,4.21-2.81,7.57-4.77,14.31c0,1.26-0.7,2.24-1.26,3.51h-7.85v-0.28c0-1.26,0.28-1.96,1.26-2.81c0.28-0.28,0.98-0.7,1.54-0.98
		c0.28,0,0.7-0.28,1.96-1.96c0.98-1.26,1.96-2.24,3.23-3.23c0.28,0,1.26-0.7,0.98-1.26c-0.7-0.7-3.23,0-4.21,0
		c-1.26,0.28-2.24,0.28-2.52-0.7c-0.28-0.7-0.7-0.98-0.7-1.96c0-0.56,0.28-1.96,0.98-3.79c0.28-0.28,0.28-0.7,0.28-0.98h11.08
		V304.53z M175.07,304.53c0.98,2.81,2.24,6.03,3.51,8.98c1.54,3.51,4.07,8.56,4.07,8.56l0.28,0.28h-6.31
		c-0.98-2.24-1.96-4.77-2.81-7.29c-1.54-4.21-3.23-7.99-4.07-10.52H175.07z M203.12,304.53c0.28,0.28,0.7,0.98,0.98,1.26
		c1.54,1.54,2.81,4.07,5.05,4.49c2.52,0.28,2.52,3.51,3.23,5.47c0.7,2.52,4.49,0,7.29-3.51c1.96-2.24,2.24-4.77,2.52-7.57h3.51
		c-0.28,0.28-0.28,0.28-0.28,0.7c-0.28,0.98-0.98,2.81-1.54,4.77c-0.7,1.54-1.54,3.23-1.54,3.23c0.56,0.7,1.54,2.81,2.24,3.23
		c0.98,0.56,1.68-1.68,1.96-1.96c0.7-0.98,2.24-6.03,3.51-9.82h4.49c0.28,0.98,1.54,0.7,2.52,0.98h0.28c0.7,0.28,0.98,0,1.54-0.98
		h4.21c-0.7,0.98-0.98,1.96-1.26,2.81c-1.96,3.79-2.24,3.51-5.75,4.77c-0.56,0.28-0.98,0.28-1.26,0.98c-0.28,0.28-0.7,0.7-0.98,0.98
		c-0.7,0.28-1.26,0.98-1.96,1.68c-0.28,0.28-0.98,0.7-1.54,0.98c-1.96,1.26-4.07,2.52-4.77,5.05c0,0.28,0,0.7,0.28,0.7h-13.32
		c-0.28,0-0.28-0.28-0.28-0.28c-0.7-0.98-4.77-6.03-7.01-7.99c-1.96-1.96-6.73-5.05-7.29-7.29c0-0.28-0.28-0.98-0.98-1.26
		c0-0.28-0.28-0.7-0.28-0.98h6.45V304.53z M275.36,304.53c0,0.28-0.28,0.28-0.28,0.7c-0.28,1.54-0.28,4.07,0.98,8.84
		c0.98,2.24,1.96,5.47,3.23,8.28h-5.05c-2.24-3.51-1.96-5.75-2.24-10.24c0-0.98,0-2.24,0-2.81c-0.28-0.28-0.28-1.26-1.26-0.56
		c-0.7,0.28-1.54,1.26-2.24,1.96c-0.7,0.7-1.26,0.98-1.26,0.98s-0.28,0.98-0.98,1.96c-0.7,0.98-1.26,2.24-1.26,2.81
		c-0.28,0.56,0.28,2.24,0.7,2.81c0,0,0.7,1.54,0.7,1.96c-0.28,0-0.7,0-1.26,0c-1.26,0-3.79-0.28-4.77,0.28
		c-0.28,0.28-0.7,0.7-0.98,0.98h-6.73c1.26-1.96,3.23-4.21,6.03-6.73c3.23-3.51,7.01-7.29,10.24-11.22L275.36,304.53L275.36,304.53z
		 M282.37,304.53c0,0.7,0,1.26,0,1.54c0.28,3.51,2.52,6.73,2.52,10.24c0,1.96,1.96,4.49,3.23,6.03h-4.21
		c-0.28,0-0.28-0.28-0.28-0.28c-0.28-1.54-0.98-3.51-1.54-5.47c-0.7-1.96-1.26-3.51-1.26-4.49c0-1.54-0.98-5.05-1.26-6.03
		c0-0.7-0.98-1.26-1.54-1.54L282.37,304.53L282.37,304.53z M288.4,304.53c-0.28,0.28-0.98,0.7-1.26,0.7c-0.98,0.28-1.26,0-1.68-0.7
		H288.4z M305.37,304.53c0.28,1.26,0.28,1.96,0.28,3.51c0.28,1.26,0.28,2.24,0.28,2.81c0,0.98,0,1.54,0.28,1.96
		c0.56,0.7,1.54-1.54,1.54-1.96c0.56-1.26,0.98-2.52,1.54-3.51c0.28-0.98,0.7-0.98,0.98-1.26c0.98,0,1.26,0,2.24-0.7
		c0.28,0,0.7-0.28,0.7-0.98h5.47c0,0.7,0,1.26-0.28,1.96c-0.98,3.23-6.45,7.57-8.98,10.52c-1.26,0.98-2.24,1.96-2.52,2.52
		c-0.56,0.56-1.26,1.54-1.54,2.81h-3.51c0.28-0.98,0.7-1.96,0.28-2.52c0-1.54-1.96-1.96-2.81-2.24c-0.28-0.28-0.56-0.28-0.98-0.7
		c-0.98-0.56-0.7-1.26-0.98-2.24c0-0.28-0.28-0.98-1.26-1.96c-1.96-1.96-2.52-4.07-2.24-6.45c0-1.26,0.7-1.26,1.68-1.26h0.56
		c0.7,0.28,0.98,0,0.98,0.98c0.28,0.28,0.28,1.26,0.28,1.96c0,1.54,0.98,3.23,2.52,3.79c1.26,0.56,2.52-1.96,2.24-2.81
		c0-0.98,0-2.52,0.28-4.49h2.95V304.53z M377.32,304.53c1.26,2.24,1.96,2.81,2.24,3.79c0.7,0.98,0.98,1.96,1.68,4.49
		c0.56,3.79,1.26,6.73,2.24,9.54H356.7c8.28-3.23,15.01-8.98,14.31-9.96c-0.28-1.26-7.01,0.28-7.99-1.54
		c-0.98-1.26,4.77-3.51,4.07-5.47c-0.28-0.98-0.98-0.98-1.54-0.7h-0.28c-0.28,0-0.7,0.28-0.98,0c0-0.28,0-0.28,0-0.28h13.04V304.53z
		 M163.01,322.34c0,0,0,0,0-0.28c0.98-1.26,2.24-1.26,2.81,0v0.28H163.01z M169.46,322.34c-0.28-0.98-0.7-1.68-0.28-1.96
		c0.28-1.96,2.24-1.26,2.24-0.28c0,0,0.28,0.98,0.7,2.24H169.46z M231.46,322.34c0.28-0.28,0.98-0.7,0.98-0.98
		c1.26-1.26,1.54,0.28,1.96,0.98H231.46z M292.61,322.34c-0.28-0.7,0-0.98,0.28-1.26c0.28-0.28,0.98-0.28,1.26-0.28
		c0.7,0,1.26,0,1.96,0c0.7,0,0.98,0.28,1.26,0.7h0.28l0.28,0.28c0,0.28,0.28,0.28,0.7,0.7h-6.03V322.34z M287.14,312.52
		c0.28-0.28,0.28-0.56,0.28-0.98c0-1.26,0.98-1.26,1.54-1.54c1.26-0.7,1.96,0,3.23,0.98s0.98,2.81,0.7,4.21
		c-0.28,1.96-3.23,0.98-4.49,0.7C287.14,315.33,287.14,313.79,287.14,312.52z"/>
	<path id="XMLID_124_" class="st0" d="M161.75,287c-0.28,0.28-0.98,0.7-1.54,1.26c-1.26,0.98-2.81,1.96-3.79,2.24
		c-0.98,0-1.96-0.28-2.52,0c-0.98,0-1.96,0.28-2.81,1.96c-0.98,1.26-2.24,5.05-3.23,8.98c-0.28,1.26-0.28,2.24-0.7,3.23h-7.01
		c0.7-0.7,0.98-1.26,1.26-1.96c1.54-3.23,3.23-5.75,4.07-7.01c0.7-1.26,0.7-2.24,0.28-3.23c0-0.28,0-0.98-0.28-1.26
		c-0.28-1.96,0.28-2.81,1.96-3.51c0.98-0.28,1.54-0.7,2.24-0.7H161.75z M169.74,287c0,0.98,0,1.96-0.28,3.23
		c-0.28,2.24,2.52,7.01,3.51,9.26c0.7,0.98,1.26,1.96,1.26,2.52c0.28,0.98,0.56,1.96,0.98,2.52h-5.47c-0.7-1.54-0.98-2.52-1.26-2.52
		l-0.28-0.7c-0.28-0.28-0.7-0.98-1.26-0.7c-0.7,0-1.54,0.7-2.81,2.81c0,0.28-0.28,0.7-0.7,0.98h-11.22c0.7-1.54,1.26-3.79,1.96-5.47
		c0.28-0.98,0.7-1.54,0.98-2.24c0.28-0.28,0.56-0.28,1.26,0c1.54,0.98-0.28,3.79-0.7,5.05c0,1.54,4.21,2.24,4.49,1.26
		c0.28-0.56,0-1.54,0-1.96c-0.7-1.54-0.7-2.81,0.98-3.51l0.28-0.28c0.7-0.28,1.54-0.7,1.96-1.96c0.7-0.98,0.7-2.24,0.7-3.23
		c0-2.81,0.98-3.23,2.52-4.77c0-0.28,0.28-0.7,0.7-0.7h2.38V287z M194.29,287c0,0.7-0.28,1.54-0.28,2.52
		c-0.28,1.96,2.24,2.52,4.21,2.24c0.7-0.28,1.26-0.98,2.24-1.54c0.28-0.98,0.98-1.96,1.96-3.23h3.79c-0.28,0.98-0.98,1.96-1.26,2.52
		c0,0.56-0.7,0.98-1.26,1.26c-0.7,0.28-1.54,0.7-2.24,1.26c-1.54,0.98-2.81,2.24-1.96,5.05c0.98,2.52,0.98,3.79,1.26,4.77
		c0.28,0.7,0.7,1.26,1.54,2.24c0.28,0,0.7,0.28,0.98,0.28h-6.73c-0.28-0.28-0.7-0.7-0.98-0.98c-1.26-2.52-2.24-5.05-2.81-7.57
		c-0.98-1.96-1.54-3.79-2.52-5.75c-0.28,0-0.28,0-0.28-0.28c-0.28-0.28-0.7-1.54-1.26-2.81L194.29,287L194.29,287z M231.46,287
		c-0.7,1.96-1.54,4.77-1.96,6.03c-0.7,1.96-3.23,8.98-3.79,11.5h-3.51c0-1.26,0-2.81,0.28-4.49c0-0.7,0.28-1.26,0.7-2.24
		c0.7-0.98,0.98-2.24,1.54-3.51c0.7-2.24,1.96-4.77,2.81-7.29L231.46,287L231.46,287z M247.44,287c0,0.98-0.28,2.24-0.28,3.51
		c0,0.28-0.7,5.47,0.7,4.49c1.96-1.26,4.49-5.05,6.31-7.99h6.73c-1.26,1.26-2.52,2.52-3.79,3.79c-5.75,5.75-9.54,8.56-12.34,11.5
		c-0.7,0.98-1.26,1.54-1.54,2.24h-4.21c0.7-0.98,0.98-2.24,1.26-2.52l0.7-1.96c0-0.7,0.28-0.98,0.28-1.26
		c0.7-1.26,1.26-2.24,1.54-3.51c0.28-0.98,0.98-5.47,0.98-8.28L247.44,287L247.44,287z M294.85,287c-0.28,0.28-0.28,0.98-0.7,1.54
		c-0.28,0.98-0.28,2.24-0.98,3.23c-0.28,0.28-0.28,0-0.7-0.28v-0.28c-0.28-0.28-0.7-0.7-1.26-0.7c-1.26-0.28-2.24,0.28-2.81,1.54
		c-0.28,0.7-0.98,1.26-1.54,1.96c-0.28,0.7-0.98,0.98-0.98,0.98s-0.7,0.28-1.26,0.98c-0.7,0.7-1.54,1.26-1.96,2.24
		c-0.98,1.26-0.7,4.49-0.28,6.31h-4.49c-0.98-0.28-1.96-0.28-2.52,0h-6.73c2.52-2.52,4.49-4.77,6.45-6.31
		c3.23-2.81,7.57-7.01,12.34-11.22H294.85z M304.67,287c0.28,0.98,0.28,2.52,0.28,3.79c-0.28,4.77-0.28,8.28,0.28,11.22
		c0,1.26,0,1.96,0,2.52h-2.81c0-0.28,0-0.7,0-0.98c0.28-1.96-0.28-4.21-1.26-5.75c-0.7-1.54,0-7.01,0-8.84c0-0.28,0-1.26,0-1.96
		H304.67z M365.12,287c0,0.7,0.56,1.26,0.56,1.96c0.7,1.26,4.21,5.75,5.05,6.73c2.52,3.23,5.05,6.73,6.31,8.98H364
		c-0.7-0.7,1.26-2.24,1.26-3.51c0-1.26-0.7-1.26-1.54-0.98c-1.26,0.28-1.26,0.28-2.24,1.26c-0.28,0.28-0.28,0.28-0.28,0
		c-0.7-0.98,1.26-2.81-0.28-3.79c-0.7-0.7-0.98-0.28-1.54,0.28l-0.28,0.28c-0.7,0.7-1.26,0.98-2.24,1.26
		c-0.7,0.28-1.54,0.28-2.24-0.28l-0.28-0.28c-0.28-0.28-0.56-0.28-0.98-0.7c-0.28-0.28-0.7-0.98-0.98-1.54
		c-0.28-0.7-0.7-1.26-1.96-2.24c-2.24-1.54-0.98-2.24-1.68-4.21c-0.28-1.54,1.96-2.52,3.23-3.23L365.12,287L365.12,287z
		 M229.91,304.53c0.28-1.26,0.56-2.52,0.98-3.23c0.28-2.52,2.81-3.23,4.49-2.81c0.98,0,0.28,1.54,0.28,2.24
		c0,0.7-1.26,2.81-1.26,3.23c0,0.28,0,0.7,0,0.7h-4.49V304.53z M285.59,304.53c-0.28,0-0.28-0.7-0.56-0.98c0-0.7-0.28-3.23,0-3.79
		c0-0.28,0-0.28,0.28-0.28c0.28-0.28,0.28-0.28,0.28-0.56c0.7-0.98,1.96-0.98,3.51-0.7c1.96,0.28,1.54,2.52,1.26,3.79
		c0,1.26-0.7,2.24-1.96,2.52L285.59,304.53L285.59,304.53z M313.36,304.53c1.26-1.54,1.54-4.77,1.54-6.03
		c0.28-1.96-1.54-0.7-2.24-0.98c-0.28,0-0.28,0-0.28-0.7c0-0.28,0.28-0.98,0.28-2.24s0.7-1.54,0.98-1.96
		c0.98-0.7,1.54-0.98,2.52-1.54c0.7-0.7,1.26-0.28,1.54,0.98c0.28,1.26,0.7,2.52,0.98,3.79c0.28,2.81,0.7,5.75,0,8.56h-5.33V304.53z
		"/>
	<path id="XMLID_134_" class="st0" d="M179.28,269.18c-0.28,0.28-0.56,0.7-0.56,0.98c-0.28,0-0.28,0.28-0.28,0.98
		c-0.7,1.54-1.26,2.81-2.52,4.49c-0.98,0.98-1.26,1.26-1.96,2.24c-0.28,0.7-0.98,1.54-1.96,3.23c-1.26,1.54-1.68,3.23-1.96,4.77
		c0,0.28,0,0.7-0.28,1.26h-2.52c0.28-0.7,0.7-1.54-0.28-2.24c-0.7-0.7-1.96,0-2.81,0.28c-0.98,0.7-1.54,1.26-1.54,1.26
		s-0.28,0.28-0.7,0.7h-12.06c0.56-0.28,1.54-0.28,2.24-0.7c2.81-0.7,4.49-0.7,6.45-3.51c1.96-2.52,6.31-4.77,8.56-5.47
		c2.24-0.7,4.07-1.96,6.31-4.49c0.7-0.98,1.54-2.24,2.81-3.79H179.28z M189.52,269.18c0,0.28-0.28,0.7-0.28,0.98
		c0,0.28,0,0.28,0,0.28c0,0.28-0.28,0.98-0.7,1.54c0,0.98,0.7,1.26,2.81,0.98c1.96-0.28,3.51-1.26,5.47-2.24
		c1.26-0.7,2.52-0.98,3.51-1.96l4.77,0.28c0,0.28,0.28,0.7,0.28,0.98c0.28,1.54-2.52,3.23-4.49,3.51c-0.98,0-1.26,0-1.96,0
		s-0.98,0-1.54,0.28c-1.26,0.98-2.52,1.54-4.07,2.24c-1.54,0.28-1.96,0-3.23,1.54c-1.26,1.54,0.28,4.07,1.96,4.07
		c0.7,0,2.24-0.98,3.51-1.54c0.56-0.56,2.52-1.54,3.51-1.54c1.54-0.28,3.79,0.7,6.31,2.52c1.54,1.26,1.26,3.51,0.7,5.75h-3.79
		c0-0.28,0-0.28,0-0.28c1.96-2.81,0.28-2.81-1.54-4.21c-1.26-0.28-1.54-0.7-2.24-0.7c-0.28,0.28-0.7,0.28-0.7,0.28
		c-1.26,0.98-2.24,1.26-2.81,2.81c-0.28,0.7-0.7,0.98-0.7,0.98s0,0.28,0,0.98h-5.75c-1.26-5.05-2.81-14.31-3.23-16.27
		c0-0.7,0-1.26,0-1.96L189.52,269.18z M249.97,269.18c-0.28,0.98-0.28,1.96-0.28,2.81c0,0-0.28,2.52-0.56,5.47
		c-0.28,2.81-0.98,6.03-0.98,6.73c-0.28,0.28-0.28,1.54-0.56,2.81h-3.79c0-0.28,0-0.7,0-0.7c0-3.23,1.26-7.57,2.24-10.8
		c0.7-1.54,0.28-2.52,0-3.23c-0.28-0.28-0.7-0.7-0.98-0.7l-0.7-0.28c-0.7-0.7-1.26-1.26-2.52-0.7c-0.28,0.28-0.7,0.98-0.98,1.26
		c-0.7,0.7-2.81,1.68-3.79,1.96c-0.7,0.28-1.54,0.98-2.24,1.54s-1.26,0.98-1.26,0.98s1.54,2.24,2.24,3.51
		c0.7,1.26,0.28,1.96-0.98,2.81c-1.26,0.98-1.96,1.26-2.52,2.52c0,0.28-0.28,0.98-0.56,1.54h-3.79c0-0.7,0.28-0.98,0.28-1.26
		c0.7-2.24,0.98-4.77,1.54-7.29c0.28-2.24,1.26-4.49,2.52-5.75c1.96-1.26,3.23-2.52,4.77-3.79L249.97,269.18z M260.49,269.18h-0.28
		c-0.98,0.28-1.26,0.28-2.24,0.28c-0.28,0-0.98,0-1.54,0c-0.7,0.28-1.26,0-1.54-0.28H260.49z M279.84,269.18
		c-2.81,1.96-5.05,3.79-6.31,5.05c-2.81,2.81-7.99,7.99-12.76,12.76h-6.73c0.28-0.7,0.98-1.26,1.26-1.96
		c0.7-0.98,1.26-1.96,1.54-2.24c1.54-1.96,6.03-6.45,7.01-6.73c0.98-0.7,5.47-3.51,7.29-6.03c0.28-0.28,0.7-0.7,1.26-1.26
		L279.84,269.18z M317.71,269.18c-3.51,1.96-6.73,4.07-9.54,6.73c-1.26,1.26-2.52,2.81-3.23,4.77c-0.7,1.26-0.7,2.81-0.28,4.49
		c0,0.7,0,1.26,0,1.96h-3.51c0-1.26-0.28-2.24-0.98-1.96c-0.28,0.28-0.7,0.28-0.7,0.7l-0.28,0.28c-0.28,0.28-0.56,0.28-0.98,0
		c-0.28-0.7-0.7-0.98-0.98-1.54c-0.98-1.26-1.54,0.98-1.96,1.54c-0.28,0.28-0.28,0.7-0.7,0.98h-7.29
		c8.56-7.57,17.53-15.29,19.78-16.55l2.52-1.26h8.13V269.18z M360.35,269.18c-1.26,1.54-3.79,5.47-0.28,5.75
		c1.54,0.28,2.81,0.7,3.79,0.28c1.26,0,2.24-0.28,3.23-0.98c0.28-0.7,0.7-0.7,0.98-0.98c0.56,0,0.98,0,1.26-0.28
		c0.28-0.7,0.28-1.54-0.28-3.79h11.5c0.28,0,0.7,0.28,0.98,0.7c0.98,0.98,0.98,1.54,0.7,2.24v0.7c-0.28,0.7-0.28,0.98,0,1.68
		c0.98,1.26,1.54,0.56,2.24,0l0.7-0.7c0.56-0.7,1.26-0.7,2.52-0.7c0.7,0,1.54,0,2.81-0.28c2.24-0.7,2.24-1.96,1.96-3.51
		c0,0,0,0,0-0.28l4.21,0.28c-0.7,1.26-1.68,2.81-2.81,4.07c-2.81,2.52-10.52,9.26-12.06,9.82c-1.54,0.7-9.54,1.26-13.75,1.54
		c-2.24,0.28-2.81,0.7-2.81,1.54c0,0.28,0,0.28,0.28,0.7H352.5c0.28-0.28,0.28-0.7,0.56-0.98c0.28-0.98-1.96-3.51-3.23-3.23
		c-0.7,0.28-1.26,0.28-1.26-0.7c0-0.28,0.56-1.26,1.26-1.96c0.28-0.28,2.24-2.52,1.26-2.81c-0.7-0.28-2.24,0.56-2.81,0.98
		c-0.7,0.28-1.54-2.81-1.96-3.51c0,0,0.28-0.28,0.56-0.98c0.98-0.98,3.51-2.24,4.21-3.51c0.7-0.56,0.7-0.98,0.7-1.54L360.35,269.18z
		 M385.18,269.18c0,0,0,0.28,0.28,0.28c0.28,1.26,0,1.54-0.98,1.54c-0.28,0.28-1.26-1.54-1.26-1.54c0-0.28,0-0.28-0.28-0.28H385.18z
		 M371.85,270.73c-0.56,0.98-1.26,2.52,0,2.81c1.96,0.7,2.52,0.98,0.98,2.81c-0.28,0.28-0.7,0.7-0.98,0.98
		c-0.98,0.98-1.26,1.26,0.28,2.24c1.54,0.56,1.96,0.98,3.51-0.28c1.96-0.98,2.24-0.98,2.52-3.51c0-0.28,0.28-0.98,0.28-1.26
		c0.98-1.54,1.54-2.52-0.28-3.51c-2.81-1.26-3.23-1.54-4.21-1.26c-0.28,0-0.56,0-1.26,0.28c-0.28,0-0.7,0-0.7,0
		S371.85,270.45,371.85,270.73z"/>
	<path id="XMLID_142_" class="st0" d="M195.55,251.37c0,0.28,0,0.7-0.28,0.7c0,0.7-0.28,1.26-0.28,1.96c0,0.28-0.28,0.7-0.7,0.98
		c-1.26,0.98-4.21,4.49-3.51,6.31c0.28,2.24,4.49,1.96,5.05,0.28c0.7-1.26,3.79-3.23,7.01-4.77c2.24-1.26,8.56-3.51,13.75-5.47
		h12.34c-4.77,1.68-11.08,4.77-18.51,6.73c-6.73,1.54-7.29,1.54-7.57,1.54c0,0-0.28,0-0.28,0.28h-0.28c-0.7,0.7-0.7,0.98-0.98,1.54
		c0,0.28,0.28,0.98,0,1.26c-0.28,0.98,1.54,0.98,1.96,0.98c1.26,0,2.52,0,3.79,0.56c0.98,0.28,0.7,0.28,0,0.98
		c-0.56,0.28-1.54,0.7-2.24,1.26c-0.98,0.28-0.7,0.7-0.28,1.26c0,0.28,0.28,0.7,0.7,1.26h-4.77c0.28-0.28,0.7-0.7,0.98-1.26
		c0.7-0.7,0.28-1.54-0.7-1.96c-0.7-0.7-1.54-0.98-2.52-1.68c-1.54-0.98-2.52-0.28-3.79,0.28c-1.96,1.26-3.79,2.24-4.77,4.49h-4.21
		c0-1.54,0.28-2.52,0.28-3.23c0-0.98-0.28-1.68-1.54-1.26c-1.68,0.28-3.79,2.81-4.77,4.49h-3.37c2.52-3.79,6.03-8.98,6.73-10.52
		c0.7-0.7,1.96-1.26,3.23-1.54c0.7-0.28,2.24-0.7,2.81-0.98c0.7-0.7,1.26-1.54,1.96-2.52c0.28-0.56,0.7-1.96-0.28-2.24
		c-0.28,0-0.28,0-0.28,0h5.33V251.37z M263.01,251.37c-0.28,0.28-0.7,0.28-1.26,0.7c-0.98,0.7-1.26,0.98-1.96,1.26
		c-0.98,0.28-2.24,0.7-5.05,1.54c-5.75,1.96-2.52,2.52-3.79,4.21c-0.7,0.56-2.24,2.24-3.51,3.79c-0.28,0.7-2.24,3.23-1.26,3.79
		c0.98,0.7,2.81-0.56,4.77-1.96c0.98-0.7,2.24-1.54,3.23-2.24c0.98-0.7,1.96-1.26,2.81-1.54c1.54-0.98,4.49-1.26,6.31-1.54
		c2.52-0.28,5.75-0.98,8.98-1.96c2.81-0.98,5.47-3.23,7.57-5.47c0.28-0.28,0.7-0.28,0.98-0.7h24.54c-2.24,1.26-4.77,2.52-5.75,3.23
		c-3.23,2.24-12.76,9.26-19.78,14.59h-7.29c0.7-0.98,1.54-1.96,2.81-2.52c1.54-1.26,3.23-2.52,4.07-3.51
		c0.98-0.7,2.24-1.54,3.51-2.24c2.52-1.26,5.05-2.24,7.57-3.79c0.7-0.7,1.26-1.26,2.24-1.96c1.26-0.56,1.54-1.26,0.7-2.52
		c-0.7-0.7-0.7-0.98-1.54-0.7c-0.28,0-0.98,0.28-1.96,0.98c-1.96,0.56-3.23,1.26-5.75,1.96c-2.52,0.98-7.29,3.51-9.54,4.77
		c-0.98,0.7-2.24,1.26-3.79,1.96c-1.26,0.7-2.52,0.98-3.23,1.54c-0.98,0.7-2.81,0.98-4.77,1.26c-1.96,0-4.21,0-4.21,0
		s0.98,1.96,1.68,3.51c0.28,0.7,0.28,0.98,0,1.26h-5.75c-0.7-0.7-0.7-1.26-0.98-1.54c-0.98-1.96-2.24-0.7-3.23,0
		c-0.28,0.28-0.7,0.98-0.7,1.54h-13.04c4.77-4.49,8.56-8.56,10.52-10.8c2.52-2.81,0.28-4.49-0.7-4.49
		c-0.28-0.28-0.98-1.26-0.98-2.52h17.53V251.37z M317.15,251.37c-0.98,0.28-1.96,0.98-2.52,1.68c-0.28,0.28-0.98,0.98-1.26,1.96
		c-0.7,0.7-1.26,1.54-1.96,2.24c0,0.28-1.96,2.81-2.52,1.96c-0.7-1.68,0.98-5.75,1.54-7.71h6.73V251.37z M359.09,251.37
		L359.09,251.37c-0.28,0.7-0.28,1.96,0.7,5.47c1.96,6.45,2.52,9.54,0.98,11.78c0,0-0.28,0.28-0.28,0.7h-8.84
		c-0.28-0.7-0.98-1.26-1.96-1.54c-0.7,0-0.98,0-1.54-0.28c-1.54,0-3.23-0.28-4.77-1.54c-1.96-2.24-7.29-3.51-9.82-3.51
		s-5.47,1.26-11.5,4.49c-1.54,0.98-2.81,1.68-4.21,2.52h-7.99l7.01-4.21c2.24-1.26,5.75-3.23,8.28-3.51
		c1.54-0.28,2.24-0.98,1.26-1.54c-0.7-0.7-1.96-1.26-2.81-1.54c-2.24-0.7-2.81-0.7-4.77,0c-1.26,0.7-1.54-0.28-0.98-2.24
		c0.7-2.24,7.99-1.26,9.54-1.54c0.7,0,0.98-0.28,0.98-0.7c0-0.28-0.28-0.98-0.7-1.26c-0.7-0.7-1.54-0.98-2.52-1.26h33.94V251.37z
		 M372.83,251.37c0,0.7,0.98,1.68,1.26,1.96c0.7,0.7,1.68,1.54,2.24,2.81c0.98,2.24,0.7,3.23-0.56,5.05
		c-0.28,0.28-0.7,0.98-0.98,1.26c-0.28,0.28-0.7,0.7-0.7,1.26c-0.28,0.28,0,0.56,0.28,0.56c0.28,0.28,1.96-0.28,2.24-0.56
		c0.98-0.28,2.52-0.98,3.51-0.28c0.7,0.28,0.98,0.98,2.24,1.26c1.54,0.98,2.24,2.52,2.81,4.49h-2.24c-0.28-0.98-0.98-2.24-1.96-2.81
		c-0.7-0.98-0.98-1.26-1.96-0.98c-1.54,0.28-2.24,0.7-0.98,1.96c0.98,0.7,1.54,1.26,2.24,1.96h-11.5c0-0.7,0-1.26-0.28-2.24
		c-0.98-3.79-1.96-6.73-2.81-9.26c-0.28-0.98-1.54-3.51-1.54-4.77c0-0.7,0-1.26-0.28-1.68L372.83,251.37L372.83,251.37z
		 M396.68,251.37c-0.28,2.52-2.52,4.21-4.49,5.05c-2.52,0.98-1.26,2.52,0,4.21c1.26,1.54,3.23,3.51,4.21,5.47
		c0.56,0.56,0.56,1.96,0,3.23h-4.21c-0.28-3.23-1.26-7.29-4.49-8.28c-0.98-0.28-1.26-0.7-2.24,0l-0.28,0.28
		c-0.28,0.28-0.7,0.28-0.98,0.7c-1.54,0.98-2.81-0.98-3.51-2.81c-0.28-1.96-0.28-2.24,0.98-2.24c1.54-0.28,2.24-0.98,1.54-2.52
		l-0.28-1.26c0-0.28,0-0.7-0.28-1.68h14.03V251.37z M344.78,255.58v0.28c0,0.28,0,0.28,0,0.7c0,0.7,1.26,2.24,4.07,4.49
		c2.24,1.96,2.24,1.96,3.23,4.49c0.98,2.81,1.96,1.26,3.23,0c1.54-1.26,1.26-5.47,0.28-8.98c-0.28-1.96-0.98-2.81-1.54-3.23
		c-0.7,0-0.98-0.28-1.54-0.28c-0.7,0-1.26,0-2.24,0c-1.96,0-3.51,0-4.77,1.26C345.06,254.6,344.78,255.16,344.78,255.58z"/>
	<path id="XMLID_147_" class="st0" d="M205.37,233.56c-0.56,0.28-0.98,0.7-1.26,1.54c-0.28,0.7-0.28,1.26-0.28,1.96
		c0.28,0.56,0.28,1.54,0,2.81c-0.28,1.54,0.98,1.54,2.24,1.26c1.54-0.28,3.51-0.98,5.05-0.7c1.26,0,1.54,0,1.96-0.56l0.28-0.28
		c0.28-0.7,0.7-1.26,1.26-1.54c1.26-0.28,2.52-0.28,4.07,0.28c1.54,0.28,3.23,0.98,4.49,0.98c3.23-0.28,8.28-2.81,11.5-3.79
		c1.96-0.28,1.54-0.98,0.28-1.54c0-0.28,0-0.28,0-0.28h38.15c-2.81,0.98-6.03,1.54-10.24,2.24c-2.81,0.28-4.21,0.7-4.49,0.7
		c0-0.28,0-0.28-0.28-0.28s-0.28,0.28-0.28,0.28c-1.26,0.28-1.54,1.26-1.54,2.52c0.28,1.26,0.7,2.81,0.28,4.77
		c0,1.68-0.28,2.52-0.28,3.23c0,0.56,0.28,1.26,1.26,1.54c0.98,0.7,2.81-0.28,4.77-1.54c1.96-1.26,4.49-3.23,6.31-4.49
		c4.21-2.24,5.47-2.81,11.5-2.81c2.81,0,4.49,0,6.03-0.7c1.54-0.28,3.51-1.26,7.01-2.52c3.51-1.26,5.05-2.24,6.31-2.81h37.31
		c0.28,0.98,0.98,1.54,1.96,2.52c3.79,3.79,6.73,3.79,19.07,2.24c6.03-0.7,8.98,0.28,10.52,1.96c1.54,1.54,1.96,3.79,2.81,5.47
		c2.24,3.51,5.05,0,7.57-0.7c2.52-0.98,3.23,0.7,5.05,1.54c0.98,0.7,1.26,0.7,2.24,0.7c0.7-0.28,1.54-0.7,3.79-1.26
		c4.77-0.98,5.75,0.98,6.73,4.21c0,0.28,0,0.98,0,1.26h-14.03c0,0,0,0,0-0.28c-0.7-1.96-1.96-3.23-3.23-2.81
		c-0.98,0.28-0.98,0.98-1.54,1.54c-0.28,0.98-1.54,0.98-2.52,0.98c-0.7-0.28-1.26-0.28-2.24,0c0,0,0,0-0.28,0.28v0.28h-8.98
		c-0.7-1.26-2.24-1.54-3.51-0.98c0,0,0,0-0.28,0.28l-0.28,0.28c-0.28,0-0.7,0-0.7,0.28h-34.08c-0.7-0.28-1.26-0.28-2.24-0.28
		c-2.52,0-4.07,0-5.75,0.28h-6.73c0,0,0.28,0,0.28-0.28c0-0.7,0-1.26-0.98-1.26c-0.98,0-2.81,0.7-4.49,1.54H280.4
		c0.28-0.28,0.28-0.28,0.7-0.28c1.26-0.98,5.75-0.98,7.57-1.26c0.98-0.28,1.26-0.28,1.96-0.56c0.7-0.28,1.26-0.98,2.52-1.68
		c2.24-1.54,5.75,1.26,8.56,0.98c2.52-0.7,4.77-1.54,4.77-4.49c0.28-1.54,0.7-1.96,0.98-1.96h0.56c0,0,0.7-0.28,0.98-0.28
		c1.26-0.28,3.23-2.24,3.79-3.79c0-0.7-0.28-0.7-0.7-0.98c-1.54-0.28-4.49,0-6.03,0.28c-1.26,0-1.54,1.26-2.24,2.24
		c-0.7,0.98-3.23,1.54-4.49,0.28c-0.7-0.7-1.96-0.7-3.23,0c-1.26,0.28-2.52,1.26-4.07,1.96c-1.68,0.7-3.79,1.26-6.03,1.96
		c-2.24,0.28-4.21,0.98-5.05,0.98c-1.96,0.7-4.07,0.7-6.03,0.98c-2.52,0.28-3.23,1.54-3.51,2.81c-0.28,1.26-2.52,1.54-3.51,0.98
		c-0.7-0.7-1.54,0-2.81,0.7c-0.98,0.28-1.96,0.7-2.52,1.26h-17.25c-0.28-0.56-0.28-1.54-0.28-2.24c0.28-1.26-0.28-1.68-0.98-1.96
		c-0.98,0-2.24,0.28-3.23,0.28c-2.52,0.7-5.05,1.96-10.24,3.23c-0.7,0-1.26,0.28-2.24,0.56h-12.34c2.81-0.98,5.47-1.54,6.73-1.96
		c2.24-0.7,4.07-0.98,6.03-1.26c1.96-0.7,3.51-1.26,4.77-1.96c2.52-1.96,5.47-2.52,8.28-3.79c0.98-0.7,2.52-0.7,3.79-0.7
		c1.54,0,2.81,0.28,4.49,0c3.23-0.7,1.26-5.05,0.28-6.73c-0.98-2.24-5.75,0.7-6.73,1.96c-0.7,1.26-2.24,2.24-5.05,1.54
		c-3.23-0.98-3.79-0.7-4.77,0.56c-0.56,0.7-1.54,0.98-3.23,1.26c-1.26,0.28-2.81,0.28-4.49,0.7c-2.52,0.98-12.06,3.79-16.27,4.77
		c-1.26,0-1.96,0-2.52,0c-0.7,0-1.26,0-1.96,0c-1.26,0-2.52,0.28-5.75,1.96c-2.81,1.26-4.21,2.52-4.77,3.51h-4.77
		c-0.56-0.28-0.98-0.56-0.56-0.98c0-0.98,0.28-2.24,0.56-4.49c0.28-4.07,2.81-4.49,7.01-5.47c1.54-0.28,4.07-3.23,2.24-5.75
		c-0.28-0.28-0.7-0.98-0.98-1.26L205.37,233.56L205.37,233.56z M356.84,233.56c-0.28,0-0.7,0.28-0.98,0.28c-1.26,0-2.24,0-3.51-0.28
		H356.84z M323.18,245.62c0.28-0.28,1.26-1.26,1.54-1.54c0.28-0.7,0.7-1.96,0.7-2.52c0.28-1.54,0.28-2.24,0-2.81
		c0-0.28-0.28-0.28-0.7-0.7c-0.28,0-0.7-0.28-1.26-0.7c-2.52-1.26-6.03,2.81-5.75,4.77C318.13,244.08,320.94,247.87,323.18,245.62z
		 M345.06,245.06c0.28,0.28,0.98,0.98,1.26,0.7c0,0,0.98-0.28,1.54-0.28c1.96,0,1.26,0.98,1.96,1.54c0.28,0.28,0.7,0.28,1.96,0.28
		c2.52,0,4.21,0.28,7.01,0.7c2.52,0,4.21,0.28,6.03,0.7c0.98,0,1.96-0.28,2.52-0.7c0.7-0.28,0.7-1.26,0-2.24
		c-0.28-0.28-0.7-0.7-0.98-0.98c0-0.28-0.28-0.7-0.7-0.98c-0.28-0.28-1.26-0.56-2.81-0.56c-1.96,0-3.23,0-4.49,0
		c-0.7,0-2.24,0-2.81-0.7c-0.28,0-0.28-0.28-0.28-0.28c-0.28,0-0.7,0-2.24,0s-2.52,0-3.23,0.28c-1.26,0-2.52,0-3.79-0.28h-0.7
		c-0.98-0.28-0.98,0-0.98,0.98C344.5,243.66,344.78,244.36,345.06,245.06z"/>
	<path id="XMLID_151_" class="st0" d="M184.61,215.75c-0.28,0.28-0.28,0.7-0.56,0.98c-0.28,0.98,0.56,1.26,3.51,0.98
		c1.96,0,3.23-0.7,4.49-0.7c0.98-0.28,1.96-0.28,2.24,0.28c0.7,0.98,0.98,1.54,1.26,2.52c0,0.7,0.28,1.54,0.28,1.96
		c0,0.98,2.24,0.98,4.49,0.7c2.24-0.28,7.01-0.28,7.57,0c0.98,0.56,0.7,2.24,0.7,2.81c0.28,1.26,2.24,4.21,6.03,2.24
		c3.51-1.96,7.29-3.79,7.99-5.05c0.7-1.26,0.28-1.96,0-2.24h-0.28c-0.28-0.7,0.28-1.54,0.56-1.96l0.28-0.28
		c0.28-0.28,0.28-0.7,0.7-1.54c0-0.28,0-0.28,0-0.7h3.51c0.7,0.98,0.7,1.96-0.98,3.51c-1.54,1.26-1.96,6.45,1.54,7.01
		c1.54,0.56,3.23,0.28,4.49,0c1.26-0.28,2.52-0.7,3.51-0.98c0.7,0,1.26,0,2.24,0c1.96,0.28,6.73,1.54,8.28,0
		c1.54-1.54,2.24-1.96,6.03-1.96c1.96,0.28,2.81,0,3.51-0.28c0.28,0,0.7-0.28,0.98-0.28c0.7-0.28,0.98-0.7,1.54-0.98
		c1.26-0.98,2.81-1.54,3.79-2.24c1.26-0.7,1.96-0.98,2.52-0.7c1.26,0.7-1.54,2.24-0.28,2.81c1.26,0.7,11.78-0.28,12.76-1.96
		c0.7-1.26-0.28-2.81,0-4.07h10.52c0,0.28,0,0.7,0,0.98c-0.28,1.54-2.81,1.26-3.51,3.23c0,0.98-0.7,5.05,1.26,4.77
		c0.98-0.28,1.68,0,2.24-0.28c1.96-0.28,2.81-1.96,4.49-2.52c0.98-0.28,2.52-0.28,3.51-0.28c3.51-0.7,6.03-2.24,5.47-5.05
		c-0.28,0-0.28-0.28-0.28-0.7h7.01c0.28,0.98,0.56,2.24,0.98,3.51c1.54,3.79,6.03,5.75,9.26,7.99c1.26,0.98,2.24,0.98,2.24,0
		c0.28-0.98-0.28-2.81-0.28-3.51c-0.56-2.81-0.28-3.79-0.56-6.03c0-1.26-0.28-1.54-0.98-1.54c0,0-0.28,0-0.7,0h-0.28
		c-0.7,0.28-0.98,0-0.98,0.98l-0.28,0.28c0,0.7-0.28,1.26-0.98,1.54c-0.28,0-0.98,0.7-1.26,0.7c-0.28,0-0.56-0.98-1.54-3.23
		c0-0.28,0-0.28,0-0.7h13.75c0,1.96,0.28,3.23,1.26,3.79c4.49,4.07,7.29,0,8.56-2.52c0.28-0.28,0.28-0.56,0.7-1.26h2.81
		c-0.7,1.96-1.26,3.23-2.24,4.49c-0.7,0.98-0.7,1.54-0.98,2.24c0,0.56,0.28,1.26,0.28,1.54s0,0.28,0.28,0.28
		c0.28,0.28,0.98,0.28,1.26,0.28c0.28,0,0.28,0,0.7,0c0.7,0,1.54-0.98,2.24-1.26c0.98-0.28,2.24-4.49,2.81-7.57h24.83
		c-0.28,0.7-0.56,0.98-0.98,1.26c-0.28,0.28-0.98,0.28-1.54,0.28c-0.98,0.28-1.96,0.28-2.81,0.28c-2.24,0.28-4.77,0.98-7.01,2.24
		c-1.96,1.26-2.52,2.24-2.52,3.51c0,0.98,0.56,1.54,0.56,2.52c-0.28,2.24,4.49,0.98,9.26-1.96c5.05-2.52,3.79,6.03,9.54,5.47
		c2.81-0.28,3.79,0,3.79,0.28c0.28,0.7-0.28,2.24-0.28,2.52c-0.28,0.98-0.98,1.26-2.24,0.7c-1.26-0.28-3.23-0.98-5.75-1.54
		c-4.49-0.98-7.99,1.26-11.78,2.24h-4.49c-3.23-0.7-6.03-3.23-6.03-4.49c0-1.54,1.26-5.05-1.26-5.75c-1.26-0.7-1.54,0-2.24,0.56
		c-1.26,1.68-2.52,2.52-4.49,3.23c-3.79,2.24-3.79,3.79-1.54,6.31h-37.31c0.98-0.7,1.54-0.98,2.52-2.24
		c0.28-0.28,0.98-0.98,1.26-1.26l1.26-0.98c0.7-0.7,0.98-1.26,1.68-2.24c0.56-1.54,0.56-4.49-0.98-4.49s-2.24,0.98-2.24,2.24
		c0,1.26-1.96,2.52-3.51,1.96c-0.7-0.28-0.98-0.98-0.98-1.54c-0.28-0.28-0.28-0.98-0.98-0.7c-0.56,0.28-1.96,1.26-3.51,1.96
		c-1.96,0.98-4.07,1.96-7.01,2.24c-3.23,0.7-4.21,0.7-4.77,0.7c-0.98,0.28-1.96,0.98-2.81,1.68c-1.54,0.98-3.51,1.96-6.31,2.81
		h-38.43c-1.26-0.7-3.51-1.26-5.75-2.52c-5.05-2.24-5.75-2.52-8.28-1.54c-6.73,2.52-13.75,3.51-15.01,3.79
		c-0.28,0.28-0.7,0.28-0.7,0.28h-7.01c-1.26-0.98-3.23-2.24-5.05-3.23c-2.52-1.26-5.05-2.52-7.01-3.79
		c-3.51-2.24-6.03-3.51-7.99-4.77c-1.96-1.26-3.23-2.52-4.49-5.05c0-0.28-0.28-0.7-0.28-0.98L184.61,215.75L184.61,215.75z
		 M389.38,215.75c0,0.28,0,0.28,0,0.28c-0.98,1.54-3.51,0.98-5.75-0.28H389.38z M348.01,226.27c0,1.54,0.28,3.23,0.98,3.79
		c1.26,1.26,2.81,2.52,4.77,2.52c0.56-0.28,1.96,0,2.81,0c0.7,0,1.96-0.28,1.96-1.26c-0.28-0.28,0-0.56,0-1.26
		c0.28-0.28,0-0.56-0.98-0.98c-0.98,0-2.52,0.28-3.51,0.28c-0.98,0.28-1.96,0-1.96-0.7c0-0.28,0-0.28-0.28-0.7
		c-0.28-0.98-0.28-1.26-0.28-2.52c0.98-2.24,1.26-4.21,0.98-5.05c0-0.98-0.7-1.54-1.26-1.26c-1.26,0.7-2.52,1.96-3.23,3.51v0.28
		C348.01,223.04,348.01,224.58,348.01,226.27z"/>
	<path id="XMLID_158_" class="st0" d="M186.29,197.93c0.28,0.7,0.28,1.26,0.56,2.24c0.28,1.26,0.28,2.52,0,3.23
		c-0.28,0.28-0.56,0.98-1.26,1.26s-0.98,0.28-1.26,0c-0.98-0.98-1.26-2.52-1.96-3.79c-0.56-0.7-3.51-2.24-4.07-0.7
		c-0.7,0.98,0.28,2.81,0.7,4.21c0.28,1.96-0.28,2.24-1.26,3.79c-0.7,0.98-0.98,1.96-0.7,3.51c1.26,2.81,3.51,2.81,5.75,2.52
		c1.26,0,2.24,0,2.52,0c0.7,0,0.28,0.7,0,0.7l-0.28,0.56c-0.28,0-0.28,0.28-0.28,0.7l-11.08-0.28c-1.96-3.79-1.54-5.47,1.26-7.99
		c3.23-2.52,1.96-4.07,0-5.05c-0.28,0-0.98-0.28-1.26-0.7c-0.98-0.28-1.96-0.7-1.54-2.24c0-0.7,0-1.26,0.28-1.96H186.29z
		 M226.69,197.93c-0.56,0-0.98,0-1.26,0c-1.54,0-5.05,3.79-1.54,6.03c1.54,1.26,3.23,1.54,4.49,1.54c0.7,0,2.24-0.28,2.81,0
		c1.26,0.56,1.96,2.81,1.54,4.07c0,0.98-1.54,1.26-1.96,0.98c0-0.98-5.05-1.26-5.75-0.7c-0.28,0.7-0.7,0.98-0.98,1.54
		c-0.28,1.96,2.24,2.81,3.23,4.21h-3.51c0-1.96-1.54-2.24-1.96-3.79c-0.98-2.24-1.26-3.79-1.54-6.31c0-2.52,1.54-5.75-1.54-7.29
		c0-0.28-0.28-0.28-0.28-0.28L226.69,197.93L226.69,197.93z M333.7,197.93c-1.26,1.96-2.52,3.51-3.51,5.05
		c-2.81,4.77-4.07,9.54-4.07,12.76h-13.75c-0.28-1.54,0-2.24,0.7-2.81c0.28-0.28,0.28-0.7,0.28-0.7c0.98-0.98,0.56-1.96,0.56-2.81
		c-0.56-1.54-0.98-2.24-1.54-2.52l-0.28-0.28c-0.28,0-0.28-0.28-0.7-0.7c0-1.26,2.81,0.28,2.81,0.28c0.7,0.28,0.98,0.7,0.98,1.26
		l0.28,0.28c0.28,0.28,0.28,0.98,1.26,0.98c0.98,0.28,0.98-1.26,0.98-1.96c0.28-0.98,0.28-2.24,0.98-3.51
		c0.28-1.26,0.28-1.96-0.28-2.24c-0.7-0.7-1.96-0.7-2.81-0.98c-1.68-0.28-2.24,0-3.23,0.98c-0.98,0.98-2.24,2.52-3.79,2.52
		c-1.54,0-4.07-1.96-5.75,0c-0.28,0.28-0.28,0.7,0,0.98c0,0.28,0,0.98,0.28,1.96c0,1.54,1.26,2.24,2.52,3.51
		c1.26,1.26,1.54,2.81,1.96,4.49c0.28,0.28,0.28,0.98,0.28,1.26h-7.01c-0.28-0.98-0.56-2.24-0.98-3.51
		c-0.7-1.26-0.98-2.52-0.98-3.23c0-2.24,0.7-4.07,0.98-6.03c0.28-0.7,0.7-1.54,0.98-2.24c0-0.28,0-0.98-0.28-1.26
		c-0.7-0.56-2.24-2.24-3.23-0.56c-0.28,0.56-0.98,1.96-1.54,2.52c-0.7,0.98-0.98,1.26-1.54,0.98c-1.26-1.26-2.81-2.24-3.79-3.51
		c-0.98-0.98-2.52-0.7-3.51-0.28c-1.26,0.28-2.52,0.28-3.23-0.7L333.7,197.93L333.7,197.93z M382.09,197.93
		c0,0.98-0.28,1.54-0.28,2.24c0,2.52,0.28,3.79,2.24,5.75c1.26,1.26,2.24,1.26,2.81,0.7c0.7-0.7,1.26-2.52,1.54-3.51
		c0.7-2.52,1.26-3.51,4.77-5.05h4.77c0.28,0.7,0.28,1.26,0.28,1.96s-0.7,0.98-0.98,1.26l-0.7,0.28c-0.98,0.7-1.96,1.26-2.24,2.81
		c-1.26,5.05-3.51,8.98-5.05,11.5h-5.61c-1.26-0.28-2.52-1.26-3.23-1.96c-0.7-0.28-1.26-1.26-1.54-2.52
		c-0.28-1.26-0.28-2.52-0.7-4.07c-0.7-2.81-0.98-5.75-2.81-6.03c-2.24,0-2.81,1.26-3.51,2.81c-0.28,1.54,0,3.79-0.28,5.75
		c-0.28,2.52-1.54,4.77-2.81,6.03h-24.83c0,0,0,0,0-0.28c0.7-2.81,2.24-5.05,3.79-6.73c0.28-0.7,0.7-0.98,0.98-0.98
		c0.98-0.56,1.96-0.98,2.24-2.24c0-0.7-0.98-0.98-1.54-1.26c-0.98,0-2.24,0-3.23,0c-2.52,0.28-2.81,2.52-4.21,3.79
		c-0.98,0.7-1.26,1.54-1.54,2.81c0,0.98-0.28,2.24-0.7,3.51c0,0.7-0.28,0.98-0.28,1.26h-2.81c0.7-0.98,0.98-2.81,1.54-4.49
		c0.7-1.54,1.26-3.79,1.96-5.47c1.54-2.81,6.31-5.05,9.54-4.49c3.51,0.28,5.47,3.51,5.47,7.57c0,4.49,4.21,3.79,7.57,2.52
		c3.79-1.26,3.79-3.79,3.51-8.28c0-2.24,0.7-4.07,1.54-5.47h14.31V197.93z M277.32,215.75c0.28-0.28,0.7-0.98,1.26-1.26
		c2.81-0.98,3.23,0.28,5.47,0.28c0.7,0,3.23,0,3.79,0.98H277.32z M379.85,204.95c-0.28,0.7-0.28,2.24-0.28,2.81
		c0.28,1.96,0.7,2.52,1.96,4.21l0.98,0.7c0.7,0.7,0.98,0.98,1.96,1.26c1.26,0.28,1.96-0.28,2.24-2.24c0.28-0.98-0.56-1.54-1.26-1.96
		c-0.98-0.28-1.54-0.98-2.24-1.96c-1.26-2.24-2.24-3.23-2.81-3.51C380.13,204.25,379.85,204.53,379.85,204.95z"/>
	<path id="XMLID_166_" class="st0" d="M164.69,180.4c0,0.7,0.7,1.26,2.24,1.68c3.51,0.28,5.47,0.28,7.57,0.28
		c0.98,0,1.26,0.28,1.96,0.98c0.28,0.7,0.98,0.98,2.24,0.7c0.56-0.28,1.54-0.98,2.24-1.26c0.7-0.28,0.7-0.56,1.26-0.28
		c0.7,0.28,1.96,1.96,0.7,2.52c-1.96,0.98-4.07,1.96-5.47,1.96c-0.98,0-1.54-0.28-2.24-0.28c-0.28,0-0.98,0.7-0.7,1.26
		c0,0.28,0,1.96,0.28,3.23c0,1.54,0.28,2.81,1.54,3.23c2.24,0.98,6.03,0.98,7.01,0.7c1.26-0.28,2.24-0.7,2.52,1.26
		c0,0.28,0.28,1.26,0.28,1.96h-14.03c0-2.52,0-5.47,0-7.99c0-3.23-0.98-3.79-4.49-4.49c-3.51-0.28-5.75,0-8.28-3.23
		c-0.28-0.28-0.28-1.26,0-1.96h5.33V180.4z M220.09,180.4c-1.26,1.96-2.24,3.51-3.23,4.77c-1.26,1.96-2.24,3.23-2.24,3.51
		c0,0,0,0-0.28,0.28l-0.28,0.98c-1.26,1.96-2.24,4.77,1.96,4.07c2.52-0.28,4.21-0.56,4.77-0.56c0.98-0.28,1.54,0,2.24,0.28
		c0.98,0.7,1.26,0.98,1.96,0.98c0.7,0.28,0.7,0,1.26-0.28c0.98-0.7,1.26-1.96,1.54-2.81c0.28-0.7,1.26-0.7,1.26,0.28
		c0,0.28,0,0.7,0,1.26v1.54c0,2.24-0.98,2.81-2.24,3.23h-8.28c-1.26-0.56-2.24-0.56-3.23-0.98c-0.56,0-0.98,0-1.54,0
		c-4.07-0.98-4.77-4.07-2.81-7.99c0.98-1.26,3.23-5.05,5.47-8.56L220.09,180.4L220.09,180.4z M240.43,180.4
		c0.28,0.7,0.7,0.7,0.98,0.98c0.7,0,0.28,1.54-0.98,1.26c-0.98-0.28-1.54-0.28-2.24-0.98c-0.28-0.28-0.28-0.98-0.56-1.26H240.43z
		 M286.3,180.4c0.7,0.98,1.26,2.52,2.52,2.52c0.98,0.28,2.24,1.26,2.81-0.28c0.28-0.98,0.7-1.54,1.26-2.24h27.35
		c-0.7,1.26-0.98,2.24-0.28,2.81c0.98,1.26,1.26,2.52,2.81,0.7c0.7-0.28,0.98-0.7,0.98-0.98l0.56-0.28c0.7-0.56,0.98-1.26,1.26-2.24
		h11.22c0.56,0.98,1.26,1.68,1.96,1.96c0.7,0.28,1.26-0.28,1.54-1.26c0-0.28,0-0.7,0-0.7h3.79c0,0.28-0.28,0.28-0.28,0.7
		c-0.98,3.51-3.23,7.01-5.75,10.8c-1.54,1.96-2.81,4.21-4.49,6.03h-49.93c-0.98-1.54-2.81-4.07-2.24-6.03
		c0.28-1.96,5.05-2.24,5.75-4.49c0.56-2.24-1.96-2.81-1.96-5.05c0,0,0-0.98,0-1.96H286.3z M367.78,197.93
		c0.98-1.54,2.52-2.52,4.49-3.79c3.23-2.24,9.82,0.7,9.82,3.23c0,0.28,0,0.56,0,0.56H367.78z M393.17,197.93h0.28
		c2.24-0.98,3.79-0.56,4.49,0H393.17z M289.8,191.76c-0.28,0.7,0.28,0.98,0.7,1.26c0.56,0.28,1.54,0.28,2.52,0.28
		c0.7,0,1.26-0.28,1.96-0.7c0.28,0,0.28,0,0.7,0.28c0,0.28,0,0.7,0.28,0.98c0.7,0.28,1.26,0.28,1.96,0.28
		c1.96,0.28,3.51-0.7,5.47-2.24c0.7-0.7,1.26-0.98,2.24-0.28h0.28c0.98,0.7,1.54,0.98,2.52,0.7c0.7,0,0.98-0.28,0.98-0.28
		c0.28-0.98,0.7-1.96,0.98-3.23c0-0.7,0.28-1.54-0.7-1.54c-1.26-0.28-1.96,0.28-2.81,0.98c-0.28,0.28-1.26,0.98-1.96,0.98
		c-0.28,0.28-2.24-1.54-1.54-2.81c0.98-0.98,5.47-0.56,6.73-2.24c0.7-0.7,0.28-0.98-0.28-1.26c-1.26-0.28-2.81-0.28-4.21-0.28
		c-1.54-0.28-2.52,0-3.51,0.28c-0.28,0-0.7,0.28-0.7,0.28c-1.26,0.98-2.24,1.26-3.51,1.96c-2.52,0.7-4.07,0.98-6.03,2.81
		c-0.28,0.28-0.28,0.28-0.28,0.28S290.08,190.64,289.8,191.76z"/>
	<path id="XMLID_175_" class="st0" d="M185.59,158.1c-0.28,0.28-0.98,0.98-1.54,1.54c-1.68,1.26-3.51,3.23-5.47,5.05
		c-4.21,3.79-7.99,7.99-11.78,11.78c-0.98,0.98-2.24,2.52-2.24,3.79h-5.05c0.7-1.54,2.24-3.79,4.49-5.75
		c3.23-3.23,7.01-6.31,8.56-7.99c0.98-0.98,2.52-2.52,4.49-4.21c1.68-1.26,2.81-2.81,4.49-4.49h4.07V158.1z M205.37,158.1
		c0,0.28,0.28,0.7,0.7,1.26c0.98,1.96,4.77,3.23,4.77,4.07c0.28,0.98-0.56,2.24-2.24,2.24c-0.98,0-3.23,0-5.75-0.28
		c-2.52,0-5.05,0-6.31,0.7c-2.81,1.26-2.52,3.23-1.26,3.79c0.98,0.28,1.54,0.98,1.96,1.54c0.28,0.28,0.28,0.98-1.96,0.7
		c-1.54,0-3.51-0.7-3.51-4.77c-0.28-1.96,0.28-3.79,0.28-5.75c0.28-1.26,0.28-2.52,0-3.51H205.37z M228.93,158.1
		c-0.28,1.26-0.28,2.81-0.28,4.21c0,1.26,0,3.23-0.28,4.49c-0.56,1.96-3.79,7.29-7.01,12.06c-0.28,0.7-0.56,0.98-1.26,1.54h-3.79
		c2.52-3.79,5.47-7.99,6.73-10.24c2.81-4.49,2.81-4.77,2.81-9.54c0.28-0.98,0.28-1.54,0.28-2.52H228.93z M256,158.1
		c3.23,1.96,4.77,3.79,4.77,4.49c0,0.98,0.28,2.52-0.98,1.54c-1.26-0.98-3.51-3.51-8.28-4.07c-4.49-0.7-7.99-0.28-9.26-0.28
		c-1.54,0.28-3.51,1.26-3.51,2.52c0.28,0.98,0.7,2.81,2.24,2.52c1.54-0.28,5.47-0.98,7.01-0.28c1.54,0.7,1.54,1.96,1.54,3.23
		c0,1.26,0.7,2.52,2.52,3.23c1.96,0.7,3.51,1.54,3.23,2.52c0,1.26-0.98,2.52-3.79,2.81c-2.81,0.28-6.73,0-8.98,0.7
		c-2.24,0.98-2.24,1.26-2.24,2.52c0,0.28,0,0.7,0,0.98h-2.81c0-0.98-0.28-1.96-0.7-2.52c-0.7-0.7-1.96,0.28-2.24-0.7
		c-0.28-1.26,0-1.96,0.7-1.96c1.26,0.28,1.26-1.96,0.28-2.52c-0.7-0.98-3.23-0.7-3.23-2.52c-0.28-1.54,0-8.56,0.28-9.54
		c0.28-0.28,0.7-1.54,1.96-2.52H256V158.1z M315.19,158.1v0.98c0,0.28,0,0.28,0.28,0.98c0.28,0.56,0.98,1.96,1.96,0.56
		c0.28-0.56,0.7-1.54,0.7-2.24v-0.28h2.52c-0.28,0.7-0.28,0.98-0.28,1.54c0,1.26-0.28,1.26-0.98,2.24c-0.28,0.7-0.28,1.26-0.7,1.96
		v0.28c-0.28,0,0,0.28,0,0.28v0.7c0,0.28,0,0.28,0.28,0.56h0.28c0,0,0.28-0.28,0.56-0.56c0.7-0.98,1.26-1.96,2.24-2.52
		c0.98-1.26,0.98-2.81,0.7-4.49h4.49c-0.98,0.28-1.54,1.26-1.54,2.24l-0.28,0.28c0,0.28-0.28,0.98-0.28,1.26
		c-0.28,0.98-0.98,2.81,0.28,3.51c1.26,0.98,4.77,5.05,5.47,6.31c0.56,1.26,3.79,2.52,4.49,1.26c0.56-1.26,1.54-5.47,0-7.01
		c-0.7-0.98-0.7-1.26-0.7-1.54c0-0.28,0-0.7-0.28-0.98c-0.98-4.07-3.79-0.28-3.79-2.52c-0.28-1.26-0.56-2.52-1.26-2.81h15.01
		c0.7,1.96,1.26,4.49,1.54,7.29c0.28,3.79,0.28,6.03,0,8.28c-0.28,1.96-0.98,3.79-1.54,6.73h-3.79c0-0.98,0-1.26,0-1.96
		c-0.28-0.7-0.28-0.98,0-1.54c0-0.7,0.28-0.98,0.7-1.26c0.28-0.28,0.7-0.98,1.26-1.26c0.56-0.98,0.56-1.54,0-2.52
		c-0.28-0.56-1.26-3.51-2.24-2.52c-0.28,0-0.98,0.28-1.26,0.28c-0.28,0-0.7,0-0.7,0c-0.98,0.98-0.98,2.24-0.98,3.23
		c0.28,2.24-1.54,5.05-0.28,7.29v0.28h-11.22c0-0.28,0-0.56,0-0.98c0.28-1.54,0.7-1.96,0.7-2.52c0.28-0.7,0-1.26,0-2.81
		c-0.28-0.98-0.28-1.54-0.28-2.24c-0.28-1.54-0.7-2.52-2.24-2.81c-2.24-0.56-3.23-0.56-4.21,0l-0.28,0.28h-0.28v0.28
		c-0.98,0.7-0.98,2.81-0.56,3.51c0,0.98,0.28,1.54,1.26,1.26c1.26,0,3.79-1.54,2.52,1.54c-0.28,1.54-1.26,2.81-1.96,4.49h-27.35
		c0.28-0.28,0.7-0.56,1.26-0.98c1.26-1.26,3.51-2.24,5.47-2.81c0.7,0,0.98,0,1.54-0.28c1.26,0,2.52-0.28,2.24-2.24
		c0-2.24-0.28-3.79-2.81-3.51c-1.26,0.28-2.52,1.26-3.79,1.96c-0.98,0.7-2.24,1.26-2.81,0.98c-0.56,0-1.26-0.28-1.96-0.56
		c-0.28-0.28-0.28-0.7,0.28-0.7c1.96-0.7,5.05-1.96,6.73-2.81c1.54-0.7,4.07-0.28,5.75,0c0.98,0,2.52,0.7,3.79,0.7
		c1.26,0.28,2.81,0,2.24-1.54c0-0.7-0.28-0.98-0.28-1.54c-0.7-1.26-0.98-1.96-2.81-1.96c-0.28,0-4.77-0.28-4.49-1.26
		c0.7-0.98,2.24-1.26,4.77-1.26c0.98,0.28,2.24,0.56,3.23,0.56c0.98,0,1.54-0.28,1.26-1.26c-0.28-1.96-2.24-3.23-4.07-2.81
		c-0.98,0-1.96,0.28-2.52,0.28c-0.7,0-0.98-0.28-1.26-0.98h10.24V158.1z M285.31,180.4c0-0.56,0-1.26,0.28-1.26c0,0,0,0,0,0.28
		c0.28,0.28,0.28,0.7,0.7,0.98H285.31z M198.35,159.36c-0.98,0.28-1.54,0.7-1.96,1.96c0,0.98,1.26,2.52,2.52,2.52
		c0.98-0.28,2.24-0.28,2.52-1.54c0-0.98-0.28-2.24-0.98-2.52C199.9,159.64,199.34,159.36,198.35,159.36z M241.69,171.15
		c-0.28,0.56-1.54,2.24,0,2.81c1.54,0.56,1.54,0.28,2.52,0.28c0.98,0,2.24-0.7,1.96-1.54c0-1.26,0-1.54-0.98-1.96
		C244.22,170.86,241.97,170.86,241.69,171.15z"/>
	<path id="XMLID_183_" class="st0" d="M203.4,135.8c-3.23,2.81-5.75,5.47-7.01,6.45c-0.7,0.56-1.26,0.98-1.54,1.54
		c-0.7,0.28-0.98,0.98-1.26,1.26c-0.98,1.26,1.96,0.98,2.52,0.98c4.49,0,10.52,0.28,12.76,2.81c1.26,1.54,2.24,2.81,3.23,3.79
		c0.28,0.28,0.7,0.7,0.7,0.98c0.7,1.54-2.52,0.98-3.23,0.28c-0.7-1.26-0.98-2.24-2.52-2.81c-1.54-0.28-7.57-2.24-8.56-0.98
		c-0.7,1.26-1.26,2.52,1.54,4.77c0.7,0.7,1.26,0.98,1.54,1.26c0.7,0,1.26,0.28,1.54,0.28c0.7,0,1.26,0.28,2.24,1.54h-13.32
		c0-0.28-0.28-0.7-0.28-0.7c-0.98-0.98-1.26-1.26-1.96-1.26s-1.26,0.28-1.96,0.7c-0.7,0-1.26,0.56-2.24,1.26h-4.21
		c0.7-0.7,1.26-1.54,1.96-2.24c1.96-2.52,3.51-5.47,4.49-7.99c1.54-3.23,6.31-7.99,10.8-12.06h4.77V135.8z M243.24,135.8
		c-1.54,1.96-2.81,3.79-3.51,5.05c-1.26,2.81-2.81,5.47-4.77,7.57c-1.54,2.24-5.05,6.03-5.75,8.84c0,0-0.28,0.28-0.28,0.7h-2.81
		c0.56-2.81,1.96-5.05,6.03-11.08c5.75-7.57,5.47-7.99,7.57-11.22c0,0,0,0,0.28,0h3.23V135.8z M275.78,135.8
		c0.28,0.28,1.26,1.26,1.68,1.54c1.96,1.96,5.47,4.49,8.56,3.23c1.96-0.56,3.51-1.26,5.47-1.96c0.98-0.28,2.24-0.28,3.23-0.7
		c0.28,0,3.51-0.28,3.51-1.26c0,0-0.28-0.28-0.28-0.98h7.99c0.98,1.26,3.23,1.96,4.49,2.52c0.28,0,0.56,0,0.56-0.28
		c0.28-0.28,0-1.54-0.28-2.24h2.52c0.28,0.7,0.7,1.54,0.98,2.24c0.7,2.24,2.24,4.77,2.52,7.01c0.28,2.52,1.54,0.7,3.51,1.26
		c0.28,0.28,0.7,0.28,0.7,0.7l-0.28,0.28c-0.28,0.28-0.28,0.7-0.28,0.98c-0.28,0.98,0.28,1.54,0.98,2.24
		c0.28,0.28,1.54,1.26,1.54,1.96c-0.28,0.28-1.96-0.7-2.24-0.7c-0.98-0.28-2.52-0.7-4.49-0.28c-1.26,0.28-1.26,1.26-1.26,2.52
		c0.28,1.26,0.7,2.24,0.7,3.51v0.7h-10.8c-0.28-0.98-1.96-2.24-2.52-3.23c-0.28-0.28-1.54-1.54-0.98-1.96
		c1.26-1.26,3.51-0.28,5.05,0c1.54,0.7,4.21-0.28,3.23-1.96c-1.54-3.51-4.49-2.81-7.57-3.23c-0.28,0-2.24,0-2.24-0.7
		c0-0.28,0-0.7,0.28-0.7c0.28,0,0.7,0,1.26,0c0.7,0,1.96,0,2.24-1.26c0.98-1.96,1.96-3.23-1.26-4.21c-0.28,0-0.7-0.28-0.98-0.28
		c-0.98-0.28-2.24-1.26-3.23-0.98c-0.28,0-0.28,0-0.56,0l-0.98,0.28c-0.28,0-0.98,0-1.26,0.28c-0.7,0.28-0.28,2.24-0.7,2.81
		c-0.7,2.81-12.76,1.96-12.76,1.96c-3.51-0.7-10.8-7.57-10.52-8.98c0-0.28,0-0.28,0-0.7h4.49V135.8z M319.4,135.8
		c0.28,0.98,0.98,1.54,0.98,2.24c0,0.28,0,0.98,0.28,1.26c0.28,0.7,1.26,2.52,0.98,2.81c-0.98-0.28-1.26-0.7-1.54-0.98
		c-0.56-0.7-0.98-1.54-1.54-2.24c-0.7-1.26-1.26-2.24-1.96-2.81c0,0-0.28,0-0.28-0.28H319.4z M333.28,135.8
		c0.7,1.26,1.26,2.52,1.26,2.81c0.28,1.26,1.26,2.24,2.24,3.23c1.96,2.24,3.51,3.51,4.07,6.73c0,1.26,0.28,2.24,0.7,3.51
		c0.7,1.26,1.26,2.81,2.24,5.05c0,0.28,0,0.7,0.28,0.98h-15.01c-0.28-0.28-0.98-0.28-1.54,0c-0.28,0-0.28,0-0.28,0h-4.49
		c0-0.98-0.28-1.96-0.7-2.81c-0.28-1.54,0-1.54,1.26-1.54c0.98,0.28,2.52,1.26,3.79,0.98c0.7,0,0.7-0.28,0.7-0.98
		c-0.28-0.7-0.28-1.54-0.7-2.52c0-1.26-1.26-2.24-2.24-2.81c-0.7-0.56-1.26-0.98-1.26-1.54c0-0.28,0-0.28,0.28-0.28
		c0.28,0,0.7,0,1.26,0.28c0.98,0.28,2.24,0.98,3.51,0.98c2.52,0.56,1.96-3.79,1.96-5.05c0-0.7-0.28-1.26-0.98-1.26
		c-0.7-0.28-1.96,0-2.81,0c-1.26,0-1.96-0.28-1.96-0.7c0,0,0-0.28,0-0.56c-0.28-0.28-0.28-0.7-0.28-1.26c0-0.7,0-1.54,0-2.52v-0.28
		h8.7V135.8z M234.68,158.1c0.98-0.7,1.96-1.26,3.51-1.54c4.21-1.54,8.28-2.81,14.03-0.28c1.54,0.7,2.81,1.26,3.79,1.96h-21.32
		V158.1z M318.13,158.1c0.28-1.26,0.7-1.96,1.96-1.96c0.7-0.28,0.7,0,0.7,0.7c0,0.28,0,0.98,0,1.26H318.13z"/>
	<path id="XMLID_191_" class="st0" d="M198.64,135.8c2.81-2.52,6.03-5.05,7.99-6.73c2.24-1.96,4.07-3.51,5.05-4.49
		c3.79-4.21,10.24-8.28,15.57-9.82c5.75-1.54,18.51-1.96,29.03-0.7c1.54,0.28,2.52-0.28,3.23-1.26c0.98-1.26,1.54-2.52,2.81-3.51
		c2.24-2.24,3.79-2.52,9.54-2.24c2.81,0.28,3.79,0.56,4.49,0.98c0.7,0.28,0.98,0.7,1.26,1.26c0.28,0.28,0.98,0.98,1.96,1.54
		c3.23,2.81,8.56,2.52,12.48,2.24c3.51,0,3.51,0.28,6.03,2.24c1.26,0.98,2.52,1.68,4.07,1.96c4.21,0.7,8.28,0,11.78,1.96
		c1.26,0.7,2.52,1.54,3.51,2.52c1.26,0.98,3.23,1.96,4.77,2.81c1.96,0.98,3.79,2.24,4.77,2.81c1.26,1.54,4.49,5.33,6.31,8.28h-8.56
		c0-0.98-0.28-1.96-0.98-3.51c-1.26-2.81-4.21-6.45-7.71-7.57c-1.54-0.7-2.81-0.7-3.79-0.98c-1.26-0.28-2.24-0.28-3.51-0.98
		c-2.24-0.98-4.21-1.26-6.73-1.26c-1.26,0-1.54-0.28-1.96-0.28l-0.28,0.28c0,0-0.28,0-0.28,0.28c0.28,0.98,2.24,1.54,2.81,1.96
		c0,0,0.98,0.28,0.98,0.7c-0.28,0-0.28,0-0.28,0.28c0,3.23,4.21,2.52,4.21,4.07c-0.28,0.28-0.98,1.26-1.26,1.96
		c-0.28,0.56-0.7,0.56-0.98,0.56h-0.7c0-0.28,0-0.28-0.28-0.28c-0.7,0-1.26,0.28-1.26,1.26c0.28,0.98,1.96,2.24,2.52,3.23
		c0,0,0,0.28,0.28,0.28h-7.99c-0.56-0.7-1.26-1.54-1.54-1.96l1.26-1.26c0.28-0.28,0.7-0.7,0.7-0.7c0-0.28,0.28-0.7,0.7-0.98
		c0.98-0.98,2.24-2.52,0.56-3.79c-1.54-1.96-4.07-3.23-6.31-3.51c-0.7,0-0.98,0-1.54,0c-0.98-0.28-2.24-0.28-2.52-1.54
		c-0.7-1.54-2.81-3.79-5.47-2.24c-1.26,0.7-2.24,1.26-3.23,1.96c0,0.28-1.26,0.98-1.54,0.7c-0.28-0.28-0.28-0.28-0.28-0.7
		c0-0.28,0-0.98,0-2.24c0-0.98,0.28-1.54,0.7-1.96l0.28-0.28c0-0.28,0.28-0.7,0-0.7c-0.98-0.7-2.81-0.28-2.81-1.54
		c0.28-0.7,0.7-0.98,1.26-1.26l0.28-0.28c0.98-0.98,0.28-1.26-0.7-1.26c-0.98-0.28-1.96-0.28-2.81,0c-0.7,0-1.26,0.28-1.54-0.28
		c-0.28-0.28-0.7-0.7-0.7-0.98l-0.28-0.28c-0.7-1.26-1.68-1.54-3.23-1.26c-2.24,0.28-3.51,1.54-5.05,3.23
		c-0.7,0.98-1.26,1.54-2.24,2.81c-1.96,2.24-3.51,4.49-4.21,6.03c-0.56,0.7-1.26,2.52,0.7,2.24c1.26-0.28,2.81-0.98,3.79-1.26
		c0.7-0.28,1.54-0.7,1.54,0.56c-0.28,0.98-0.56,2.24-0.98,3.51c-0.7,0.98-0.98,1.96-0.98,1.96c0,0.7-0.98,0.98-1.54,0.98
		c-1.26,0.28-3.23-0.7-4.77-0.98c-0.28-0.28-0.98-0.28-1.26-0.56c-2.24-0.28-3.79,0-5.47,1.96c-0.98,1.26-2.81,3.23-4.49,5.47
		c-0.28,0.28-0.28,0.28-0.7,0.7h-3.23c0.7-0.98,1.54-2.24,2.24-3.23s1.26-1.54,1.54-1.96c0.7-0.7,0.98-1.26,0.98-1.96
		s-0.7-0.98-1.26-0.7c-1.54,0.7-5.05,1.54-9.82,1.96c-2.24,0.28-4.21,0-5.75-0.28c-1.96-0.28-3.23-0.7-3.79-0.98
		c-0.98,0-1.96,0-2.81,0c-0.56,0-1.96,0-2.81,0c-0.28,0-0.98-0.28-1.26-0.28c-0.28-0.28-0.7-0.56-0.98-0.56
		c-0.98-0.28-1.54-0.28-3.23,0.28c-1.96,0.98-6.03,4.49-9.54,7.57L198.64,135.8L198.64,135.8z M271.01,135.8
		c0.28-0.7,0.98-0.98,2.81-0.28c0.28,0,1.26,0,1.54,0.28c0,0,0,0,0.28,0H271.01z M310.42,135.8v-0.28
		c-0.28-0.98-1.54-1.96-1.54-2.81c0,0,0,0,0.28,0.28c0.28,0.28,0.98,0.7,1.96,1.26c0.98,0.7,1.26,0.98,1.54,1.26
		c0,0.28,0,0.28,0.28,0.28L310.42,135.8L310.42,135.8z M316.17,135.8c-0.28-0.7-0.56-0.98-0.98-1.54c-0.28-0.28-0.7-0.7-0.98-1.26
		c-0.28-0.28-2.24-1.96-2.24-2.24c0,0,0,0,0.28,0c1.54,0,3.79,0.28,4.49,1.54c0.7,0.98,1.96,2.24,2.52,3.51H316.17z M226.41,118.69
		c-0.98,0.28-1.96,0.56-2.81,1.26c-0.28,0.28,0,0.7,0.28,0.98c0.56,0.7,2.81,0.7,3.79,0.7c1.26,0-0.28,3.23-1.26,4.21
		c0,0-1.26,0.98-0.98,1.54c0.98,0.7,4.77,0.28,6.03,0.28c0.98,0,1.96,0,2.24-0.28c0-0.28,1.26-0.28,1.54-0.7
		c0.28,0,1.54,0,1.26-0.98c-0.28-0.28-0.28-0.98-0.7-1.26c0-0.28-0.56-1.96-0.28-2.24l0.28-0.28c0.28-0.28,0.7-0.7,0.98-0.98
		c0.7-0.56,0.98-1.26,1.54-1.54c1.26-1.26-1.26-1.26-1.96-1.26c0,0-0.28,0-0.98-0.28c-0.98-0.28-1.96-0.56-2.81-0.28
		c-1.54,0.28-2.52,0.28-3.51,0.28c-0.7,0-0.98,0-1.26,0C227.39,117.99,226.97,118.27,226.41,118.69z M242.25,120.23
		c-0.28,0.98-0.7,1.54-0.98,2.24c-0.28,0.98-1.54,3.79,0.7,2.81c0.28,0,0.98-0.28,1.54-0.28c0.98,0,2.52,0,3.51-0.98
		c0,0,0.28-0.28,0.28-0.7v-0.28c0.28-0.98,1.54-2.52,1.96-3.23c0.28-0.98,0.7-1.54-0.28-1.96c-0.28-0.28-0.7-0.7-0.98-0.7
		l-0.28-0.28c0-0.28,0-0.28,0-0.7c-0.28-0.98-1.26-0.7-2.24-0.28C243.94,116.73,243.52,117.01,242.25,120.23z M265.26,131.03
		c0.7-1.54,1.26-2.24,2.81-3.23c2.81-1.26,3.51-2.24,7.01-2.52c3.23,0,5.47,2.52,3.51,2.81c-1.26,0-2.52,0-3.79,0
		c-2.52,0-3.23,1.26-4.77,2.81c-0.7,0.98-2.24,2.81-3.51,1.96c-0.28-0.28-0.56-0.28-0.98-0.28c-0.28,0-0.98,0-1.26-0.28l0.28-0.28
		C264.84,131.73,264.84,131.31,265.26,131.03z"/>
	<path id="XMLID_192_" class="st0" d="M271.57,41.27h-2.24c-0.28-1.26-1.54-5.05-2.52-6.31c-0.28-0.7-0.98-1.26-1.54-1.54
		c-0.7-0.28-1.54-0.28-2.81-0.7h-4.07l-0.28,12.06h2.52c0.98,0,1.54,0,1.96-0.7c0.7-0.28,0.98-1.26,1.26-2.81l0.7-2.52l1.54,0.28
		l-0.7,14.59h-1.26l-0.7-2.52c-0.28-1.54-0.56-2.52-0.98-2.81c-0.7-0.56-1.26-0.98-2.24-0.98l-2.24-0.28l-0.28,9.82
		c-0.28,1.26-0.28,2.24-0.28,2.52c0.28,0.7,0.28,0.98,0.28,1.26c0.28,0,0.7,0.28,0.98,0.7c0.28,0.28,0.7,0.28,0.98,0.28l1.96,0.28
		v1.96l-13.32-0.28v-1.96l1.26-0.28c1.26,0,1.96-0.28,2.24-0.98c0-0.28,0.28-1.54,0.28-3.51l0.7-20.06c0.28-1.26,0.28-1.96,0-2.52
		c0-0.28,0-0.7,0-0.98c-0.28-0.7-0.98-0.98-1.96-0.98l-1.54-0.28l0.28-1.96l22.02,0.7V41.27z"/>
	<path id="XMLID_193_" class="st0" d="M312.94,44.77c0.28-1.26,0.28-2.24,0.7-2.52c0-0.28,0-0.7,0-0.98
		c-0.28-0.56-0.7-1.26-1.54-1.54l-1.26-0.7l0.28-1.96l12.34,3.51l-0.28,1.96h-1.68c-0.98-0.28-1.54,0-1.96,0.28
		c-0.7,0.28-0.98,1.68-1.54,3.51l-5.47,19.07c-0.28,0.7-0.98,2.52-0.7,3.51c0.28,0.56,0.7,0.98,1.54,1.54l1.26,0.7l-0.7,1.54
		l-12.34-3.51l0.7-1.96l1.26,0.28c1.26,0,1.96,0,2.24-0.28c0.28-0.56,0.98-1.54,1.26-3.51L312.94,44.77z"/>
	<path id="XMLID_194_" class="st0" d="M377.6,78.86l-1.54-0.98c0.28-0.98,0.28-1.54,0.7-2.52c0.28-1.54,0.28-2.52,0.56-3.23
		c0-0.98,0-1.54-0.28-1.96c-0.28-1.26-1.26-2.24-2.81-3.23l-3.79-2.52l-6.73,10.24l2.24,1.26c0.98,0.7,1.68,0.7,2.24,0.7
		c0.56-0.28,1.26-0.98,2.52-1.96l1.54-1.96l1.54,0.98l-7.99,12.34l-1.26-0.7c0.28-1.26,1.54-4.07,1.26-5.75
		c0-0.7-0.56-1.26-1.26-1.96l-1.96-0.98l-7.57,12.06l3.51,2.24c1.96,0.98,3.23,1.54,4.49,1.26c1.26-0.28,2.81-0.98,4.49-2.52
		l3.51-2.52l1.54,0.98l-7.01,9.82l-19.78-12.06l1.26-1.96l1.26,0.56c0.98,0.28,1.54,0.7,1.96,0.28c0.7-0.28,1.26-1.26,2.52-2.81
		l10.52-16.83c0.7-1.26,0.98-1.96,1.26-2.24c0-0.28,0.28-0.98,0.28-0.98c0-0.7-0.28-1.26-1.26-2.24l-0.98-0.7l0.98-1.54l19.5,11.78
		L377.6,78.86z"/>
	<path id="XMLID_195_" class="st0" d="M415.47,106.49c0.56-0.98,1.26-1.68,1.54-1.96c0.28-0.28,0.7-0.7,0.7-0.98
		c0.28-0.7,0-1.26-0.7-2.24l-0.56-0.98l1.54-1.26l8.56,9.54l-1.54,1.26l-0.98-0.98c-0.98-0.7-1.54-0.98-2.24-0.7
		c-0.28,0-1.26,0.7-2.81,1.96l-14.59,13.32c-0.7,0.7-2.24,1.96-2.52,2.81c-0.28,0.28,0,1.26,0.56,1.96l0.7,1.26l-1.26,1.26
		l-8.98-9.54l1.54-1.26l0.98,0.98c0.98,0.7,1.54,0.7,2.24,0.7c0.28,0,1.54-0.98,2.81-2.24L415.47,106.49z"/>
	<path id="XMLID_196_" class="st0" d="M436.23,140.85l-1.26-1.54c1.26-1.26,3.51-3.79,4.49-5.47c0.98-2.52,0.7-4.77-0.98-7.01
		c-1.26-1.96-2.81-2.81-5.05-2.81c-1.54-0.28-3.23,0-4.49,0.7c-5.47,1.96-13.04,7.01-15.57,12.06c-0.28,1.68-0.56,2.81-0.56,4.21
		c0,2.81,1.96,5.47,4.77,6.31c1.96,0.7,4.07,0.98,6.45,0.98l-0.98,2.81c-2.24-0.28-4.49-0.7-6.73-1.54
		c-1.54-0.7-2.81-1.96-4.07-3.79c-1.96-2.24-2.81-5.05-3.23-7.57c-0.28-5.05,2.52-9.82,8.56-14.31c4.77-3.51,9.26-5.05,13.04-4.77
		c3.79,0.7,7.01,2.52,9.82,6.31c0.7,1.26,1.26,2.24,1.54,2.81c0.28,0.98,0.7,2.24,0.98,4.21c0.28,0,0.28,0.28,0.28,0.56
		c0.28,0.28,1.54,0,1.96,0l0.7,0.98L436.23,140.85z"/>
	<path id="XMLID_197_" class="st0" d="M182.79,458.25l1.96,0.7c-0.28,1.96-0.98,4.77-0.28,7.01c0.28,2.24,1.54,3.79,3.51,4.49
		c1.54,0.28,2.81,0.28,3.79-0.7c0.98-0.7,1.54-1.54,1.96-2.81c0.7-1.68,0.7-3.23-0.28-4.77c-0.28-0.7-0.7-1.26-1.26-1.96
		c-0.28-0.28-1.26-1.26-2.52-2.24c-1.96-1.96-3.23-3.23-3.79-4.49c-1.26-2.24-1.26-4.49-0.28-7.57c0.7-2.24,1.96-4.07,3.79-5.75
		c2.24-1.96,5.47-2.24,8.98-0.98c1.54,0.56,3.51,1.54,5.05,3.23c0.7,0.56,0.98,0.98,1.26,0.98c0.28,0,1.26-0.7,1.54-0.98l1.26,0.28
		l-3.79,11.78l-1.96-0.28c0.28-1.96,0.28-4.49,0.28-6.31c-0.7-3.51-2.24-5.75-4.77-6.73c-1.54-0.28-3.23-0.28-4.21,0.7
		c-2.24,1.54-3.51,5.05-2.24,7.29c0.28,0.7,0.98,0.98,1.26,1.54c0.28,0.28,1.26,1.26,2.81,2.81c1.96,1.96,3.23,3.79,4.07,5.47
		c0.98,2.24,0.98,4.49,0,7.01c-0.98,3.23-2.52,5.05-4.49,6.45c-1.96,0.98-4.07,0.98-6.73,0.28c-1.54-0.7-3.23-1.54-5.47-3.51
		l-0.28-0.28c-0.7,0-1.54,0.7-1.54,0.7l-1.26-0.28L182.79,458.25z"/>
	<path id="XMLID_198_" class="st0" d="M171.57,458.95c-0.7,0.98-0.98,1.96-0.98,2.24c-0.28,0.28-0.28,0.7-0.28,0.98
		c0,0.7,0.7,1.26,1.68,1.96l0.98,0.7l-0.7,1.96l-11.78-5.05l0.56-1.96l1.26,0.28c0.98,0.28,1.96,0.28,2.24,0
		c0.28-0.28,0.98-1.68,1.96-3.23l7.71-18.51c0.28-0.7,1.26-2.52,0.98-3.51c0-0.28-0.28-0.98-1.26-1.54l-1.26-0.7l0.98-1.96
		l11.78,5.05l-0.7,1.96l-1.26-0.28c-1.26-0.28-1.96-0.28-2.24,0c-0.7,0.28-1.26,1.26-1.96,3.23L171.57,458.95z"/>
	<path id="XMLID_199_" class="st0" d="M137.2,435.67l1.96,0.98c-0.7,1.96-1.54,4.77-1.54,7.01c0,2.52,1.26,4.77,3.79,6.03
		c2.24,1.26,4.77,1.26,7.29-0.28c2.81-1.54,5.47-4.49,7.57-8.28c2.81-4.77,3.79-8.98,3.51-12.34c0-2.24-1.26-4.21-3.51-5.47
		c-1.26-0.56-2.81-0.98-4.49-0.56c-0.98,0-1.54,0.28-1.96,0.28c-0.28,0.28-0.7,0.7-0.98,0.98c-0.28,0.7-0.98,1.68-1.96,3.23
		c-0.7,1.26-0.98,2.24-0.98,2.81c0.28,0.7,0.7,1.26,1.96,2.24l1.96,1.26l-0.98,1.96l-12.34-7.29l0.98-1.54
		c0.7,0.28,2.24,0.7,2.81,0.28c0.7-0.28,1.68-1.26,2.52-2.81l3.23-6.03c1.96,0.98,2.52,1.26,4.49,1.26c1.96,0.28,3.23,0.7,4.07,0.98
		c0.98,0.28,2.24,0.98,3.23,1.54c3.79,2.24,6.03,5.05,7.01,8.56c0.98,3.79-0.28,8.28-3.23,13.75c-2.81,5.05-6.31,8.28-9.82,9.54
		c-3.51,1.26-7.29,0.7-11.5-1.54c-1.96-1.26-3.79-2.81-5.47-5.05c-0.28-0.28-0.28-0.56-0.7-0.56c-0.56-0.28-1.54,0.28-1.96,0.28
		l-0.98-0.7L137.2,435.67z"/>
	<path id="XMLID_200_" class="st0" d="M122.9,430.9c-0.56,0.98-1.26,1.96-1.54,2.24c0,0.28-0.28,0.56-0.28,0.98
		c0,0.7,0.28,1.26,0.98,1.96l0.98,0.98l-1.26,1.54l-10.24-7.99l1.26-1.26l1.26,0.7c0.98,0.28,1.54,0.7,1.96,0.28
		c0.7-0.28,1.54-0.98,2.52-2.52l12.34-15.99c0.7-0.7,1.96-1.96,1.96-2.81c0-0.7-0.28-1.26-0.98-2.24l-0.98-0.98l1.26-1.68
		l10.24,7.99l-1.26,1.54l-1.26-0.7c-0.98-0.28-1.54-0.7-1.96-0.28c-0.7,0.28-1.54,0.98-2.52,2.52L122.9,430.9z"/>
	<path id="XMLID_201_" class="st0" d="M113.08,386.3l15.85,15.29l-1.26,1.54l-1.26-0.98c-0.98-0.7-1.54-0.7-1.96-0.7
		c-0.56,0.28-1.54,0.98-2.81,2.52l-14.03,14.31c-0.56,0.7-1.26,1.26-1.54,1.54c-0.28,0.7-0.28,0.98-0.7,1.26
		c0,0.28,0.28,1.26,0.98,1.96l0.7,1.26l-1.26,1.26l-9.26-8.98l1.26-1.54l1.26,0.98c0.7,0.7,1.26,0.7,1.96,0.7
		c0.56-0.28,1.54-0.98,2.81-2.24l16.83-17.53l-2.52-2.52c-1.26-1.26-2.81-1.96-3.79-1.96c-1.54,0-3.23,0.28-5.47,1.68l-3.51,1.54
		l-1.26-1.26L113.08,386.3z"/>
	<path id="XMLID_202_" class="st0" d="M96.81,365.96l13.32,17.25l-1.54,1.26l-0.98-0.98c-0.56-0.56-1.26-0.98-1.96-0.98
		s-1.54,0.7-3.23,1.96l-15.57,12.34c-0.98,0.7-1.54,1.26-1.96,1.54c-0.28,0.28-0.7,0.7-0.7,0.7c-0.28,0.7-0.28,1.26,0.28,2.24
		l0.7,1.26l-1.54,1.26l-7.99-10.24l1.54-1.26l0.98,0.98c0.98,0.7,1.54,0.98,1.96,0.98c0.56,0,1.96-0.7,3.23-1.96l19.36-15.01
		l-2.24-2.81c-1.26-1.54-2.52-2.24-3.79-2.52c-1.26,0-3.23,0.28-5.47,0.98l-3.51,1.26l-1.26-1.54L96.81,365.96z"/>
	<path id="XMLID_203_" class="st0" d="M91.06,355.44L72.55,376.2c-0.98,1.26-1.68,2.24-1.96,2.52c-0.28,0.28-0.7,0.98-0.98,1.26
		c-0.28,0.98,0,2.24,0.28,2.81l-1.54,0.98l-6.31-10.52l1.54-0.98c0.28,0.28,1.26,1.26,1.96,1.54c0.98,0.28,2.24-0.98,2.81-1.54
		l15.57-16.83l-22.3,5.75c-0.98,0.28-2.52,0.7-2.52,1.96c-0.28,0.98,0.28,1.96,0.7,2.52l-1.54,0.98l-5.05-7.99l1.54-0.98
		c0.7,0.56,1.54,1.54,2.52,1.54c0.98,0,2.24,0,4.49-0.7c1.26-0.28,4.21-0.98,8.98-2.24c1.54-0.28,3.79-0.98,6.31-1.54
		c3.79-0.98,7.99-1.96,11.78-2.81L91.06,355.44z"/>
	<path id="XMLID_204_" class="st0" d="M68.2,327.81l-14.03,0.98l-6.03,0.28c-2.24,0.28-4.49,0.28-6.73,0.7l-3.51-9.26l1.96-0.7
		l0.7,1.26c0.56,0.98,1.26,1.26,1.54,1.26c0.7,0,1.96,0,3.51-0.98l18.79-7.01c0.7-0.28,2.52-0.98,3.23-1.54
		c0.28-0.7,0.28-1.26,0.28-2.24l-0.28-1.26l1.96-0.98l4.49,12.06l-1.96,0.7l-0.7-0.98c-0.7-0.98-0.98-1.54-1.54-1.54
		c-0.56,0-1.54,0.28-3.51,0.98l-20.34,7.57l15.57-1.26l7.01-0.28c2.24-0.28,4.77-0.28,7.01-0.7l1.26,3.23
		c-1.96,1.54-3.79,3.23-5.75,4.49c-1.26,1.26-3.79,3.23-7.01,5.75l-10.8,8.56l20.06-7.99c1.96-0.98,2.81-1.54,3.51-2.24
		c0.7-0.98,0-2.52,0-3.51l1.54-0.7l3.79,9.54l-1.96,0.7c0-0.28-0.7-1.26-0.98-1.96c-0.28-0.28-0.98-0.7-1.26-0.7
		c-0.7,0-0.98,0-1.96,0c-0.7,0.28-1.54,0.7-3.23,1.26l-17.25,6.03c-0.56,0.28-2.81,1.26-3.23,2.24c-0.7,0.7,0,2.81,0.28,3.51
		l-1.96,0.7l-3.79-9.82C54.17,338.61,60.9,333.14,68.2,327.81z"/>
</g>
</svg>
