<?xml version="1.0" encoding="utf-8"?>
<!-- Generator: Adobe Illustrator 26.5.0, SVG Export Plug-In . SVG Version: 6.00 Build 0)  -->
<svg version="1.1" id="Layer_1" xmlns="http://www.w3.org/2000/svg" xmlns:xlink="http://www.w3.org/1999/xlink" x="0px" y="0px"
	 viewBox="0 0 512 512" style="enable-background:new 0 0 512 512;" xml:space="preserve">
<style type="text/css">
	.st0{fill:#DA251D;}
</style>
<g id="XMLID_1_">
	<path id="XMLID_3_" class="st0" d="M221.07,168.61v-1.26l0.42-14.73c0,0,1.12-11.92,16.69-8.7c1.82,0.42,4.35,0.84,5.75,2.24
		c3.37,3.37,2.38,17.67,2.38,36.19c0,23-0.28,50.08-0.28,50.08s-19.78,2.67-46.01,26.93c-6.45,6.03-12.2,11.64-18.1,18.8
		c-4.35,5.19-8.42,11.36-14.31,17.96c-3.93,4.35-19.78,1.4-16.69-13.33c2.81-13.19,37.45-58.35,66.77-68.03
		c0.56-0.14,0.84-9.12,0.28-12.76c-0.28-2.24-7.01,0.42-7.01,0.42s-1.4,0.7-3.93,1.96c-7.29,3.79-21.88,13.61-34.09,25.39
		c-6.45,6.31-19.08,1.4-16.83-9.12c1.4-6.73,12.2-16.13,22.72-25.11c18.94-15.99,34.23-22.72,39.84-24.97
		C218.83,170.71,221.07,169.87,221.07,168.61"/>
	<path id="XMLID_4_" class="st0" d="M289.95,168.61v-1.26l-0.42-14.73c0,0-1.12-11.92-16.97-8.7c-1.82,0.42-4.35,0.84-5.75,2.24
		c-3.37,3.37-2.52,17.67-2.52,36.19c0,23,0.28,50.08,0.28,50.08s20.06,2.67,46.71,26.93c6.59,6.03,12.48,11.64,18.38,18.8
		c4.35,5.19,8.56,11.36,14.45,17.96c3.93,4.35,20.06,1.4,16.97-13.33c-2.81-13.19-38.01-58.35-67.75-68.03
		c-0.56-0.14-0.84-9.12-0.28-12.76c0.28-2.24,7.01,0.42,7.01,0.42s1.54,0.7,3.93,1.96c7.43,3.79,22.16,13.61,34.51,25.39
		c6.59,6.31,19.36,1.4,17.11-9.12c-1.4-6.73-12.34-16.27-23-25.11c-19.22-15.99-34.79-22.86-40.54-24.97
		C292.19,170.71,289.95,169.87,289.95,168.61"/>
	<path id="XMLID_5_" class="st0" d="M217.28,264.14c9.54-6.59,19.78-11.36,22.02-12.34l0.7-9.96c0,0,3.51-8.84,16.41-8
		c11.36,0.7,15.57,8,15.01,17.96c0,0,12.62,4.07,30.86,18.8c6.31,5.05,13.05,11.64,20.48,19.22c33.95,34.79,22.58,43.91,12.91,45.87
		c-9.26,1.96-20.34-15.71-29.74-26.23c-15.57-17.67-28.48-31.84-39.56-34.79c-0.7-0.14,0.14,22.3,0.14,22.3s17.39,16.13,27.91,31.56
		c4.49,6.73,7.57,12.34,7.43,17.39c-0.28,16.55-15.85,20.9-26.79,0.28c-7.86-15.01-13.89-20.34-18.94-20.06
		c-3.65,0.28-8.14,1.96-13.05,11.5c-16.27,31.98-38.72,27.35-30.86,5.33c10.1-28.48,25.11-40.68,28.48-43.91
		c1.4-1.4,0.84-23.57,0.84-23.57s-8.7,0.98-18.8,11.5c-7.72,8-18.24,19.08-25.11,27.07c-12.62,14.59-24.13,33.24-33.67,15.57
		c-3.09-5.75,4.07-15.99,12.34-26.23c8.28-10.24,17.53-20.48,21.32-23.99C198.07,279.85,207.47,271.01,217.28,264.14"/>
	<path id="XMLID_6_" class="st0" d="M387.3,255.58h-2.38c0,35.21-14.45,67.05-38.01,90.2c-23.43,23.15-55.97,37.31-91.74,37.31
		c-35.91,0-68.31-14.31-91.74-37.31c-23.43-23.15-38.01-54.99-38.01-90.2s14.45-67.05,38.01-90.2
		c23.43-23.15,55.97-37.31,91.74-37.31c35.91,0,68.31,14.31,91.74,37.31c23.43,23.15,38.01,54.99,38.01,90.2h4.77l0,0h-4.77H387.3
		h-2.38l0,0h4.77c0-36.61-15.15-69.72-39.42-93.56c-24.41-23.99-58.07-38.72-95.11-38.72c-37.17,0-70.84,14.87-95.11,38.72
		c-24.41,23.99-39.42,57.09-39.42,93.56c0,36.61,15.15,69.72,39.42,93.56c24.41,23.99,58.07,38.72,95.11,38.72
		c37.17,0,70.84-14.87,95.11-38.72c24.41-23.99,39.42-57.09,39.42-93.56h-4.77H387.3z"/>
	<path id="XMLID_7_" class="st0" d="M409.6,254.6h-2.38c0,42.08-16.97,80.1-44.61,107.59c-27.49,27.49-65.51,44.61-107.59,44.61
		s-80.1-16.97-107.59-44.61c-27.49-27.49-44.61-65.51-44.61-107.59s16.97-80.1,44.61-107.59c27.49-27.49,65.51-44.61,107.59-44.61
		s80.1,16.97,107.59,44.61c27.49,27.49,44.61,65.51,44.61,107.59H409.6v-2.38l0,0h-2.38v2.38H409.6v2.38l0,0h2.38v-2.38
		c0-43.34-17.53-82.62-46.01-110.96c-28.34-28.34-67.61-46.01-110.96-46.01s-82.62,17.53-110.96,46.01
		c-28.34,28.34-46.01,67.61-46.01,110.96s17.53,82.62,46.01,110.96c28.34,28.34,67.61,46.01,110.96,46.01s82.62-17.53,110.96-46.01
		c28.34-28.34,46.01-67.61,46.01-110.96H409.6v2.38V254.6z"/>
	<path id="XMLID_8_" class="st0" d="M479.32,256.56h-3.65c0,60.46-24.55,115.16-64.11,154.72s-94.26,64.11-154.72,64.11
		s-115.16-24.55-154.72-64.11s-64.11-94.26-64.11-154.72s24.55-115.16,64.11-154.72s94.26-64.11,154.72-64.11
		s115.16,24.55,154.72,64.11s64.11,94.26,64.11,154.72H479.32h3.65c0-62.42-25.25-118.95-66.21-159.77
		c-40.82-40.96-97.35-66.21-159.77-66.21S138.03,55.83,97.21,96.79C56.25,137.61,31,194.14,31,256.56s25.25,118.95,66.21,159.77
		c40.82,40.96,97.35,66.21,159.77,66.21s118.95-25.25,159.77-66.21c40.96-40.82,66.21-97.35,66.21-159.77H479.32z"/>
	<path id="XMLID_9_" class="st0" d="M506.81,256h-5.19c0,67.89-27.49,129.19-71.96,173.66c-44.47,44.47-105.77,71.96-173.66,71.96
		s-129.19-27.49-173.66-71.96S10.38,323.89,10.38,256S37.87,126.81,82.34,82.34S188.11,10.38,256,10.38s129.19,27.49,173.66,71.96
		c44.47,44.47,71.96,105.77,71.96,173.66H506.81H512c0-70.7-28.62-134.66-75.05-180.95C390.66,28.76,326.56,0,256,0
		C185.3,0,121.34,28.62,75.05,75.05C28.76,121.34,0,185.44,0,256c0,70.7,28.62,134.66,75.05,180.95
		C121.34,483.24,185.44,512,256,512c70.7,0,134.66-28.62,180.95-75.05C483.24,390.66,512,326.56,512,256H506.81z"/>
	<path id="XMLID_10_" class="st0" d="M170.57,66.77l10.1-3.23l4.77,14.03l4.63,11.64c0,0,1.96,4.21,8.84,1.12
		c6.59-2.95,5.19-4.07,3.93-9.26c-1.54-6.17-8.56-22.58-8.56-22.58l10.66-3.93c0,0,6.17,12.48,9.26,24.69
		c0.98,3.93,3.65,13.33-11.22,18.94c-13.75,5.19-19.5,0-21.32-2.24C176.46,89.21,170.57,66.77,170.57,66.77"/>
	<polyline id="XMLID_11_" class="st0" points="242.39,89.07 229.91,89.07 229.91,49.66 241.13,49.66 255.02,69.01 255.02,48.53 
		267.36,48.53 267.36,88.23 255.16,88.23 242.53,70 242.39,89.07 	"/>
	<polyline id="XMLID_12_" class="st0" points="288.54,52.46 300.47,54.99 291.07,91.74 279.71,89.21 288.54,52.46 	"/>
	<polyline id="XMLID_13_" class="st0" points="328.38,63.12 317.02,58.21 314.21,101.56 326.28,107.03 355.59,76.73 345.64,70.98 
		325.86,91.18 328.38,63.12 	"/>
	<polyline id="XMLID_14_" class="st0" points="395.85,106.19 373.55,86.27 348.58,116.85 372.15,136.77 377.2,130.6 361.91,116.43 
		366.96,110.82 381.26,122.32 385.75,116.99 372.15,105.63 376.21,100.72 390.8,112.36 395.85,106.19 	"/>
	<path id="XMLID_17_" class="st0" d="M411.42,126.67l-29.04,22.72l6.87,9.82c0,0,1.54-1.96,8.84-7.72c2.95-2.38,5.05,0,5.75,2.1
		c0.42,1.26-0.28,2.38-0.28,2.38l-8.42,13.33l8.98,9.12c0,0,5.61-17.96,7.29-16.97c1.68,0.98,9.12,2.81,13.61,0.7
		c4.91-2.38,2.24-14.87,2.24-14.87L411.42,126.67z M416.61,145.6c1.82,2.95,1.54,6.31-0.7,7.86c-2.24,1.4-5.47,0.28-7.43-2.67
		c-1.82-2.95-1.54-6.31,0.7-7.86C411.98,141.54,415.35,143.78,416.61,145.6z"/>
	<path id="XMLID_18_" class="st0" d="M418.44,199.05c1.4-3.93,2.52-3.65,4.21-4.35l-4.91-10.94c0,0-4.63,0.42-6.31,7.01
		c-1.68,6.59,0.42,19.64,10.1,26.23c4.35,2.95,13.75-0.84,15.29-8.14c1.68-8.14-4.21-14.45,0.14-18.94
		c3.79-3.93,8.98,5.61,3.79,11.22c-1.12,1.26,3.51,9.12,3.51,9.12s12.48-2.1,4.63-21.04c-6.59-15.99-17.81-9.68-20.48-5.19
		c-2.95,4.77-0.56,9.54-0.56,14.73c0,2.1,0.56,5.19-1.54,7.15C421.38,210.97,416.75,203.82,418.44,199.05"/>
	<polyline id="XMLID_19_" class="st0" points="418.02,234.54 419.28,247.16 457.85,242.67 455.89,229.35 418.02,234.54 	"/>
	<polyline id="XMLID_20_" class="st0" points="447.19,273.11 447.47,261.05 459.54,262.03 456.59,298.92 444.95,298.36 
		445.93,286.02 418.3,282.51 419.7,270.17 447.19,273.11 	"/>
	<polyline id="XMLID_21_" class="st0" points="443.41,329.36 448.32,316.32 422.93,322.49 408.2,315.9 403.15,326.98 416.19,333.43 
		431.9,356.58 437.8,345.35 428.12,331.75 443.41,329.36 	"/>
	<polyline id="XMLID_22_" class="st0" points="342.97,397.68 352.09,391.22 359.1,400.34 349.84,406.37 342.97,397.68 	"/>
	<path id="XMLID_26_" class="st0" d="M324.73,408.06c-5.75,0.14-13.61,3.51-15.01,10.38c-1.68,7.72,7.86,11.36,7.86,11.36
		c-1.96,3.93-7.01,10.1,0.28,16.69c7.29,6.59,24.13,1.12,26.23-7.43c3.09-12.62-9.4-14.59-9.26-15.43
		C336.38,413.11,333.71,408.2,324.73,408.06L324.73,408.06z M322.91,414.37c2.67,0,4.91,2.24,4.91,4.91s-2.24,4.91-4.91,4.91
		s-4.91-2.24-4.91-4.91S320.25,414.37,322.91,414.37z M328.94,430.92c2.95,0,5.61,1.96,5.89,4.77c0.28,2.95-1.82,5.61-5.05,6.03
		c-3.09,0.42-6.03-1.68-6.31-4.63C324.03,433.31,326.28,431.34,328.94,430.92L328.94,430.92z"/>
	<path id="XMLID_29_" class="st0" d="M281.67,419.84c-7.72,0.42-12.62,5.89-14.17,8.98c-1.82,3.79,0.84,15.43,5.05,17.25
		c7.15,3.09,15.71-0.7,15.71-0.7s3.65,1.12,0.84,6.17c-1.82,3.23-3.37,3.79-4.63,3.65c-1.4-0.14-2.67-0.7-3.79-1.96
		c-2.24-2.38-4.35-1.26-7.57,0.84c-3.23,2.1-4.35,5.75,8.98,7.72c14.17,2.1,18.38-14.59,17.53-21.6
		c-0.7-7.29-3.09-17.39-12.06-19.78C285.32,419.98,283.35,419.7,281.67,419.84L281.67,419.84z M282.37,427.98
		c3.23,0,5.75,2.67,5.75,6.03s-2.67,6.03-5.75,6.03c-3.23,0-5.75-2.67-5.75-6.03C276.62,430.64,279.15,427.98,282.37,427.98z"/>
	<path id="XMLID_33_" class="st0" d="M238.75,420.96c-3.79,0.14-7.57,1.54-9.82,4.77c-4.63,6.45,2.52,13.61,2.52,13.61
		c-3.37,2.81-10.52,6.31-6.45,15.29c3.93,8.98,21.6,10.8,27.07,3.79c8-10.38-2.67-17.11-2.24-17.96c6.73-10.8,4.07-13.89-0.84-17.11
		C246.46,421.8,242.53,420.68,238.75,420.96L238.75,420.96z M240.57,426.99c0.7,0,1.26,0.14,1.96,0.42
		c2.52,1.12,3.65,4.07,2.52,6.45c-1.12,2.52-4.07,3.65-6.45,2.52c-2.52-1.12-3.65-4.07-2.52-6.45
		C236.78,428.12,238.75,426.99,240.57,426.99L240.57,426.99z M238.89,444.67c0.7,0,1.54,0,2.24,0.28c2.95,0.98,4.77,3.93,3.93,6.87
		c-0.84,2.81-4.07,4.35-7.01,3.51c-2.95-0.98-4.77-3.93-3.79-6.87C234.68,446.21,236.64,444.81,238.89,444.67L238.89,444.67z"/>
	<polyline id="XMLID_34_" class="st0" points="186.28,419.98 181.51,427.98 194.42,427.41 186.7,452.1 195.96,455.61 208.31,417.32 
		200.45,414.51 194.98,419.7 186.28,419.98 	"/>
	<polyline id="XMLID_35_" class="st0" points="168.75,396.84 163.56,404.13 171.27,409.6 176.89,402.31 168.75,396.84 	"/>
	<path id="XMLID_38_" class="st0" d="M91.74,349.84c-2.38,1.68-5.75,0.7-7.72-2.1c-1.82-2.81-1.54-6.31,0.84-7.86
		c2.38-1.68,5.75-0.7,7.72,2.1C94.54,344.65,94.12,348.3,91.74,349.84L91.74,349.84z M110.68,336.8l-9.82,6.17
		c0,0-6.45-8.56-8.14-10.52c-1.68-1.96-7.72-5.75-14.31-2.1c-9.54,5.19-5.75,15.71-5.75,15.71l12.34,19.5l31.7-19.5L110.68,336.8"/>
	<polyline id="XMLID_39_" class="st0" points="51.06,283.91 59.48,283.91 63.68,302.15 70.28,300.05 66.07,281.53 74.2,279.99 
		78.13,297.24 85.71,295.42 80.66,277.32 88.23,274.52 96.65,305.52 58.92,317.02 50.78,284.34 	"/>
	<polyline id="XMLID_40_" class="st0" points="51.62,236.92 52.18,220.93 67.75,233.42 92.86,221.07 90.9,236.92 74.77,243.38 
		74.77,245.34 80.66,251.09 89.07,251.09 89.07,263.29 50.08,263.29 50.08,249.83 63.82,249.83 63.82,247.58 51.62,236.92 	"/>
	<polyline id="XMLID_41_" class="st0" points="64.39,188.95 61.3,200.31 96.37,211.95 99.45,199.19 64.39,188.95 	"/>
	<polyline id="XMLID_42_" class="st0" points="86.27,143.36 92.3,134.1 123.44,154.3 117.69,163.7 94.54,164.96 110.68,177.45 
		104.5,185.72 73.08,166.93 79.68,155.84 102.96,155.7 86.27,143.36 	"/>
	<path id="XMLID_43_" class="st0" d="M137.89,104.92l2.1-7.01c0,0-3.65-6.31-14.45-0.7c-10.66,5.47-14.45,15.57-12.2,25.11
		c2.1,9.54,13.33,17.39,26.51,14.03c9.96-2.52,17.25-13.47,15.43-21.18c-0.98-4.49-9.96-13.19-9.4-12.62l-11.92,10.52l4.21,5.61
		l5.89-5.05l3.37,3.37c0,0-4.07,10.52-11.92,10.1c-8.56-0.56-14.87-9.68-11.92-16.13c2.52-6.03,9.68-8,13.19-6.31"/>
</g>
</svg>
