<svg version="1.1" id="Layer_1" xmlns="http://www.w3.org/2000/svg" xmlns:xlink="http://www.w3.org/1999/xlink" x="0px" y="0px"
	 width="100%" viewBox="0 0 1396 1400" enable-background="new 0 0 1396 1400" xml:space="preserve">
<path fill="#136A70" opacity="1.000000" stroke="none" 
	d="
M1397.000000,2.000000 
	C1397.000000,467.701569 1397.000000,933.403137 1396.549072,1399.552368 
	C933.784607,1400.000000 471.471130,1400.000122 9.157608,1399.996826 
	C6.825025,1399.996704 4.492441,1399.949829 2.094647,1399.470459 
	C2.020252,1398.516235 2.003018,1398.016479 2.003016,1397.516602 
	C2.001047,934.047363 1.999951,470.578156 2.009102,7.108942 
	C2.009134,5.505799 2.156723,3.902659 2.250097,2.000000 
	C467.445160,2.000000 932.222595,2.000000 1397.000000,2.000000 
M756.490906,1063.536987 
	C756.490906,1063.536987 756.322327,1063.475464 756.322327,1063.475464 
	C756.322327,1063.475464 756.531677,1063.431519 755.931152,1064.150146 
	C756.977600,1069.182861 757.706726,1074.313110 759.211853,1079.204712 
	C759.906189,1081.461304 761.704285,1083.948608 763.709717,1085.137207 
	C775.121277,1091.900269 787.677979,1094.096313 800.730225,1092.662598 
	C813.516968,1091.257935 824.592163,1086.370361 831.193970,1074.489746 
	C841.084167,1056.691162 835.796326,1035.811279 817.695068,1025.121704 
	C808.046082,1019.423584 797.228882,1015.688599 786.892700,1011.173462 
	C776.349487,1006.567871 774.402405,996.850769 782.586426,988.624451 
	C788.773682,982.405212 796.639648,980.887939 804.774719,982.545715 
	C811.591614,983.934998 818.130188,986.690125 824.858582,988.861938 
	C825.801025,985.054810 826.873169,980.723511 827.917786,976.503296 
	C813.746765,965.297668 786.978943,965.407227 773.431152,976.556824 
	C756.177185,990.756470 758.604675,1015.002197 778.390259,1025.002197 
	C782.973999,1027.318970 787.888428,1028.974609 792.611633,1031.024292 
	C797.938110,1033.335815 803.493408,1035.286255 808.462952,1038.217773 
	C817.594055,1043.604248 821.229004,1052.778687 818.884033,1062.554565 
	C816.918701,1070.747314 809.345032,1076.999023 799.472961,1078.048584 
	C782.911682,1079.809204 768.775757,1074.155029 756.490906,1063.536987 
M219.769882,715.729797 
	C241.560394,733.615356 265.626160,747.743042 291.882996,757.841553 
	C368.257324,787.215515 446.009796,789.914246 524.605652,768.130554 
	C570.115295,755.517029 610.775024,733.657349 644.277649,699.965759 
	C687.615479,656.383423 708.687927,603.136292 708.875549,542.019775 
	C709.280273,410.203674 709.000061,278.385529 709.000061,146.568207 
	C709.000061,144.784958 709.000061,143.001709 709.000061,141.133545 
	C640.768311,141.133545 573.054016,141.133545 504.999878,141.133545 
	C504.999878,143.394714 504.999908,145.367996 504.999908,147.341263 
	C504.999908,272.826019 505.014832,398.310791 504.980743,523.795532 
	C504.976562,539.148804 501.378235,553.645935 492.216431,566.119995 
	C474.541962,590.184082 449.705353,599.524719 420.767212,598.366028 
	C384.133698,596.899231 345.177094,573.001648 345.367279,519.080322 
	C345.804016,395.263550 345.505585,271.444214 345.505585,147.625931 
	C345.505585,145.495300 345.505585,143.364670 345.505585,141.112122 
	C276.058472,141.112122 207.151123,141.112122 137.833176,141.112122 
	C137.833176,143.173386 137.833176,144.972916 137.833176,146.772461 
	C137.833176,278.756439 137.779053,410.740448 137.933868,542.724243 
	C137.946533,553.513306 138.698578,564.401855 140.273956,575.071899 
	C148.654892,631.836182 175.118515,678.554565 219.769882,715.729797 
M954.816772,463.440338 
	C955.513977,452.507263 955.040894,441.347870 957.104309,430.679047 
	C967.880798,374.960175 1000.228210,337.482513 1054.050781,319.055725 
	C1076.391357,311.407135 1099.581665,310.049194 1123.045532,310.764008 
	C1155.079956,311.739868 1186.493652,315.899872 1215.971191,329.131897 
	C1229.708862,335.298553 1242.762085,342.990326 1256.301514,350.083008 
	C1256.354736,348.957886 1256.479614,347.357544 1256.498291,345.755981 
	C1256.622192,335.096344 1256.799927,324.436523 1256.819092,313.776550 
	C1256.905151,265.780273 1256.973999,217.783829 1256.872681,169.787811 
	C1256.869263,168.153259 1255.372314,165.731049 1253.915527,165.020309 
	C1245.257935,160.796295 1236.609375,156.418472 1227.586670,153.101685 
	C1184.645630,137.316391 1140.019897,130.974335 1094.468750,129.975449 
	C1029.619263,128.553391 968.121765,142.005127 910.829651,172.561890 
	C838.665161,211.050842 787.268066,268.083801 760.580811,345.971313 
	C740.371216,404.953491 737.858398,465.414398 749.353638,526.379028 
	C760.718323,586.651306 787.568787,639.299194 830.916199,682.951050 
	C883.742126,736.148010 948.399475,766.460876 1021.729614,778.836365 
	C1074.355591,787.717712 1126.922119,785.517456 1179.130371,774.944336 
	C1205.026733,769.699829 1229.909790,761.499756 1252.494507,747.285828 
	C1255.300293,745.519958 1256.657715,743.675842 1256.605591,740.142334 
	C1256.442993,729.152832 1256.799805,718.156799 1256.820679,707.163147 
	C1256.907349,661.333496 1256.947632,615.503662 1256.984741,569.673950 
	C1256.985718,568.467529 1256.755371,567.260925 1256.584229,565.575195 
	C1240.504517,577.656494 1223.283569,586.142334 1204.720703,591.912048 
	C1176.141602,600.795166 1146.796021,603.604248 1116.987915,603.228760 
	C1093.446411,602.932068 1070.398315,599.684082 1048.604614,590.766296 
	C992.026855,567.614990 959.820129,526.032593 954.816772,463.440338 
M283.260101,1003.195618 
	C290.780090,1010.491150 298.766510,1017.369873 305.730652,1025.162109 
	C324.918427,1046.631104 343.713165,1068.452271 362.561829,1090.222046 
	C364.866211,1092.883423 367.149475,1094.402344 370.816833,1093.045776 
	C370.816833,1052.201538 370.816833,1011.354919 370.816833,970.425659 
	C365.533722,970.425659 360.615967,970.425659 355.247253,970.425659 
	C355.247253,1000.017212 355.247253,1029.343262 355.247253,1059.924194 
	C348.891602,1052.447754 343.607269,1045.673584 337.747681,1039.440063 
	C317.567413,1017.971924 296.995880,996.868286 277.018677,975.215088 
	C272.173737,969.963684 267.202423,969.529236 261.172150,970.565430 
	C261.172150,1010.713318 261.172150,1050.594238 261.172150,1090.406006 
	C266.573181,1090.406006 271.610535,1090.406006 277.040527,1090.406006 
	C277.040527,1059.343750 277.040527,1028.719116 277.040527,998.094482 
	C277.466492,997.840515 277.892456,997.586487 278.318420,997.332520 
	C279.766876,999.149780 281.215363,1000.967041 283.260101,1003.195618 
M1226.145020,983.343384 
	C1216.512207,976.607788 1205.678589,972.528015 1194.141479,971.630005 
	C1177.468872,970.332397 1160.704468,970.215820 1143.797607,969.588562 
	C1143.797607,1010.681885 1143.797607,1050.593872 1143.797607,1089.891846 
	C1159.764160,1089.891846 1175.579590,1091.440796 1190.967407,1089.535645 
	C1215.213867,1086.533936 1234.353394,1074.464111 1243.411011,1050.495850 
	C1251.876221,1028.095215 1248.308838,998.828552 1226.145020,983.343384 
M1004.033508,1034.292236 
	C1006.804688,999.215698 988.529663,982.569885 966.653137,975.167053 
	C945.203125,967.908569 922.981873,970.660400 900.757935,970.146545 
	C900.757935,1010.608093 900.757935,1050.486206 900.757935,1089.954346 
	C916.470581,1089.954346 932.016296,1091.222290 947.280579,1089.689087 
	C978.586792,1086.544434 1000.161255,1065.043945 1004.033508,1034.292236 
M734.019165,1090.856201 
	C738.928589,1090.856201 743.838013,1090.856201 749.861755,1090.856201 
	C734.883972,1070.625000 720.599731,1051.330566 706.312256,1032.031738 
	C710.609192,1030.019043 714.480652,1028.527832 718.026428,1026.474365 
	C724.496704,1022.726990 728.131592,1016.887634 728.912659,1009.474609 
	C730.800232,991.561035 720.468384,976.443848 702.954224,972.047363 
	C697.694580,970.727112 692.109619,970.364807 686.656677,970.223633 
	C676.075256,969.949646 665.481689,970.143494 654.816101,970.143494 
	C654.816101,1010.742981 654.816101,1050.653564 654.816101,1090.597412 
	C660.111084,1090.597412 665.046875,1090.597412 670.601868,1090.597412 
	C670.601868,1071.781982 670.601868,1053.217041 670.601868,1034.189453 
	C675.845459,1034.189453 680.489441,1034.393066 685.105164,1034.119385 
	C688.290649,1033.930542 690.231628,1034.998047 692.104553,1037.606567 
	C704.049133,1054.242188 716.138123,1070.775146 728.311523,1087.244141 
	C729.456604,1088.793457 731.515869,1089.666870 734.019165,1090.856201 
M693.115662,1258.545410 
	C695.182678,1261.596436 697.806030,1263.046509 701.657837,1261.472778 
	C701.657837,1222.344849 701.657837,1183.234863 701.657837,1143.799561 
	C696.727112,1143.799561 691.982788,1143.799561 686.753418,1143.799561 
	C686.753418,1172.687866 686.753418,1201.358398 686.753418,1230.432983 
	C662.585327,1202.763428 638.647400,1175.720703 615.229248,1148.235107 
	C610.635315,1142.843262 606.011475,1143.056152 600.457764,1143.977417 
	C600.457764,1182.529297 600.457764,1220.781006 600.457764,1259.278320 
	C605.359314,1259.278320 609.956116,1259.278320 615.106812,1259.278320 
	C615.106812,1229.196411 615.106812,1199.351440 615.106812,1168.871216 
	C641.320618,1199.002075 666.977417,1228.492676 693.115662,1258.545410 
M935.696167,1143.469482 
	C933.600952,1143.469482 931.505737,1143.469482 929.430664,1143.469482 
	C929.430664,1182.501953 929.430664,1220.752563 929.430664,1258.896606 
	C944.157776,1258.896606 958.811279,1260.453613 973.001221,1258.551758 
	C997.647217,1255.248413 1010.206055,1227.374878 996.832458,1207.191772 
	C993.085571,1201.536987 987.076721,1197.380981 982.502258,1192.924072 
	C984.390015,1189.662720 987.399658,1185.933228 988.868958,1181.672363 
	C995.477844,1162.507080 981.193298,1143.989136 959.645813,1143.500000 
	C951.985535,1143.326050 944.318054,1143.470581 935.696167,1143.469482 
M133.815720,1181.499878 
	C133.815720,1207.385864 133.815720,1233.271851 133.815720,1259.531982 
	C142.833099,1259.531982 151.152374,1259.877441 159.430038,1259.438354 
	C168.352280,1258.964966 177.505508,1258.829468 186.085541,1256.669678 
	C212.505371,1250.019287 228.368118,1229.713989 229.172577,1203.022339 
	C229.962112,1176.825439 215.301147,1155.945923 189.993484,1147.325195 
	C171.695618,1141.092041 152.835602,1144.262207 133.815720,1143.393433 
	C133.815720,1156.229492 133.815720,1168.364624 133.815720,1181.499878 
M167.430679,1091.090332 
	C174.534546,1091.682617 181.694366,1093.157593 188.732391,1092.711426 
	C216.632828,1090.942627 233.016998,1073.036865 233.017227,1045.122559 
	C233.017410,1021.960999 233.017242,998.799438 233.017242,975.637878 
	C233.017242,973.888977 233.017258,972.140015 233.017258,970.422668 
	C227.499924,970.422668 222.743835,970.422668 217.460007,970.422668 
	C217.460007,972.493835 217.460052,974.290283 217.460022,976.086792 
	C217.459732,999.081726 217.543976,1022.077026 217.431229,1045.071411 
	C217.347412,1062.164307 209.509308,1073.430542 194.891846,1076.801636 
	C189.629333,1078.015259 183.972260,1078.204712 178.548340,1077.903931 
	C161.938675,1076.982910 150.537476,1066.205811 150.034637,1049.609375 
	C149.293274,1025.139771 149.650040,1000.637024 149.541122,976.148376 
	C149.532593,974.230652 149.539993,972.312805 149.539993,970.451477 
	C143.787125,970.451477 138.865967,970.451477 133.832321,970.451477 
	C133.685181,971.373169 133.493561,972.015015 133.493057,972.657043 
	C133.473465,997.484802 133.083405,1022.320374 133.579758,1047.138184 
	C134.044220,1070.361206 144.805496,1084.025879 167.430679,1091.090332 
M1096.275146,1241.189819 
	C1087.502441,1229.333618 1078.729858,1217.477417 1069.899414,1205.543213 
	C1070.735962,1205.093750 1071.165039,1204.841553 1071.611938,1204.626343 
	C1085.116821,1198.123901 1092.056885,1186.582275 1090.815430,1172.681396 
	C1089.576904,1158.811523 1080.271118,1147.885986 1065.616577,1144.725952 
	C1058.892700,1143.276123 1051.741211,1143.676514 1044.777222,1143.508423 
	C1037.337036,1143.328735 1029.889038,1143.468018 1022.354736,1143.468018 
	C1022.354736,1182.409424 1022.354736,1220.655029 1022.354736,1259.216187 
	C1027.299561,1259.216187 1032.040161,1259.216187 1037.282715,1259.216187 
	C1037.282715,1242.071167 1037.282715,1225.162354 1037.282715,1207.851318 
	C1041.744141,1207.851318 1045.731323,1208.102173 1049.671143,1207.777466 
	C1053.264404,1207.481323 1055.333618,1208.849976 1057.403320,1211.750610 
	C1068.031128,1226.644653 1078.889404,1241.375122 1089.751343,1256.100586 
	C1090.755493,1257.462036 1092.285034,1259.248901 1093.686401,1259.358643 
	C1098.728882,1259.753418 1103.821045,1259.513550 1109.838989,1259.513550 
	C1105.000610,1252.958252 1100.864014,1247.353760 1096.275146,1241.189819 
M614.499817,1090.850342 
	C621.595581,1090.850342 628.691406,1090.850342 635.722534,1090.850342 
	C635.722534,1085.716797 635.722534,1081.296021 635.722534,1076.354492 
	C616.376831,1076.354492 597.313721,1076.354492 578.153320,1076.354492 
	C578.153320,1062.090454 578.153320,1048.358765 578.153320,1034.129395 
	C592.178040,1034.129395 605.908936,1034.129395 619.772583,1034.129395 
	C619.772583,1029.217041 619.772583,1024.807373 619.772583,1019.964478 
	C605.795532,1019.964478 592.051147,1019.964478 578.170044,1019.964478 
	C578.170044,1007.973389 578.170044,996.420349 578.170044,984.422974 
	C595.254150,984.422974 612.023804,984.422974 628.932983,984.422974 
	C628.932983,979.543030 628.932983,975.112244 628.932983,970.519287 
	C606.485535,970.519287 584.289978,970.519287 562.206177,970.519287 
	C562.206177,1010.772827 562.206177,1050.655762 562.206177,1090.850342 
	C579.562439,1090.850342 596.531128,1090.850342 614.499817,1090.850342 
M1042.850952,1059.245239 
	C1044.430664,1058.223633 1045.996582,1056.340942 1047.592529,1056.315308 
	C1061.913696,1056.084595 1076.241577,1056.285156 1090.564087,1056.098022 
	C1093.681763,1056.057373 1094.874634,1057.312134 1095.904785,1059.964722 
	C1099.452393,1069.099365 1103.145386,1078.181763 1107.025879,1087.179321 
	C1107.668335,1088.669189 1109.435059,1090.531250 1110.841187,1090.676025 
	C1115.240479,1091.129150 1119.715820,1090.842407 1124.522827,1090.842407 
	C1124.130737,1089.413086 1123.978516,1088.428101 1123.599854,1087.539551 
	C1107.059448,1048.719604 1090.484131,1009.914734 1073.979736,971.079651 
	C1073.032837,968.851807 1071.982056,967.742859 1069.315674,967.704407 
	C1066.460938,967.663147 1065.750977,969.225525 1064.860474,971.319946 
	C1051.600586,1002.506775 1038.280396,1033.667969 1024.985352,1064.839844 
	C1021.355652,1073.350098 1017.761902,1081.875732 1013.959778,1090.847046 
	C1018.487061,1090.847046 1022.316345,1090.661133 1026.117676,1090.906860 
	C1029.068481,1091.097534 1030.525635,1090.114136 1031.597046,1087.266846 
	C1035.047729,1078.097046 1038.835449,1069.054077 1042.850952,1059.245239 
M304.485138,1259.561523 
	C308.916077,1259.561523 313.346985,1259.561523 317.749756,1259.561523 
	C317.749756,1254.758423 317.749756,1250.661255 317.749756,1246.000244 
	C299.925720,1246.000244 282.371063,1246.000244 264.919403,1246.000244 
	C264.919403,1233.025391 264.919403,1220.626465 264.919403,1207.707397 
	C277.813171,1207.707397 290.357635,1207.707397 302.941467,1207.707397 
	C302.941467,1203.072266 302.941467,1198.969116 302.941467,1194.313843 
	C290.129181,1194.313843 277.569183,1194.313843 264.953644,1194.313843 
	C264.953644,1181.559937 264.953644,1169.368286 264.953644,1156.656006 
	C280.736755,1156.656006 296.132477,1156.656006 311.551514,1156.656006 
	C311.551514,1152.055542 311.551514,1147.986084 311.551514,1143.732056 
	C290.831207,1143.732056 270.430847,1143.732056 249.789001,1143.732056 
	C249.789001,1182.378540 249.789001,1220.730835 249.789001,1259.561401 
	C267.920502,1259.561401 285.705536,1259.561401 304.485138,1259.561523 
M499.323669,1215.802979 
	C493.527924,1230.194458 487.732178,1244.585815 481.715637,1259.525513 
	C485.904114,1259.525513 489.231812,1259.330933 492.525665,1259.581421 
	C495.678497,1259.821411 497.202911,1258.703613 498.321136,1255.654785 
	C501.295105,1247.546265 504.812897,1239.638306 507.885071,1231.563477 
	C508.900116,1228.895508 510.130035,1227.719727 513.197021,1227.766357 
	C525.854980,1227.959717 538.519958,1227.979004 551.176941,1227.757690 
	C554.468994,1227.700073 555.813599,1228.975708 556.905884,1231.808716 
	C560.073181,1240.023926 563.412659,1248.177246 566.919922,1256.252563 
	C567.506653,1257.603638 569.189758,1259.240356 570.503906,1259.372070 
	C574.558228,1259.778442 578.679199,1259.520386 583.268921,1259.520386 
	C582.804504,1258.078857 582.610901,1257.316040 582.318298,1256.593262 
	C567.167236,1219.167358 552.033508,1181.734375 536.750671,1144.362305 
	C536.167297,1142.935791 534.055359,1141.131348 532.799683,1141.235718 
	C531.216919,1141.367310 529.020325,1142.968018 528.398071,1144.475586 
	C518.699707,1167.972534 509.213165,1191.557007 499.323669,1215.802979 
M1241.943359,1255.645630 
	C1242.856323,1256.914673 1243.680420,1259.189331 1244.697876,1259.279419 
	C1249.215576,1259.679077 1253.788818,1259.452515 1258.709106,1259.452515 
	C1258.113403,1257.787476 1257.863159,1256.999878 1257.553711,1256.236328 
	C1242.582397,1219.288696 1227.538452,1182.370239 1212.729370,1145.357788 
	C1211.168213,1141.455811 1209.208130,1140.109741 1204.911865,1141.389282 
	C1189.099121,1180.380981 1173.170532,1219.658325 1157.002686,1259.525635 
	C1161.263550,1259.525635 1164.600342,1259.303223 1167.893188,1259.589111 
	C1171.102539,1259.867798 1172.583130,1258.613647 1173.692383,1255.648926 
	C1176.778442,1247.400269 1180.069702,1239.218628 1183.633667,1231.167236 
	C1184.290039,1229.684448 1186.586426,1228.022583 1188.156128,1227.991943 
	C1201.142456,1227.737427 1214.137573,1227.961426 1227.125854,1227.761475 
	C1230.086060,1227.716064 1231.127197,1228.980225 1232.071655,1231.386719 
	C1235.166626,1239.271851 1238.445801,1247.084717 1241.943359,1255.645630 
M896.496094,1219.962402 
	C886.363403,1195.020630 876.228943,1170.079590 866.101196,1145.135864 
	C865.253113,1143.046997 864.964478,1140.879517 861.632385,1140.850220 
	C858.317993,1140.821167 857.910400,1142.928223 857.055542,1145.034424 
	C845.118164,1174.445801 833.173889,1203.854614 821.247986,1233.270752 
	C817.784607,1241.813477 814.373535,1250.377563 810.700073,1259.525635 
	C814.773804,1259.525635 818.102112,1259.250122 821.363220,1259.600220 
	C824.883606,1259.978149 826.295837,1258.411865 827.443237,1255.335938 
	C830.463745,1247.238770 833.942993,1239.313354 836.995056,1231.227295 
	C837.973206,1228.635864 839.261108,1227.743774 842.052002,1227.778076 
	C854.880005,1227.935791 867.712158,1227.937500 880.540100,1227.776733 
	C883.342712,1227.741577 884.658569,1228.652588 885.654419,1231.226196 
	C888.892456,1239.593994 892.343506,1247.880737 895.826843,1256.150635 
	C896.350769,1257.394409 897.420044,1259.267700 898.348328,1259.335938 
	C902.870850,1259.668335 907.431152,1259.486328 912.485168,1259.486328 
	C907.013550,1245.922974 901.918091,1233.292114 896.496094,1219.962402 
M451.604187,1002.979797 
	C463.353363,1031.370972 475.092865,1059.766113 486.870911,1088.145264 
	C487.763794,1090.296631 487.911682,1092.928345 491.547394,1092.965332 
	C495.142273,1093.002075 495.406677,1090.515747 496.321564,1088.309570 
	C511.466217,1051.791992 526.607361,1015.273010 541.736328,978.748962 
	C542.860840,976.034180 543.886719,973.278564 545.012817,970.402893 
	C529.761292,969.392273 529.761169,969.392212 524.005737,982.788574 
	C523.940430,982.940491 523.924622,983.113647 523.859985,983.265930 
	C513.127136,1008.535034 502.392090,1033.803223 491.774506,1058.794800 
	C491.744324,1058.731445 491.364380,1058.021973 491.059113,1057.281494 
	C479.538361,1029.338745 468.045502,1001.384521 456.444000,973.475464 
	C455.901062,972.169373 454.460266,970.400208 453.331512,970.318848 
	C448.477448,969.968933 443.583710,970.169434 438.034241,970.169434 
	C442.667633,981.453308 446.949219,991.880432 451.604187,1002.979797 
M469.882721,1250.286743 
	C470.638062,1246.832520 471.393402,1243.378296 472.333557,1239.078979 
	C457.991333,1247.546265 443.442871,1249.682251 428.210541,1246.985474 
	C407.986969,1243.404907 392.605530,1226.880859 390.997986,1207.391968 
	C389.049713,1183.771606 400.331604,1165.062744 421.133698,1157.837891 
	C437.707886,1152.081299 453.514618,1154.566528 469.088348,1163.182617 
	C469.896332,1159.667358 470.434113,1156.230957 471.512329,1152.973511 
	C472.421478,1150.227051 471.468475,1148.680664 469.055084,1148.062500 
	C460.257324,1145.808716 451.518951,1142.578491 442.573090,1141.773682 
	C398.405334,1137.799561 365.549286,1177.180664 378.074005,1219.038330 
	C390.232300,1259.671143 435.264465,1269.159180 465.999695,1256.340088 
	C467.678711,1255.639893 468.497772,1252.877686 469.882721,1250.286743 
M815.549622,1152.269653 
	C815.549622,1149.492676 815.549622,1146.715698 815.549622,1143.722168 
	C784.339172,1143.722168 753.790894,1143.722168 723.163818,1143.722168 
	C723.163818,1148.213745 723.163818,1152.422607 723.163818,1156.976440 
	C736.146545,1156.976440 748.772156,1156.976440 761.831543,1156.976440 
	C761.831543,1191.233398 761.831543,1225.142822 761.831543,1259.258057 
	C766.836060,1259.258057 771.398315,1259.258057 776.527161,1259.258057 
	C776.527161,1225.097534 776.527161,1191.222534 776.527161,1156.863281 
	C778.704773,1156.863281 780.335083,1156.863159 781.965393,1156.863159 
	C791.792908,1156.863037 801.621704,1156.775269 811.447144,1156.917603 
	C814.290710,1156.958618 816.046448,1156.464478 815.549622,1152.269653 
M857.154419,1067.500000 
	C857.154419,1075.112183 857.154419,1082.724365 857.154419,1090.501709 
	C862.777405,1090.501709 867.826965,1090.501709 872.814575,1090.501709 
	C872.814575,1050.272339 872.814575,1010.387939 872.814575,970.427917 
	C867.529114,970.427917 862.611206,970.427917 857.154419,970.427917 
	C857.154419,1002.632202 857.154419,1034.566162 857.154419,1067.500000 
M404.866669,970.159668 
	C400.737671,970.121704 402.217010,973.296509 402.212860,975.225647 
	C402.133881,1012.048706 402.151428,1048.872070 402.164978,1085.695312 
	C402.165588,1087.296875 402.318939,1088.898438 402.405853,1090.592651 
	C407.796356,1090.592651 412.721191,1090.592651 417.910950,1090.592651 
	C417.910950,1050.449707 417.910950,1010.559692 417.910950,970.155212 
	C413.715454,970.155212 409.758606,970.155212 404.866669,970.159668 
M1137.062622,1258.578369 
	C1137.062622,1220.337402 1137.062622,1182.096436 1137.062622,1143.779785 
	C1132.089722,1143.779785 1127.523926,1143.779785 1122.822144,1143.779785 
	C1122.822144,1182.446533 1122.822144,1220.783447 1122.822144,1259.287354 
	C1127.648071,1259.287354 1132.104370,1259.287354 1137.062622,1258.578369 
z"/>
<path fill="#C4DADB" opacity="1.000000" stroke="none" 
	d="
M1397.000000,1.500000 
	C932.222595,2.000000 467.445160,2.000000 2.250097,2.000000 
	C2.156723,3.902659 2.009134,5.505799 2.009102,7.108942 
	C1.999951,470.578156 2.001047,934.047363 2.003016,1397.516602 
	C2.003018,1398.016479 2.020252,1398.516235 2.043140,1399.737549 
	C2.037897,1400.639282 2.018949,1400.819580 1.999985,1401.000000 
	C1.666636,1400.833374 1.056162,1400.684204 1.044423,1400.497192 
	C0.960984,1399.169067 1.000000,1397.833374 1.000000,1396.500000 
	C1.000000,931.333313 1.000000,466.166656 1.000000,1.000000 
	C466.333344,1.000000 931.666687,1.000000 1397.000000,1.500000 
z"/>
<path fill="#4E8F94" opacity="1.000000" stroke="none" 
	d="
M2.450905,1401.000000 
	C2.018949,1400.819580 2.037897,1400.639282 2.108351,1400.191895 
	C4.492441,1399.949829 6.825025,1399.996704 9.157608,1399.996826 
	C471.471130,1400.000122 933.784607,1400.000000 1396.549072,1400.000000 
	C1396.833496,1400.333374 1396.684448,1400.943848 1396.497681,1400.955566 
	C1395.169922,1401.038818 1393.834595,1401.000000 1392.501587,1401.000000 
	C929.301636,1401.000000 466.101746,1401.000000 2.450905,1401.000000 
z"/>
<path fill="#FFFFFF" opacity="1.000000" stroke="none" 
	d="
M219.501923,715.495667 
	C175.118515,678.554565 148.654892,631.836182 140.273956,575.071899 
	C138.698578,564.401855 137.946533,553.513306 137.933868,542.724243 
	C137.779053,410.740448 137.833176,278.756439 137.833176,146.772461 
	C137.833176,144.972916 137.833176,143.173386 137.833176,141.112122 
	C207.151123,141.112122 276.058472,141.112122 345.505585,141.112122 
	C345.505585,143.364670 345.505585,145.495300 345.505585,147.625931 
	C345.505585,271.444214 345.804016,395.263550 345.367279,519.080322 
	C345.177094,573.001648 384.133698,596.899231 420.767212,598.366028 
	C449.705353,599.524719 474.541962,590.184082 492.216431,566.119995 
	C501.378235,553.645935 504.976562,539.148804 504.980743,523.795532 
	C505.014832,398.310791 504.999908,272.826019 504.999908,147.341263 
	C504.999908,145.367996 504.999878,143.394714 504.999878,141.133545 
	C573.054016,141.133545 640.768311,141.133545 709.000061,141.133545 
	C709.000061,143.001709 709.000061,144.784958 709.000061,146.568207 
	C709.000061,278.385529 709.280273,410.203674 708.875549,542.019775 
	C708.687927,603.136292 687.615479,656.383423 644.277649,699.965759 
	C610.775024,733.657349 570.115295,755.517029 524.605652,768.130554 
	C446.009796,789.914246 368.257324,787.215515 291.882996,757.841553 
	C265.626160,747.743042 241.560394,733.615356 219.501923,715.495667 
z"/>
<path fill="#FFFFFF" opacity="1.000000" stroke="none" 
	d="
M954.824219,463.930847 
	C959.820129,526.032593 992.026855,567.614990 1048.604614,590.766296 
	C1070.398315,599.684082 1093.446411,602.932068 1116.987915,603.228760 
	C1146.796021,603.604248 1176.141602,600.795166 1204.720703,591.912048 
	C1223.283569,586.142334 1240.504517,577.656494 1256.584229,565.575195 
	C1256.755371,567.260925 1256.985718,568.467529 1256.984741,569.673950 
	C1256.947632,615.503662 1256.907349,661.333496 1256.820679,707.163147 
	C1256.799805,718.156799 1256.442993,729.152832 1256.605591,740.142334 
	C1256.657715,743.675842 1255.300293,745.519958 1252.494507,747.285828 
	C1229.909790,761.499756 1205.026733,769.699829 1179.130371,774.944336 
	C1126.922119,785.517456 1074.355591,787.717712 1021.729614,778.836365 
	C948.399475,766.460876 883.742126,736.148010 830.916199,682.951050 
	C787.568787,639.299194 760.718323,586.651306 749.353638,526.379028 
	C737.858398,465.414398 740.371216,404.953491 760.580811,345.971313 
	C787.268066,268.083801 838.665161,211.050842 910.829651,172.561890 
	C968.121765,142.005127 1029.619263,128.553391 1094.468750,129.975449 
	C1140.019897,130.974335 1184.645630,137.316391 1227.586670,153.101685 
	C1236.609375,156.418472 1245.257935,160.796295 1253.915527,165.020309 
	C1255.372314,165.731049 1256.869263,168.153259 1256.872681,169.787811 
	C1256.973999,217.783829 1256.905151,265.780273 1256.819092,313.776550 
	C1256.799927,324.436523 1256.622192,335.096344 1256.498291,345.755981 
	C1256.479614,347.357544 1256.354736,348.957886 1256.301514,350.083008 
	C1242.762085,342.990326 1229.708862,335.298553 1215.971191,329.131897 
	C1186.493652,315.899872 1155.079956,311.739868 1123.045532,310.764008 
	C1099.581665,310.049194 1076.391357,311.407135 1054.050781,319.055725 
	C1000.228210,337.482513 967.880798,374.960175 957.104309,430.679047 
	C955.040894,441.347870 955.513977,452.507263 954.824219,463.930847 
z"/>
<path fill="#FAFCFC" opacity="1.000000" stroke="none" 
	d="
M282.961975,1002.989929 
	C281.215363,1000.967041 279.766876,999.149780 278.318420,997.332520 
	C277.892456,997.586487 277.466492,997.840515 277.040527,998.094482 
	C277.040527,1028.719116 277.040527,1059.343750 277.040527,1090.406006 
	C271.610535,1090.406006 266.573181,1090.406006 261.172150,1090.406006 
	C261.172150,1050.594238 261.172150,1010.713318 261.172150,970.565430 
	C267.202423,969.529236 272.173737,969.963684 277.018677,975.215088 
	C296.995880,996.868286 317.567413,1017.971924 337.747681,1039.440063 
	C343.607269,1045.673584 348.891602,1052.447754 355.247253,1059.924194 
	C355.247253,1029.343262 355.247253,1000.017212 355.247253,970.425659 
	C360.615967,970.425659 365.533722,970.425659 370.816833,970.425659 
	C370.816833,1011.354919 370.816833,1052.201538 370.816833,1093.045776 
	C367.149475,1094.402344 364.866211,1092.883423 362.561829,1090.222046 
	C343.713165,1068.452271 324.918427,1046.631104 305.730652,1025.162109 
	C298.766510,1017.369873 290.780090,1010.491150 282.961975,1002.989929 
z"/>
<path fill="#F7FAFA" opacity="1.000000" stroke="none" 
	d="
M1226.429810,983.563599 
	C1248.308838,998.828552 1251.876221,1028.095215 1243.411011,1050.495850 
	C1234.353394,1074.464111 1215.213867,1086.533936 1190.967407,1089.535645 
	C1175.579590,1091.440796 1159.764160,1089.891846 1143.797607,1089.891846 
	C1143.797607,1050.593872 1143.797607,1010.681885 1143.797607,969.588562 
	C1160.704468,970.215820 1177.468872,970.332397 1194.141479,971.630005 
	C1205.678589,972.528015 1216.512207,976.607788 1226.429810,983.563599 
M1159.538086,1007.499695 
	C1159.538086,1030.401611 1159.538086,1053.303589 1159.538086,1075.956787 
	C1168.739380,1075.956787 1177.103271,1076.571777 1185.348267,1075.841797 
	C1210.412354,1073.622681 1226.914917,1058.386230 1230.605103,1034.780884 
	C1233.730713,1014.786743 1225.417358,997.859863 1208.570801,990.489502 
	C1193.001709,983.678040 1176.515991,984.482849 1159.538086,984.629700 
	C1159.538086,992.262695 1159.538086,999.381226 1159.538086,1007.499695 
z"/>
<path fill="#F9FBFB" opacity="1.000000" stroke="none" 
	d="
M1004.018799,1034.763184 
	C1000.161255,1065.043945 978.586792,1086.544434 947.280579,1089.689087 
	C932.016296,1091.222290 916.470581,1089.954346 900.757935,1089.954346 
	C900.757935,1050.486206 900.757935,1010.608093 900.757935,970.146545 
	C922.981873,970.660400 945.203125,967.908569 966.653137,975.167053 
	C988.529663,982.569885 1006.804688,999.215698 1004.018799,1034.763184 
M916.288025,985.765930 
	C916.288025,1015.833740 916.288025,1045.901611 916.288025,1075.941772 
	C925.380432,1075.941772 934.046814,1076.589966 942.585327,1075.819702 
	C967.663940,1073.556763 984.162598,1057.971069 987.608643,1034.072876 
	C990.798401,1011.952087 980.474182,994.724365 959.791077,988.328979 
	C945.774780,983.995056 931.309937,984.023865 916.288025,985.765930 
z"/>
<path fill="#F7FAFA" opacity="1.000000" stroke="none" 
	d="
M733.584961,1090.855225 
	C731.515869,1089.666870 729.456604,1088.793457 728.311523,1087.244141 
	C716.138123,1070.775146 704.049133,1054.242188 692.104553,1037.606567 
	C690.231628,1034.998047 688.290649,1033.930542 685.105164,1034.119385 
	C680.489441,1034.393066 675.845459,1034.189453 670.601868,1034.189453 
	C670.601868,1053.217041 670.601868,1071.781982 670.601868,1090.597412 
	C665.046875,1090.597412 660.111084,1090.597412 654.816101,1090.597412 
	C654.816101,1050.653564 654.816101,1010.742981 654.816101,970.143494 
	C665.481689,970.143494 676.075256,969.949646 686.656677,970.223633 
	C692.109619,970.364807 697.694580,970.727112 702.954224,972.047363 
	C720.468384,976.443848 730.800232,991.561035 728.912659,1009.474609 
	C728.131592,1016.887634 724.496704,1022.726990 718.026428,1026.474365 
	C714.480652,1028.527832 710.609192,1030.019043 706.312256,1032.031738 
	C720.599731,1051.330566 734.883972,1070.625000 749.861755,1090.856201 
	C743.838013,1090.856201 738.928589,1090.856201 733.584961,1090.855225 
M695.700439,985.263062 
	C687.467957,985.263062 679.235535,985.263062 670.770264,985.263062 
	C670.770264,996.640198 670.770264,1008.049866 670.770264,1020.467712 
	C681.361267,1019.925232 691.827881,1019.955566 702.132141,1018.677185 
	C709.998291,1017.701294 713.565308,1011.869873 712.911133,1003.883118 
	C712.164856,994.771851 706.537598,988.478210 695.700439,985.263062 
z"/>
<path fill="#FAFCFC" opacity="1.000000" stroke="none" 
	d="
M692.874939,1258.264404 
	C666.977417,1228.492676 641.320618,1199.002075 615.106812,1168.871216 
	C615.106812,1199.351440 615.106812,1229.196411 615.106812,1259.278320 
	C609.956116,1259.278320 605.359314,1259.278320 600.457764,1259.278320 
	C600.457764,1220.781006 600.457764,1182.529297 600.457764,1143.977417 
	C606.011475,1143.056152 610.635315,1142.843262 615.229248,1148.235107 
	C638.647400,1175.720703 662.585327,1202.763428 686.753418,1230.432983 
	C686.753418,1201.358398 686.753418,1172.687866 686.753418,1143.799561 
	C691.982788,1143.799561 696.727112,1143.799561 701.657837,1143.799561 
	C701.657837,1183.234863 701.657837,1222.344849 701.657837,1261.472778 
	C697.806030,1263.046509 695.182678,1261.596436 692.874939,1258.264404 
z"/>
<path fill="#F9FBFB" opacity="1.000000" stroke="none" 
	d="
M936.175049,1143.469482 
	C944.318054,1143.470581 951.985535,1143.326050 959.645813,1143.500000 
	C981.193298,1143.989136 995.477844,1162.507080 988.868958,1181.672363 
	C987.399658,1185.933228 984.390015,1189.662720 982.502258,1192.924072 
	C987.076721,1197.380981 993.085571,1201.536987 996.832458,1207.191772 
	C1010.206055,1227.374878 997.647217,1255.248413 973.001221,1258.551758 
	C958.811279,1260.453613 944.157776,1258.896606 929.430664,1258.896606 
	C929.430664,1220.752563 929.430664,1182.501953 929.430664,1143.469482 
	C931.505737,1143.469482 933.600952,1143.469482 936.175049,1143.469482 
M968.692871,1245.740845 
	C981.460022,1241.977783 987.421265,1234.612305 986.984558,1223.140747 
	C986.617249,1213.492188 979.572083,1204.908936 969.013245,1203.471313 
	C960.946716,1202.373047 952.610840,1203.253052 944.272339,1203.253052 
	C944.272339,1217.349609 944.272339,1231.555176 944.272339,1245.899048 
	C952.297729,1245.899048 960.064270,1245.899048 968.692871,1245.740845 
M944.011292,1159.676758 
	C944.011292,1169.410278 944.011292,1179.143921 944.011292,1188.950928 
	C949.905273,1188.950928 955.227173,1189.338867 960.470459,1188.862427 
	C968.882690,1188.097900 974.722778,1182.096558 975.136169,1174.549561 
	C975.630371,1165.526978 971.392639,1159.140381 962.626221,1157.557373 
	C956.989563,1156.539429 951.071045,1157.046753 945.277832,1157.006104 
	C944.863342,1157.003174 944.440979,1158.115479 944.011292,1159.676758 
z"/>
<path fill="#F9FBFB" opacity="1.000000" stroke="none" 
	d="
M133.815720,1180.999756 
	C133.815720,1168.364624 133.815720,1156.229492 133.815720,1143.393433 
	C152.835602,1144.262207 171.695618,1141.092041 189.993484,1147.325195 
	C215.301147,1155.945923 229.962112,1176.825439 229.172577,1203.022339 
	C228.368118,1229.713989 212.505371,1250.019287 186.085541,1256.669678 
	C177.505508,1258.829468 168.352280,1258.964966 159.430038,1259.438354 
	C151.152374,1259.877441 142.833099,1259.531982 133.815720,1259.531982 
	C133.815720,1233.271851 133.815720,1207.385864 133.815720,1180.999756 
M148.530029,1214.499634 
	C148.530029,1224.925171 148.530029,1235.350586 148.530029,1246.720337 
	C158.676392,1246.081543 168.262939,1246.388428 177.483398,1244.698242 
	C194.114319,1241.649536 206.962738,1232.787598 211.765518,1215.750854 
	C216.640976,1198.456299 214.410355,1182.093750 200.548187,1169.352905 
	C185.740067,1155.742554 167.273849,1156.177856 148.529938,1157.139526 
	C148.529938,1176.190308 148.529938,1194.844849 148.530029,1214.499634 
z"/>
<path fill="#F7FAFA" opacity="1.000000" stroke="none" 
	d="
M167.026123,1091.021973 
	C144.805496,1084.025879 134.044220,1070.361206 133.579758,1047.138184 
	C133.083405,1022.320374 133.473465,997.484802 133.493057,972.657043 
	C133.493561,972.015015 133.685181,971.373169 133.832321,970.451477 
	C138.865967,970.451477 143.787125,970.451477 149.539993,970.451477 
	C149.539993,972.312805 149.532593,974.230652 149.541122,976.148376 
	C149.650040,1000.637024 149.293274,1025.139771 150.034637,1049.609375 
	C150.537476,1066.205811 161.938675,1076.982910 178.548340,1077.903931 
	C183.972260,1078.204712 189.629333,1078.015259 194.891846,1076.801636 
	C209.509308,1073.430542 217.347412,1062.164307 217.431229,1045.071411 
	C217.543976,1022.077026 217.459732,999.081726 217.460022,976.086792 
	C217.460052,974.290283 217.460007,972.493835 217.460007,970.422668 
	C222.743835,970.422668 227.499924,970.422668 233.017258,970.422668 
	C233.017258,972.140015 233.017242,973.888977 233.017242,975.637878 
	C233.017242,998.799438 233.017410,1021.960999 233.017227,1045.122559 
	C233.016998,1073.036865 216.632828,1090.942627 188.732391,1092.711426 
	C181.694366,1093.157593 174.534546,1091.682617 167.026123,1091.021973 
z"/>
<path fill="#F9FBFB" opacity="1.000000" stroke="none" 
	d="
M1096.501221,1241.469482 
	C1100.864014,1247.353760 1105.000610,1252.958252 1109.838989,1259.513550 
	C1103.821045,1259.513550 1098.728882,1259.753418 1093.686401,1259.358643 
	C1092.285034,1259.248901 1090.755493,1257.462036 1089.751343,1256.100586 
	C1078.889404,1241.375122 1068.031128,1226.644653 1057.403320,1211.750610 
	C1055.333618,1208.849976 1053.264404,1207.481323 1049.671143,1207.777466 
	C1045.731323,1208.102173 1041.744141,1207.851318 1037.282715,1207.851318 
	C1037.282715,1225.162354 1037.282715,1242.071167 1037.282715,1259.216187 
	C1032.040161,1259.216187 1027.299561,1259.216187 1022.354736,1259.216187 
	C1022.354736,1220.655029 1022.354736,1182.409424 1022.354736,1143.468018 
	C1029.889038,1143.468018 1037.337036,1143.328735 1044.777222,1143.508423 
	C1051.741211,1143.676514 1058.892700,1143.276123 1065.616577,1144.725952 
	C1080.271118,1147.885986 1089.576904,1158.811523 1090.815430,1172.681396 
	C1092.056885,1186.582275 1085.116821,1198.123901 1071.611938,1204.626343 
	C1071.165039,1204.841553 1070.735962,1205.093750 1069.899414,1205.543213 
	C1078.729858,1217.477417 1087.502441,1229.333618 1096.501221,1241.469482 
M1037.176514,1184.459961 
	C1037.176514,1187.586670 1037.176514,1190.713379 1037.176514,1194.002441 
	C1044.935059,1194.002441 1052.251709,1194.567871 1059.443726,1193.862427 
	C1068.847900,1192.939819 1075.172974,1185.702881 1075.800781,1176.537231 
	C1076.379272,1168.091797 1071.125610,1159.969727 1062.097778,1158.166504 
	C1054.125244,1156.574219 1045.763184,1156.932129 1037.176514,1156.404541 
	C1037.176514,1166.203247 1037.176514,1174.837646 1037.176514,1184.459961 
z"/>
<path fill="#F9FBFB" opacity="1.000000" stroke="none" 
	d="
M613.999878,1090.850342 
	C596.531128,1090.850342 579.562439,1090.850342 562.206177,1090.850342 
	C562.206177,1050.655762 562.206177,1010.772827 562.206177,970.519287 
	C584.289978,970.519287 606.485535,970.519287 628.932983,970.519287 
	C628.932983,975.112244 628.932983,979.543030 628.932983,984.422974 
	C612.023804,984.422974 595.254150,984.422974 578.170044,984.422974 
	C578.170044,996.420349 578.170044,1007.973389 578.170044,1019.964478 
	C592.051147,1019.964478 605.795532,1019.964478 619.772583,1019.964478 
	C619.772583,1024.807373 619.772583,1029.217041 619.772583,1034.129395 
	C605.908936,1034.129395 592.178040,1034.129395 578.153320,1034.129395 
	C578.153320,1048.358765 578.153320,1062.090454 578.153320,1076.354492 
	C597.313721,1076.354492 616.376831,1076.354492 635.722534,1076.354492 
	C635.722534,1081.296021 635.722534,1085.716797 635.722534,1090.850342 
	C628.691406,1090.850342 621.595581,1090.850342 613.999878,1090.850342 
z"/>
<path fill="#FAFCFC" opacity="1.000000" stroke="none" 
	d="
M1042.672119,1059.603760 
	C1038.835449,1069.054077 1035.047729,1078.097046 1031.597046,1087.266846 
	C1030.525635,1090.114136 1029.068481,1091.097534 1026.117676,1090.906860 
	C1022.316345,1090.661133 1018.487061,1090.847046 1013.959778,1090.847046 
	C1017.761902,1081.875732 1021.355652,1073.350098 1024.985352,1064.839844 
	C1038.280396,1033.667969 1051.600586,1002.506775 1064.860474,971.319946 
	C1065.750977,969.225525 1066.460938,967.663147 1069.315674,967.704407 
	C1071.982056,967.742859 1073.032837,968.851807 1073.979736,971.079651 
	C1090.484131,1009.914734 1107.059448,1048.719604 1123.599854,1087.539551 
	C1123.978516,1088.428101 1124.130737,1089.413086 1124.522827,1090.842407 
	C1119.715820,1090.842407 1115.240479,1091.129150 1110.841187,1090.676025 
	C1109.435059,1090.531250 1107.668335,1088.669189 1107.025879,1087.179321 
	C1103.145386,1078.181763 1099.452393,1069.099365 1095.904785,1059.964722 
	C1094.874634,1057.312134 1093.681763,1056.057373 1090.564087,1056.098022 
	C1076.241577,1056.285156 1061.913696,1056.084595 1047.592529,1056.315308 
	C1045.996582,1056.340942 1044.430664,1058.223633 1042.672119,1059.603760 
M1054.002808,1031.510620 
	C1052.659912,1034.966431 1051.317017,1038.422241 1049.863403,1042.162964 
	C1063.010376,1042.162964 1075.408203,1042.162964 1088.730103,1042.162964 
	C1082.531738,1026.893921 1076.579590,1012.231201 1070.217896,996.559509 
	C1061.713379,1007.704895 1059.280396,1019.845520 1054.002808,1031.510620 
z"/>
<path fill="#FAFCFC" opacity="1.000000" stroke="none" 
	d="
M756.442566,1063.367310 
	C768.775757,1074.155029 782.911682,1079.809204 799.472961,1078.048584 
	C809.345032,1076.999023 816.918701,1070.747314 818.884033,1062.554565 
	C821.229004,1052.778687 817.594055,1043.604248 808.462952,1038.217773 
	C803.493408,1035.286255 797.938110,1033.335815 792.611633,1031.024292 
	C787.888428,1028.974609 782.973999,1027.318970 778.390259,1025.002197 
	C758.604675,1015.002197 756.177185,990.756470 773.431152,976.556824 
	C786.978943,965.407227 813.746765,965.297668 827.917786,976.503296 
	C826.873169,980.723511 825.801025,985.054810 824.858582,988.861938 
	C818.130188,986.690125 811.591614,983.934998 804.774719,982.545715 
	C796.639648,980.887939 788.773682,982.405212 782.586426,988.624451 
	C774.402405,996.850769 776.349487,1006.567871 786.892700,1011.173462 
	C797.228882,1015.688599 808.046082,1019.423584 817.695068,1025.121704 
	C835.796326,1035.811279 841.084167,1056.691162 831.193970,1074.489746 
	C824.592163,1086.370361 813.516968,1091.257935 800.730225,1092.662598 
	C787.677979,1094.096313 775.121277,1091.900269 763.709717,1085.137207 
	C761.704285,1083.948608 759.906189,1081.461304 759.211853,1079.204712 
	C757.706726,1074.313110 756.977600,1069.182861 756.184021,1063.809570 
	C756.436890,1063.469116 756.442566,1063.367310 756.442566,1063.367310 
z"/>
<path fill="#F2F7F7" opacity="1.000000" stroke="none" 
	d="
M303.987854,1259.561523 
	C285.705536,1259.561401 267.920502,1259.561401 249.789001,1259.561401 
	C249.789001,1220.730835 249.789001,1182.378540 249.789001,1143.732056 
	C270.430847,1143.732056 290.831207,1143.732056 311.551514,1143.732056 
	C311.551514,1147.986084 311.551514,1152.055542 311.551514,1156.656006 
	C296.132477,1156.656006 280.736755,1156.656006 264.953644,1156.656006 
	C264.953644,1169.368286 264.953644,1181.559937 264.953644,1194.313843 
	C277.569183,1194.313843 290.129181,1194.313843 302.941467,1194.313843 
	C302.941467,1198.969116 302.941467,1203.072266 302.941467,1207.707397 
	C290.357635,1207.707397 277.813171,1207.707397 264.919403,1207.707397 
	C264.919403,1220.626465 264.919403,1233.025391 264.919403,1246.000244 
	C282.371063,1246.000244 299.925720,1246.000244 317.749756,1246.000244 
	C317.749756,1250.661255 317.749756,1254.758423 317.749756,1259.561523 
	C313.346985,1259.561523 308.916077,1259.561523 303.987854,1259.561523 
z"/>
<path fill="#FAFCFC" opacity="1.000000" stroke="none" 
	d="
M499.500732,1215.462158 
	C509.213165,1191.557007 518.699707,1167.972534 528.398071,1144.475586 
	C529.020325,1142.968018 531.216919,1141.367310 532.799683,1141.235718 
	C534.055359,1141.131348 536.167297,1142.935791 536.750671,1144.362305 
	C552.033508,1181.734375 567.167236,1219.167358 582.318298,1256.593262 
	C582.610901,1257.316040 582.804504,1258.078857 583.268921,1259.520386 
	C578.679199,1259.520386 574.558228,1259.778442 570.503906,1259.372070 
	C569.189758,1259.240356 567.506653,1257.603638 566.919922,1256.252563 
	C563.412659,1248.177246 560.073181,1240.023926 556.905884,1231.808716 
	C555.813599,1228.975708 554.468994,1227.700073 551.176941,1227.757690 
	C538.519958,1227.979004 525.854980,1227.959717 513.197021,1227.766357 
	C510.130035,1227.719727 508.900116,1228.895508 507.885071,1231.563477 
	C504.812897,1239.638306 501.295105,1247.546265 498.321136,1255.654785 
	C497.202911,1258.703613 495.678497,1259.821411 492.525665,1259.581421 
	C489.231812,1259.330933 485.904114,1259.525513 481.715637,1259.525513 
	C487.732178,1244.585815 493.527924,1230.194458 499.500732,1215.462158 
M533.255737,1171.574097 
	C532.720642,1171.590210 531.789429,1171.445923 531.708557,1171.645874 
	C529.901001,1176.109863 528.200562,1180.616943 526.452698,1185.105347 
	C522.621704,1194.943115 518.775818,1204.774780 514.854431,1214.817871 
	C526.728516,1214.817871 538.007935,1214.817871 549.744812,1214.817871 
	C544.271729,1200.423706 538.914612,1186.334717 533.255737,1171.574097 
z"/>
<path fill="#FAFCFC" opacity="1.000000" stroke="none" 
	d="
M1241.798828,1255.285400 
	C1238.445801,1247.084717 1235.166626,1239.271851 1232.071655,1231.386719 
	C1231.127197,1228.980225 1230.086060,1227.716064 1227.125854,1227.761475 
	C1214.137573,1227.961426 1201.142456,1227.737427 1188.156128,1227.991943 
	C1186.586426,1228.022583 1184.290039,1229.684448 1183.633667,1231.167236 
	C1180.069702,1239.218628 1176.778442,1247.400269 1173.692383,1255.648926 
	C1172.583130,1258.613647 1171.102539,1259.867798 1167.893188,1259.589111 
	C1164.600342,1259.303223 1161.263550,1259.525635 1157.002686,1259.525635 
	C1173.170532,1219.658325 1189.099121,1180.380981 1204.911865,1141.389282 
	C1209.208130,1140.109741 1211.168213,1141.455811 1212.729370,1145.357788 
	C1227.538452,1182.370239 1242.582397,1219.288696 1257.553711,1256.236328 
	C1257.863159,1256.999878 1258.113403,1257.787476 1258.709106,1259.452515 
	C1253.788818,1259.452515 1249.215576,1259.679077 1244.697876,1259.279419 
	C1243.680420,1259.189331 1242.856323,1256.914673 1241.798828,1255.285400 
M1217.568115,1194.974609 
	C1214.395386,1186.832275 1211.222656,1178.689941 1207.778076,1169.849976 
	C1201.777222,1185.238403 1196.074829,1199.861328 1190.307007,1214.651978 
	C1202.382568,1214.651978 1213.562012,1214.651978 1225.104370,1214.651978 
	C1222.582153,1208.052124 1220.221069,1201.873779 1217.568115,1194.974609 
z"/>
<path fill="#FAFCFC" opacity="1.000000" stroke="none" 
	d="
M896.659363,1220.311768 
	C901.918091,1233.292114 907.013550,1245.922974 912.485168,1259.486328 
	C907.431152,1259.486328 902.870850,1259.668335 898.348328,1259.335938 
	C897.420044,1259.267700 896.350769,1257.394409 895.826843,1256.150635 
	C892.343506,1247.880737 888.892456,1239.593994 885.654419,1231.226196 
	C884.658569,1228.652588 883.342712,1227.741577 880.540100,1227.776733 
	C867.712158,1227.937500 854.880005,1227.935791 842.052002,1227.778076 
	C839.261108,1227.743774 837.973206,1228.635864 836.995056,1231.227295 
	C833.942993,1239.313354 830.463745,1247.238770 827.443237,1255.335938 
	C826.295837,1258.411865 824.883606,1259.978149 821.363220,1259.600220 
	C818.102112,1259.250122 814.773804,1259.525635 810.700073,1259.525635 
	C814.373535,1250.377563 817.784607,1241.813477 821.247986,1233.270752 
	C833.173889,1203.854614 845.118164,1174.445801 857.055542,1145.034424 
	C857.910400,1142.928223 858.317993,1140.821167 861.632385,1140.850220 
	C864.964478,1140.879517 865.253113,1143.046997 866.101196,1145.135864 
	C876.228943,1170.079590 886.363403,1195.020630 896.659363,1220.311768 
M846.143494,1208.679932 
	C845.442993,1210.672241 844.742432,1212.664673 843.981079,1214.830078 
	C855.692322,1214.830078 866.986328,1214.830078 878.807190,1214.830078 
	C873.005493,1199.782349 867.327393,1185.055298 861.464111,1169.848022 
	C856.306885,1182.931030 851.374573,1195.443237 846.143494,1208.679932 
z"/>
<path fill="#FAFCFC" opacity="1.000000" stroke="none" 
	d="
M451.417480,1002.643677 
	C446.949219,991.880432 442.667633,981.453308 438.034241,970.169434 
	C443.583710,970.169434 448.477448,969.968933 453.331512,970.318848 
	C454.460266,970.400208 455.901062,972.169373 456.444000,973.475464 
	C468.045502,1001.384521 479.538361,1029.338745 491.059113,1057.281494 
	C491.364380,1058.021973 491.744324,1058.731445 491.774506,1058.794800 
	C502.392090,1033.803223 513.127136,1008.535034 523.859985,983.265930 
	C523.924622,983.113647 523.940430,982.940491 524.005737,982.788574 
	C529.761169,969.392212 529.761292,969.392273 545.012817,970.402893 
	C543.886719,973.278564 542.860840,976.034180 541.736328,978.748962 
	C526.607361,1015.273010 511.466217,1051.791992 496.321564,1088.309570 
	C495.406677,1090.515747 495.142273,1093.002075 491.547394,1092.965332 
	C487.911682,1092.928345 487.763794,1090.296631 486.870911,1088.145264 
	C475.092865,1059.766113 463.353363,1031.370972 451.417480,1002.643677 
z"/>
<path fill="#FAFCFC" opacity="1.000000" stroke="none" 
	d="
M469.799927,1250.681030 
	C468.497772,1252.877686 467.678711,1255.639893 465.999695,1256.340088 
	C435.264465,1269.159180 390.232300,1259.671143 378.074005,1219.038330 
	C365.549286,1177.180664 398.405334,1137.799561 442.573090,1141.773682 
	C451.518951,1142.578491 460.257324,1145.808716 469.055084,1148.062500 
	C471.468475,1148.680664 472.421478,1150.227051 471.512329,1152.973511 
	C470.434113,1156.230957 469.896332,1159.667358 469.088348,1163.182617 
	C453.514618,1154.566528 437.707886,1152.081299 421.133698,1157.837891 
	C400.331604,1165.062744 389.049713,1183.771606 390.997986,1207.391968 
	C392.605530,1226.880859 407.986969,1243.404907 428.210541,1246.985474 
	C443.442871,1249.682251 457.991333,1247.546265 472.333557,1239.078979 
	C471.393402,1243.378296 470.638062,1246.832520 469.799927,1250.681030 
z"/>
<path fill="#F4F8F9" opacity="1.000000" stroke="none" 
	d="
M815.548889,1152.716797 
	C816.046448,1156.464478 814.290710,1156.958618 811.447144,1156.917603 
	C801.621704,1156.775269 791.792908,1156.863037 781.965393,1156.863159 
	C780.335083,1156.863159 778.704773,1156.863281 776.527161,1156.863281 
	C776.527161,1191.222534 776.527161,1225.097534 776.527161,1259.258057 
	C771.398315,1259.258057 766.836060,1259.258057 761.831543,1259.258057 
	C761.831543,1225.142822 761.831543,1191.233398 761.831543,1156.976440 
	C748.772156,1156.976440 736.146545,1156.976440 723.163818,1156.976440 
	C723.163818,1152.422607 723.163818,1148.213745 723.163818,1143.722168 
	C753.790894,1143.722168 784.339172,1143.722168 815.549622,1143.722168 
	C815.549622,1146.715698 815.549622,1149.492676 815.548889,1152.716797 
z"/>
<path fill="#FAFCFC" opacity="1.000000" stroke="none" 
	d="
M857.154419,1067.000000 
	C857.154419,1034.566162 857.154419,1002.632202 857.154419,970.427917 
	C862.611206,970.427917 867.529114,970.427917 872.814575,970.427917 
	C872.814575,1010.387939 872.814575,1050.272339 872.814575,1090.501709 
	C867.826965,1090.501709 862.777405,1090.501709 857.154419,1090.501709 
	C857.154419,1082.724365 857.154419,1075.112183 857.154419,1067.000000 
z"/>
<path fill="#FAFCFC" opacity="1.000000" stroke="none" 
	d="
M405.334229,970.157471 
	C409.758606,970.155212 413.715454,970.155212 417.910950,970.155212 
	C417.910950,1010.559692 417.910950,1050.449707 417.910950,1090.592651 
	C412.721191,1090.592651 407.796356,1090.592651 402.405853,1090.592651 
	C402.318939,1088.898438 402.165588,1087.296875 402.164978,1085.695312 
	C402.151428,1048.872070 402.133881,1012.048706 402.212860,975.225647 
	C402.217010,973.296509 400.737671,970.121704 405.334229,970.157471 
z"/>
<path fill="#F4F8F9" opacity="1.000000" stroke="none" 
	d="
M1136.811523,1258.932861 
	C1132.104370,1259.287354 1127.648071,1259.287354 1122.822144,1259.287354 
	C1122.822144,1220.783447 1122.822144,1182.446533 1122.822144,1143.779785 
	C1127.523926,1143.779785 1132.089722,1143.779785 1137.062622,1143.779785 
	C1137.062622,1182.096436 1137.062622,1220.337402 1136.811523,1258.932861 
z"/>
<path fill="#FAFCFC" opacity="1.000000" stroke="none" 
	d="
M756.484253,1063.450317 
	C756.531677,1063.431519 756.322327,1063.475464 756.322327,1063.475464 
	C756.322327,1063.475464 756.490906,1063.536987 756.466736,1063.452148 
	C756.442566,1063.367310 756.436890,1063.469116 756.484253,1063.450317 
z"/>
<path fill="#146A70" opacity="1.000000" stroke="none" 
	d="
M1159.538086,1006.999756 
	C1159.538086,999.381226 1159.538086,992.262695 1159.538086,984.629700 
	C1176.515991,984.482849 1193.001709,983.678040 1208.570801,990.489502 
	C1225.417358,997.859863 1233.730713,1014.786743 1230.605103,1034.780884 
	C1226.914917,1058.386230 1210.412354,1073.622681 1185.348267,1075.841797 
	C1177.103271,1076.571777 1168.739380,1075.956787 1159.538086,1075.956787 
	C1159.538086,1053.303589 1159.538086,1030.401611 1159.538086,1006.999756 
z"/>
<path fill="#156B71" opacity="1.000000" stroke="none" 
	d="
M916.556519,985.365906 
	C931.309937,984.023865 945.774780,983.995056 959.791077,988.328979 
	C980.474182,994.724365 990.798401,1011.952087 987.608643,1034.072876 
	C984.162598,1057.971069 967.663940,1073.556763 942.585327,1075.819702 
	C934.046814,1076.589966 925.380432,1075.941772 916.288025,1075.941772 
	C916.288025,1045.901611 916.288025,1015.833740 916.556519,985.365906 
z"/>
<path fill="#146A70" opacity="1.000000" stroke="none" 
	d="
M696.104492,985.400513 
	C706.537598,988.478210 712.164856,994.771851 712.911133,1003.883118 
	C713.565308,1011.869873 709.998291,1017.701294 702.132141,1018.677185 
	C691.827881,1019.955566 681.361267,1019.925232 670.770264,1020.467712 
	C670.770264,1008.049866 670.770264,996.640198 670.770264,985.263062 
	C679.235535,985.263062 687.467957,985.263062 696.104492,985.400513 
z"/>
<path fill="#146A70" opacity="1.000000" stroke="none" 
	d="
M968.261841,1245.819946 
	C960.064270,1245.899048 952.297729,1245.899048 944.272339,1245.899048 
	C944.272339,1231.555176 944.272339,1217.349609 944.272339,1203.253052 
	C952.610840,1203.253052 960.946716,1202.373047 969.013245,1203.471313 
	C979.572083,1204.908936 986.617249,1213.492188 986.984558,1223.140747 
	C987.421265,1234.612305 981.460022,1241.977783 968.261841,1245.819946 
z"/>
<path fill="#156B71" opacity="1.000000" stroke="none" 
	d="
M944.016785,1159.192993 
	C944.440979,1158.115479 944.863342,1157.003174 945.277832,1157.006104 
	C951.071045,1157.046753 956.989563,1156.539429 962.626221,1157.557373 
	C971.392639,1159.140381 975.630371,1165.526978 975.136169,1174.549561 
	C974.722778,1182.096558 968.882690,1188.097900 960.470459,1188.862427 
	C955.227173,1189.338867 949.905273,1188.950928 944.011292,1188.950928 
	C944.011292,1179.143921 944.011292,1169.410278 944.016785,1159.192993 
z"/>
<path fill="#146A70" opacity="1.000000" stroke="none" 
	d="
M148.529984,1213.999512 
	C148.529938,1194.844849 148.529938,1176.190308 148.529938,1157.139526 
	C167.273849,1156.177856 185.740067,1155.742554 200.548187,1169.352905 
	C214.410355,1182.093750 216.640976,1198.456299 211.765518,1215.750854 
	C206.962738,1232.787598 194.114319,1241.649536 177.483398,1244.698242 
	C168.262939,1246.388428 158.676392,1246.081543 148.530029,1246.720337 
	C148.530029,1235.350586 148.530029,1224.925171 148.529984,1213.999512 
z"/>
<path fill="#166C72" opacity="1.000000" stroke="none" 
	d="
M1037.176514,1183.966064 
	C1037.176514,1174.837646 1037.176514,1166.203247 1037.176514,1156.404541 
	C1045.763184,1156.932129 1054.125244,1156.574219 1062.097778,1158.166504 
	C1071.125610,1159.969727 1076.379272,1168.091797 1075.800781,1176.537231 
	C1075.172974,1185.702881 1068.847900,1192.939819 1059.443726,1193.862427 
	C1052.251709,1194.567871 1044.935059,1194.002441 1037.176514,1194.002441 
	C1037.176514,1190.713379 1037.176514,1187.586670 1037.176514,1183.966064 
z"/>
<path fill="#166C72" opacity="1.000000" stroke="none" 
	d="
M1054.120117,1031.141113 
	C1059.280396,1019.845520 1061.713379,1007.704895 1070.217896,996.559509 
	C1076.579590,1012.231201 1082.531738,1026.893921 1088.730103,1042.162964 
	C1075.408203,1042.162964 1063.010376,1042.162964 1049.863403,1042.162964 
	C1051.317017,1038.422241 1052.659912,1034.966431 1054.120117,1031.141113 
z"/>
<path fill="#166C72" opacity="1.000000" stroke="none" 
	d="
M533.406616,1171.909912 
	C538.914612,1186.334717 544.271729,1200.423706 549.744812,1214.817871 
	C538.007935,1214.817871 526.728516,1214.817871 514.854431,1214.817871 
	C518.775818,1204.774780 522.621704,1194.943115 526.452698,1185.105347 
	C528.200562,1180.616943 529.901001,1176.109863 531.708557,1171.645874 
	C531.789429,1171.445923 532.720642,1171.590210 533.406616,1171.909912 
z"/>
<path fill="#166C72" opacity="1.000000" stroke="none" 
	d="
M1217.714111,1195.334961 
	C1220.221069,1201.873779 1222.582153,1208.052124 1225.104370,1214.651978 
	C1213.562012,1214.651978 1202.382568,1214.651978 1190.307007,1214.651978 
	C1196.074829,1199.861328 1201.777222,1185.238403 1207.778076,1169.849976 
	C1211.222656,1178.689941 1214.395386,1186.832275 1217.714111,1195.334961 
z"/>
<path fill="#166C72" opacity="1.000000" stroke="none" 
	d="
M846.292908,1208.317627 
	C851.374573,1195.443237 856.306885,1182.931030 861.464111,1169.848022 
	C867.327393,1185.055298 873.005493,1199.782349 878.807190,1214.830078 
	C866.986328,1214.830078 855.692322,1214.830078 843.981079,1214.830078 
	C844.742432,1212.664673 845.442993,1210.672241 846.292908,1208.317627 
z"/>
</svg>