<?xml version="1.0" encoding="UTF-8" standalone="no"?>
<!-- Created with Inkscape (http://www.inkscape.org/) -->

<svg
   xmlns:dc="http://purl.org/dc/elements/1.1/"
   xmlns:cc="http://creativecommons.org/ns#"
   xmlns:rdf="http://www.w3.org/1999/02/22-rdf-syntax-ns#"
   xmlns:svg="http://www.w3.org/2000/svg"
   xmlns="http://www.w3.org/2000/svg"
   xmlns:xlink="http://www.w3.org/1999/xlink"
   xmlns:sodipodi="http://sodipodi.sourceforge.net/DTD/sodipodi-0.dtd"
   xmlns:inkscape="http://www.inkscape.org/namespaces/inkscape"
   width="59.49535mm"
   height="38.416985mm"
   viewBox="0 0 59.49535 38.416985"
   version="1.1"
   id="svg4728"
   inkscape:version="0.92.1 r15371"
   sodipodi:docname="eye_ball.svg">
  <defs
     id="defs4722">
    <linearGradient
       id="_6Body_1_"
       gradientUnits="userSpaceOnUse"
       x1="119.2285"
       y1="573.67291"
       x2="95.8787"
       y2="623.48547"
       gradientTransform="matrix(3.367,0,0,-3.367,48.7102,2714.5645)"
       xlink:href="#_6Lens_1_">
      <stop
         offset="0"
         style="stop-color:#E6E5E5"
         id="stop8" />
      <stop
         offset="1"
         style="stop-color:#D2D1D1"
         id="stop10" />
    </linearGradient>
    <radialGradient
       id="_6Lens_1_"
       cx="133.51421"
       cy="600.40332"
       r="6.7663002"
       gradientTransform="matrix(3.367,0,0,-3.367,48.7102,2714.5645)"
       gradientUnits="userSpaceOnUse">
      <stop
         offset="0"
         style="stop-color:#F2F9F5"
         id="stop15" />
      <stop
         offset="1"
         style="stop-color:#8CACBC"
         id="stop17" />
    </radialGradient>
  </defs>
  <sodipodi:namedview
     id="base"
     pagecolor="#ffffff"
     bordercolor="#666666"
     borderopacity="1.0"
     inkscape:pageopacity="0.0"
     inkscape:pageshadow="2"
     inkscape:zoom="1.8101934"
     inkscape:cx="129.39032"
     inkscape:cy="71.762425"
     inkscape:document-units="mm"
     inkscape:current-layer="layer1"
     showgrid="false"
     fit-margin-bottom="-0.1"
     inkscape:window-width="1366"
     inkscape:window-height="705"
     inkscape:window-x="-8"
     inkscape:window-y="-8"
     inkscape:window-maximized="1"
     fit-margin-top="0"
     fit-margin-left="0"
     fit-margin-right="0" />
  <metadata
     id="metadata4725">
    <rdf:RDF>
      <cc:Work
         rdf:about="">
        <dc:format>image/svg+xml</dc:format>
        <dc:type
           rdf:resource="http://purl.org/dc/dcmitype/StillImage" />
        <dc:title></dc:title>
      </cc:Work>
    </rdf:RDF>
  </metadata>
  <g
     inkscape:label="Layer 1"
     inkscape:groupmode="layer"
     id="layer1"
     transform="translate(-1.9080255,-13.738575)">
    <g
       transform="matrix(0.26458333,0,0,0.26458333,-78.046855,-151.50615)"
       id="FDiag">
      <polygon
         style="fill:#efddc7;fill-opacity:1"
         id="_6Humor"
         points="466.694,632.345 410.574,640.865 378.658,689.566 388.281,733.034 440.553,762.472 500.522,742.657 509.327,708.271 504.377,702.495 503.827,688.464 507.958,682.956 501.347,656.824 " />
      <path
         style="fill:#fbed26;stroke:#f6c314"
         inkscape:connector-curvature="0"
         id="_6Retina"
         d="m 391.035,708.829 c 1.48,-1.222 3.288,-5.182 2.737,-8.107 1.704,-15.683 4.425,-33.431 16.492,-44.775 11.706,-11.001 26.243,-17.13 42.71,-17.13 7.505,0 16.147,1.757 24.462,4.683 0.913,0.327 2.729,-0.345 3.615,0 6.206,2.428 11.404,8.194 14.624,12.773 3.451,4.89 3.073,12.602 2.97,19.521 2.048,-1.411 1.472,-1.566 3.528,-2.979 -0.912,-7.893 -1.824,-15.785 -2.736,-23.687 -15.262,-7.679 -30.522,-15.355 -45.783,-23.033 -15.037,3.683 -30.066,7.351 -45.094,11.034 -11.397,18.386 -22.775,36.771 -34.172,55.156 -0.681,3.349 1.033,4.751 0.344,8.108 2.394,8.538 4.786,17.085 7.18,25.633 14.684,11.345 26.992,24.651 41.676,36.013 17.99,-1.084 35.988,-2.169 53.986,-3.253 7.506,-7.679 15.028,-15.355 22.543,-23.033 -0.232,-5.509 -0.457,-11.035 -0.68,-16.544 -2.049,5.836 -0.577,13.212 -5.147,17.576 -4.76,4.563 -10.519,10.905 -17.232,13.686 -0.817,0.346 -3.934,-0.068 -4.769,0.225 -3.339,1.222 -5.664,1.67 -9.072,2.117 -13.323,1.79 -28.267,-0.353 -39.972,-6.679 -12.086,-6.524 -19.91,-19.35 -25.376,-31.143 -1.015,-2.855 -2.926,-5.137 -6.834,-6.162 z" />
      <path
         style="fill:#b98fb9;stroke:#974678;stroke-width:0.75"
         inkscape:connector-curvature="0"
         id="_6OpticNerve"
         d="m 303.326,724.341 1.376,7.247 c 23.877,-5.604 49.028,-11.758 73.009,-17.387 5.526,-1.36 14.599,8.298 16.716,11.551 -1.11,-3.452 -7.901,-11.628 -11.965,-12.652 2.721,-0.104 5.655,1.187 7.772,2.702 2.487,1.765 3.486,5.612 5.458,8.177 -0.629,-1.188 -1.188,-3.271 -1.825,-4.458 0.887,0.31 1.729,1.032 2.616,1.343 -1.136,-0.793 -2.116,-1.799 -3.253,-2.582 -0.56,-1.067 -1.223,-2.188 -2.126,-2.944 -1.808,-1.532 -4.579,-2.823 -6.912,-3.684 1.954,-0.259 4.64,0.232 6.481,0.852 1.145,0.388 2.031,1.679 3.047,2.35 -0.946,-1.127 -1.67,-2.427 -2.909,-3.185 -1.411,-0.869 -3.598,-1.532 -5.354,-1.325 1.102,-0.81 3.029,-2.47 3.478,-3.873 0.68,-2.152 1.015,-4.407 1.515,-6.61 -1.084,2.581 -1.652,5.731 -3.529,7.807 -0.774,0.843 -3.684,2.022 -5.337,1.867 3.013,-2.065 6.293,-6.111 7.239,-9.95 0.56,-2.29 0.766,-3.356 1.146,-5.715 -0.319,1.188 -1.067,3.245 -1.67,4.114 -0.362,-1.412 -0.836,-4.872 -1.197,-6.274 0.112,1.678 0.438,3.357 0.345,5.035 -0.078,1.446 0.206,1.704 -0.525,4.148 -0.474,1.618 -3.374,4.072 -5.044,5.026 1.602,-1.687 3.322,-8.538 2.453,-14.908 -0.284,3.073 -0.206,12.93 -5.759,15.605 z" />
      <path
         style="fill:none;stroke:#974678;stroke-width:0.75"
         inkscape:connector-curvature="0"
         id="_6NerveLines"
         d="m 388.229,701.341 c -1.076,2.187 -5.027,6.267 -8.16,6.989 l -76.657,17.801 m 78.559,-16.768 -78.216,18.059 m 80.953,-15.82 c -1.471,-0.456 -3.398,-0.568 -5.594,-0.068 l -75.419,17.593" />
      <polygon
         style="fill:#eef3f5"
         id="_6Aqueous"
         points="518.158,672.051 506.288,667.445 506.529,727.267 518.88,720.726 524.45,696.263 " />
      <linearGradient
         id="linearGradient4710"
         gradientUnits="userSpaceOnUse"
         x1="119.2285"
         y1="573.67291"
         x2="95.8787"
         y2="623.48547"
         gradientTransform="matrix(3.367,0,0,-3.367,48.7102,2714.5645)">
        <stop
           offset="0"
           style="stop-color:#E6E5E5"
           id="stop4706" />
        <stop
           offset="1"
           style="stop-color:#D2D1D1"
           id="stop4708" />
      </linearGradient>
      <path
         style="fill:url(#_6Body_1_);stroke:#aba9a9;fill-opacity:1.0"
         inkscape:connector-curvature="0"
         id="_6Body"
         d="m 511.522,727.861 -0.354,-0.009 c -11.509,24.668 -38.139,41.771 -65.546,41.771 -27.405,0 -52.264,-17.558 -65.054,-37.897 -2.179,-2.256 -4.468,-7.247 -8.453,-7.609 -14.409,-1.299 -38.966,5.664 -66.347,11.603 l -0.895,-4.63 70.34,-16.682 c 5.095,-0.232 9.106,1.103 11.224,3.771 10.313,23.352 22.285,39.008 60.976,42.176 26.622,2.178 39.268,-10.476 50.767,-23.567 1.257,-5.99 1.601,-11.378 -0.509,-17.524 1.249,0.061 2.488,0.121 3.745,0.172 0,1.954 0.774,3.599 1.858,5.165 2.815,-5.999 3.926,-11.999 4.545,-18.007 1.085,-1.79 1.929,-1.566 2.531,0.671 -0.422,5.476 -0.93,10.949 -1.722,16.423 7.592,-1.721 13.444,-13.117 13.444,-26.906 0,-14.082 -6.11,-25.668 -13.926,-27.027 0.739,5.233 1.222,10.45 1.617,15.666 -0.603,2.255 -1.445,2.479 -2.53,0.68 -0.533,-5.139 -1.42,-10.277 -3.426,-15.416 -1.033,1.515 -1.747,3.116 -1.747,4.992 -1.248,0.052 -2.487,0.112 -3.744,0.173 2.16,-6.31 1.799,-11.827 0.481,-17.973 -11.499,-13.515 -21.036,-24.29 -48.227,-24.29 -52.489,0 -69.179,45.602 -68.653,63.385 0.181,6.163 -0.783,8.951 -8.091,10.966 l -70.134,17.111 -0.921,-4.751 c 23.464,-6.352 50.062,-11.293 64.427,-17.973 5.07,-2.357 6.585,-8.16 6.542,-12.145 4.183,-36.557 39.706,-65.133 71.88,-65.133 34.25,0 53.194,16.182 64.936,40.258 l 0.964,0.343 c 8.298,3.108 15.036,13.937 15.036,31.108 0.002,17.169 -6.736,28.515 -15.034,31.105 z" />
      <path
         style="fill:#ffffff;stroke:#aba9a9"
         inkscape:connector-curvature="0"
         id="_6Cornea"
         d="m 508.388,724.307 c 7.756,-1.773 13.548,-13.11 13.548,-27.07 0,-13.971 -6.06,-25.573 -13.892,-27.243 l -0.043,-0.087 2.125,-4.492 v 0.017 l 0.999,0.345 c 8.504,3.142 15.407,14.082 15.407,31.435 0,17.31 -6.86,28.748 -15.329,31.416 z" />
      <radialGradient
         id="radialGradient4718"
         cx="133.51421"
         cy="600.40332"
         r="6.7663002"
         gradientTransform="matrix(3.367,0,0,-3.367,48.7102,2714.5645)"
         gradientUnits="userSpaceOnUse">
        <stop
           offset="0"
           style="stop-color:#F2F9F5"
           id="stop4714" />
        <stop
           offset="1"
           style="stop-color:#8CACBC"
           id="stop4716" />
      </radialGradient>
      <path
         style="fill:url(#_6Lens_1_);stroke:#4b5777"
         inkscape:connector-curvature="0"
         id="_6Lens"
         d="m 500.315,674.934 c 4.364,0 7.901,10.397 7.901,23.224 0,12.824 -3.537,23.222 -7.901,23.222 -4.372,0 -7.919,-10.397 -7.919,-23.222 0,-12.827 3.547,-23.224 7.919,-23.224 z" />
    </g>
  </g>
</svg>
